
<svg width="601px" height="733px" viewBox="0 0 601 733" version="1.1" xmlns="http://www.w3.org/2000/svg" xmlns:xlink="http://www.w3.org/1999/xlink">
    <defs>
        <path d="M60.7734375,59.9082031 L66.4960938,59.9082031 C70.7539062,59.9082031 73.2539062,62.3789062 73.2539062,66.8710938 C73.2539062,71.3730469 70.7441406,74 66.4960938,74 L60.7734375,74 L60.7734375,59.9082031 Z M64.3574219,62.7988281 L64.3574219,71.109375 L66.0273438,71.109375 C68.3613281,71.109375 69.6113281,69.6933594 69.6113281,66.8808594 C69.6113281,64.234375 68.2929688,62.7988281 66.0273438,62.7988281 L64.3574219,62.7988281 Z M79.875,74.2539062 C76.5253906,74.2539062 74.4355469,72.2226562 74.4355469,68.6777344 C74.4355469,65.2011719 76.5742188,63.1113281 79.875,63.1113281 C83.1953125,63.1113281 85.3144531,65.1914062 85.3144531,68.6777344 C85.3144531,72.2324219 83.2246094,74.2539062 79.875,74.2539062 Z M79.875,71.7148438 C81.0566406,71.7148438 81.8085938,70.6308594 81.8085938,68.6875 C81.8085938,66.7734375 81.0566406,65.6503906 79.875,65.6503906 C78.703125,65.6503906 77.9511719,66.7734375 77.9511719,68.6875 C77.9511719,70.6308594 78.6835938,71.7148438 79.875,71.7148438 Z M94.1621094,74 L90.7636719,74 L90.7636719,59.9082031 L93.625,59.9082031 L99.6015625,68.1015625 L99.6796875,68.1015625 L99.6796875,59.9082031 L103.078125,59.9082031 L103.078125,74 L100.246094,74 L94.2402344,65.7285156 L94.1621094,65.7285156 L94.1621094,74 Z M111.779297,59.6640625 C116.046875,59.6640625 118.732422,62.4667969 118.732422,66.9589844 C118.732422,71.4511719 116.046875,74.2441406 111.779297,74.2441406 C107.501953,74.2441406 104.816406,71.4511719 104.816406,66.9589844 C104.816406,62.4667969 107.511719,59.6640625 111.779297,59.6640625 Z M111.779297,62.5742188 C109.777344,62.5742188 108.46875,64.2734375 108.46875,66.9589844 C108.46875,69.6347656 109.767578,71.3339844 111.779297,71.3339844 C113.78125,71.3339844 115.089844,69.6347656 115.089844,66.9589844 C115.089844,64.2734375 113.78125,62.5742188 111.779297,62.5742188 Z M127.326172,74 L123.751953,74 L123.751953,62.7988281 L119.865234,62.7988281 L119.865234,59.9082031 L131.212891,59.9082031 L131.212891,62.7988281 L127.326172,62.7988281 L127.326172,74 Z M143.449219,74 L139.875,74 L139.875,62.7988281 L135.988281,62.7988281 L135.988281,59.9082031 L147.335938,59.9082031 L147.335938,62.7988281 L143.449219,62.7988281 L143.449219,74 Z M148.615234,74 L148.615234,63.3652344 L151.984375,63.3652344 L151.984375,65.3769531 L152.052734,65.3769531 C152.443359,63.9414062 153.302734,63.2089844 154.552734,63.2089844 C154.904297,63.2089844 155.197266,63.2578125 155.431641,63.3457031 L155.431641,66.2949219 C155.138672,66.1777344 154.738281,66.0996094 154.328125,66.0996094 C152.873047,66.0996094 152.082031,66.9199219 152.082031,68.4042969 L152.082031,74 L148.615234,74 Z M161.505859,65.5722656 C160.441406,65.5722656 159.650391,66.3632812 159.5625,67.4667969 L163.429688,67.4667969 C163.371094,66.3339844 162.599609,65.5722656 161.505859,65.5722656 Z M163.507812,70.640625 L166.632812,70.640625 C166.300781,72.8378906 164.347656,74.2539062 161.564453,74.2539062 C158.175781,74.2539062 156.154297,72.1738281 156.154297,68.7363281 C156.154297,65.2988281 158.195312,63.1113281 161.447266,63.1113281 C164.650391,63.1113281 166.691406,65.2109375 166.691406,68.4628906 L166.691406,69.4394531 L159.513672,69.4394531 L159.513672,69.6542969 C159.513672,70.9238281 160.363281,71.8027344 161.613281,71.8027344 C162.541016,71.8027344 163.263672,71.3632812 163.507812,70.640625 Z M172.433594,71.7734375 C173.488281,71.7734375 174.40625,71.1289062 174.40625,70.1816406 L174.40625,69.4492188 L172.472656,69.5761719 C171.564453,69.6445312 171.056641,70.0644531 171.056641,70.6894531 C171.056641,71.3632812 171.613281,71.7734375 172.433594,71.7734375 Z M171.203125,74.15625 C169.230469,74.15625 167.628906,72.8476562 167.628906,70.9238281 C167.628906,68.9316406 169.162109,67.8183594 171.916016,67.6523438 L174.40625,67.5058594 L174.40625,66.9003906 C174.40625,66.0507812 173.800781,65.5820312 172.892578,65.5820312 C171.955078,65.5820312 171.359375,66.0703125 171.261719,66.7246094 L168.146484,66.7246094 C168.244141,64.546875 170.099609,63.1113281 173.068359,63.1113281 C175.910156,63.1113281 177.794922,64.5664062 177.794922,66.7050781 L177.794922,74 L174.425781,74 L174.425781,72.4863281 L174.357422,72.4863281 C173.78125,73.5605469 172.482422,74.15625 171.203125,74.15625 Z M180.314453,60.9824219 L183.78125,60.9824219 L183.78125,63.3652344 L185.695312,63.3652344 L185.695312,65.9140625 L183.78125,65.9140625 L183.78125,70.3769531 C183.78125,71.109375 184.171875,71.4804688 185.001953,71.4804688 C185.275391,71.4804688 185.480469,71.4707031 185.685547,71.4316406 L185.685547,73.8925781 C185.353516,73.9609375 184.845703,74.0195312 184.171875,74.0195312 C181.408203,74.0195312 180.314453,73.1699219 180.314453,71.0800781 L180.314453,65.9140625 L178.869141,65.9140625 L178.869141,63.3652344 L180.314453,63.3652344 L180.314453,60.9824219 Z M59.0986328,124 L56.8330078,124 L56.8330078,114 L56.7646484,114 L52.6923828,123.882812 L50.9736328,123.882812 L46.9013672,114 L46.8330078,114 L46.8330078,124 L44.5576172,124 L44.5576172,109.908203 L47.4775391,109.908203 L51.7939453,120.542969 L51.8720703,120.542969 L56.1884766,109.908203 L59.0986328,109.908203 L59.0986328,124 Z M65.9248047,124.205078 C62.8876953,124.205078 60.9150391,122.183594 60.9150391,118.824219 C60.9150391,115.484375 62.9072266,113.433594 65.9248047,113.433594 C68.9423828,113.433594 70.9345703,115.474609 70.9345703,118.824219 C70.9345703,122.183594 68.9619141,124.205078 65.9248047,124.205078 Z M65.9248047,122.28125 C67.4677734,122.28125 68.4638672,121.03125 68.4638672,118.824219 C68.4638672,116.626953 67.4677734,115.367188 65.9248047,115.367188 C64.3916016,115.367188 63.3857422,116.626953 63.3857422,118.824219 C63.3857422,121.03125 64.3818359,122.28125 65.9248047,122.28125 Z M72.4970703,124 L72.4970703,113.648438 L74.8310547,113.648438 L74.8310547,115.425781 L74.8798828,115.425781 C75.4365234,114.195312 76.5400391,113.453125 78.1318359,113.453125 C80.4169922,113.453125 81.7158203,114.917969 81.7158203,117.310547 L81.7158203,124 L79.2841797,124 L79.2841797,117.798828 C79.2841797,116.333984 78.6005859,115.513672 77.2138672,115.513672 C75.8173828,115.513672 74.9287109,116.519531 74.9287109,118.003906 L74.9287109,124 L72.4970703,124 Z M83.7177734,124 L83.7177734,113.648438 L86.1494141,113.648438 L86.1494141,124 L83.7177734,124 Z M84.9287109,112.291016 C84.1767578,112.291016 83.5810547,111.705078 83.5810547,110.972656 C83.5810547,110.230469 84.1767578,109.644531 84.9287109,109.644531 C85.6904297,109.644531 86.2861328,110.230469 86.2861328,110.972656 C86.2861328,111.705078 85.6904297,112.291016 84.9287109,112.291016 Z M88.8642578,111.226562 L91.2958984,111.226562 L91.2958984,113.648438 L93.2490234,113.648438 L93.2490234,115.523438 L91.2958984,115.523438 L91.2958984,120.904297 C91.2958984,121.753906 91.6865234,122.144531 92.5458984,122.144531 C92.7705078,122.144531 93.0830078,122.125 93.2392578,122.095703 L93.2392578,123.951172 C92.9755859,124.009766 92.4970703,124.048828 91.9794922,124.048828 C89.7431641,124.048828 88.8642578,123.257812 88.8642578,121.246094 L88.8642578,115.523438 L87.3798828,115.523438 L87.3798828,113.648438 L88.8642578,113.648438 L88.8642578,111.226562 Z M99.4794922,124.205078 C96.4423828,124.205078 94.4697266,122.183594 94.4697266,118.824219 C94.4697266,115.484375 96.4619141,113.433594 99.4794922,113.433594 C102.49707,113.433594 104.489258,115.474609 104.489258,118.824219 C104.489258,122.183594 102.516602,124.205078 99.4794922,124.205078 Z M99.4794922,122.28125 C101.022461,122.28125 102.018555,121.03125 102.018555,118.824219 C102.018555,116.626953 101.022461,115.367188 99.4794922,115.367188 C97.9462891,115.367188 96.9404297,116.626953 96.9404297,118.824219 C96.9404297,121.03125 97.9365234,122.28125 99.4794922,122.28125 Z M106.051758,124 L106.051758,113.648438 L108.385742,113.648438 L108.385742,115.455078 L108.43457,115.455078 C108.786133,114.195312 109.694336,113.472656 110.915039,113.472656 C111.227539,113.472656 111.500977,113.53125 111.676758,113.570312 L111.676758,115.767578 C111.47168,115.689453 111.100586,115.630859 110.69043,115.630859 C109.313477,115.630859 108.483398,116.519531 108.483398,117.974609 L108.483398,124 L106.051758,124 Z M126.383789,124 L125.182617,120.357422 L119.99707,120.357422 L118.795898,124 L116.198242,124 L121.198242,109.908203 L124.040039,109.908203 L129.040039,124 L126.383789,124 Z M122.555664,112.398438 L120.583008,118.414062 L124.586914,118.414062 L122.624023,112.398438 L122.555664,112.398438 Z M139.459961,121.871094 L139.459961,124 L130.543945,124 L130.543945,109.908203 L133.063477,109.908203 L133.063477,121.871094 L139.459961,121.871094 Z M147.223633,124 L144.713867,124 L144.713867,112.037109 L140.495117,112.037109 L140.495117,109.908203 L151.432617,109.908203 L151.432617,112.037109 L147.223633,112.037109 L147.223633,124 Z M154.655273,126.978516 L152.790039,126.978516 L153.600586,121.675781 L155.973633,121.675781 L154.655273,126.978516 Z M162.536133,109.908203 L167.682617,109.908203 C171.891602,109.908203 174.381836,112.457031 174.381836,116.919922 C174.381836,121.382812 171.901367,124 167.682617,124 L162.536133,124 L162.536133,109.908203 Z M165.055664,112.037109 L165.055664,121.871094 L167.418945,121.871094 C170.250977,121.871094 171.813477,120.142578 171.813477,116.929688 C171.813477,113.775391 170.231445,112.037109 167.418945,112.037109 L165.055664,112.037109 Z M178.805664,124 L176.374023,124 L176.374023,109.908203 L178.561523,109.908203 L185.553711,119.78125 L185.641602,119.78125 L185.641602,109.908203 L188.063477,109.908203 L188.063477,124 L185.895508,124 L178.893555,114.117188 L178.805664,114.117188 L178.805664,124 Z M199.762695,124 L198.561523,120.357422 L193.375977,120.357422 L192.174805,124 L189.577148,124 L194.577148,109.908203 L197.418945,109.908203 L202.418945,124 L199.762695,124 Z M195.93457,112.398438 L193.961914,118.414062 L197.96582,118.414062 L196.00293,112.398438 L195.93457,112.398438 Z M52.6630859,140.318359 C51.2958984,140.318359 50.3095703,141.363281 50.2119141,142.808594 L55.0458984,142.808594 C54.9970703,141.34375 54.0595703,140.318359 52.6630859,140.318359 Z M55.0556641,145.904297 L57.3310547,145.904297 C57.0185547,147.857422 55.2021484,149.205078 52.7509766,149.205078 C49.6455078,149.205078 47.7705078,147.164062 47.7705078,143.863281 C47.7705078,140.591797 49.6650391,138.433594 52.6533203,138.433594 C55.5927734,138.433594 57.4287109,140.474609 57.4287109,143.619141 L57.4287109,144.410156 L50.1923828,144.410156 L50.1923828,144.556641 C50.1923828,146.216797 51.2080078,147.330078 52.7998047,147.330078 C53.9326172,147.330078 54.7919922,146.763672 55.0556641,145.904297 Z M68.1025391,138.648438 L64.4599609,149 L61.7841797,149 L58.1123047,138.648438 L60.7099609,138.648438 L63.1123047,146.744141 L63.1611328,146.744141 L65.5634766,138.648438 L68.1025391,138.648438 Z M73.6787109,140.318359 C72.3115234,140.318359 71.3251953,141.363281 71.2275391,142.808594 L76.0615234,142.808594 C76.0126953,141.34375 75.0751953,140.318359 73.6787109,140.318359 Z M76.0712891,145.904297 L78.3466797,145.904297 C78.0341797,147.857422 76.2177734,149.205078 73.7666016,149.205078 C70.6611328,149.205078 68.7861328,147.164062 68.7861328,143.863281 C68.7861328,140.591797 70.6806641,138.433594 73.6689453,138.433594 C76.6083984,138.433594 78.4443359,140.474609 78.4443359,143.619141 L78.4443359,144.410156 L71.2080078,144.410156 L71.2080078,144.556641 C71.2080078,146.216797 72.2236328,147.330078 73.8154297,147.330078 C74.9482422,147.330078 75.8076172,146.763672 76.0712891,145.904297 Z M80.0068359,149 L80.0068359,138.648438 L82.3408203,138.648438 L82.3408203,140.455078 L82.3896484,140.455078 C82.7412109,139.195312 83.6494141,138.472656 84.8701172,138.472656 C85.1826172,138.472656 85.4560547,138.53125 85.6318359,138.570312 L85.6318359,140.767578 C85.4267578,140.689453 85.0556641,140.630859 84.6455078,140.630859 C83.2685547,140.630859 82.4384766,141.519531 82.4384766,142.974609 L82.4384766,149 L80.0068359,149 Z M88.0341797,152.847656 C87.8974609,152.847656 87.2041016,152.837891 87.0771484,152.808594 L87.0771484,150.884766 C87.2041016,150.914062 87.6337891,150.923828 87.7802734,150.923828 C88.7861328,150.923828 89.3037109,150.542969 89.5771484,149.585938 C89.5771484,149.556641 89.7236328,149.039062 89.7138672,149.009766 L86.0322266,138.648438 L88.6884766,138.648438 L91.1298828,146.929688 L91.1689453,146.929688 L93.6103516,138.648438 L96.1689453,138.648438 L92.4287109,149.410156 C91.5400391,151.978516 90.3974609,152.847656 88.0341797,152.847656 Z M104.606445,142.720703 L104.606445,140.826172 L106.305664,140.826172 C107.750977,140.826172 108.737305,139.9375 108.737305,138.677734 C108.737305,137.447266 107.87793,136.626953 106.295898,136.626953 C104.84082,136.626953 103.864258,137.476562 103.766602,138.794922 L101.422852,138.794922 C101.55957,136.265625 103.50293,134.625 106.413086,134.625 C109.186523,134.625 111.15918,136.138672 111.15918,138.335938 C111.15918,140.083984 109.987305,141.34375 108.249023,141.646484 L108.249023,141.705078 C110.358398,141.861328 111.725586,143.150391 111.725586,145.113281 C111.725586,147.603516 109.459961,149.283203 106.383789,149.283203 C103.288086,149.283203 101.276367,147.583984 101.149414,145.074219 L103.551758,145.074219 C103.668945,146.363281 104.723633,147.222656 106.40332,147.222656 C108.024414,147.222656 109.166992,146.314453 109.166992,145.015625 C109.166992,143.589844 108.092773,142.720703 106.344727,142.720703 L104.606445,142.720703 Z M117.643555,149 L117.643555,138.648438 L119.977539,138.648438 L119.977539,140.445312 L120.026367,140.445312 C120.475586,139.244141 121.569336,138.453125 122.975586,138.453125 C124.44043,138.453125 125.485352,139.205078 125.866211,140.533203 L125.924805,140.533203 C126.422852,139.253906 127.65332,138.453125 129.147461,138.453125 C131.188477,138.453125 132.526367,139.830078 132.526367,141.900391 L132.526367,149 L130.094727,149 L130.094727,142.496094 C130.094727,141.226562 129.430664,140.503906 128.239258,140.503906 C127.067383,140.503906 126.266602,141.363281 126.266602,142.603516 L126.266602,149 L123.90332,149 L123.90332,142.369141 C123.90332,141.216797 123.200195,140.503906 122.067383,140.503906 C120.895508,140.503906 120.075195,141.412109 120.075195,142.662109 L120.075195,149 L117.643555,149 Z M139.049805,149.205078 C136.012695,149.205078 134.040039,147.183594 134.040039,143.824219 C134.040039,140.484375 136.032227,138.433594 139.049805,138.433594 C142.067383,138.433594 144.05957,140.474609 144.05957,143.824219 C144.05957,147.183594 142.086914,149.205078 139.049805,149.205078 Z M139.049805,147.28125 C140.592773,147.28125 141.588867,146.03125 141.588867,143.824219 C141.588867,141.626953 140.592773,140.367188 139.049805,140.367188 C137.516602,140.367188 136.510742,141.626953 136.510742,143.824219 C136.510742,146.03125 137.506836,147.28125 139.049805,147.28125 Z M153.668945,145.289062 L153.620117,145.289062 L151.47168,149 L148.883789,149 L152.223633,143.833984 L148.913086,138.648438 L151.647461,138.648438 L153.737305,142.28125 L153.786133,142.28125 L155.84668,138.648438 L158.512695,138.648438 L155.182617,143.765625 L158.473633,149 L155.817383,149 L153.668945,145.289062 Z M167.360352,149 L167.360352,137.310547 L167.301758,137.310547 L163.65918,139.869141 L163.65918,137.496094 L167.34082,134.908203 L169.831055,134.908203 L169.831055,149 L167.360352,149 Z M178.249023,152.847656 C178.112305,152.847656 177.418945,152.837891 177.291992,152.808594 L177.291992,150.884766 C177.418945,150.914062 177.848633,150.923828 177.995117,150.923828 C179.000977,150.923828 179.518555,150.542969 179.791992,149.585938 C179.791992,149.556641 179.938477,149.039062 179.928711,149.009766 L176.24707,138.648438 L178.90332,138.648438 L181.344727,146.929688 L181.383789,146.929688 L183.825195,138.648438 L186.383789,138.648438 L182.643555,149.410156 C181.754883,151.978516 180.612305,152.847656 178.249023,152.847656 Z M187.536133,149 L187.536133,138.648438 L189.870117,138.648438 L189.870117,140.455078 L189.918945,140.455078 C190.270508,139.195312 191.178711,138.472656 192.399414,138.472656 C192.711914,138.472656 192.985352,138.53125 193.161133,138.570312 L193.161133,140.767578 C192.956055,140.689453 192.584961,140.630859 192.174805,140.630859 C190.797852,140.630859 189.967773,141.519531 189.967773,142.974609 L189.967773,149 L187.536133,149 Z M196.15918,151.978516 L194.293945,151.978516 L195.104492,146.675781 L197.477539,146.675781 L196.15918,151.978516 Z M55.8369141,161.226562 L58.2685547,161.226562 L58.2685547,163.648438 L60.2216797,163.648438 L60.2216797,165.523438 L58.2685547,165.523438 L58.2685547,170.904297 C58.2685547,171.753906 58.6591797,172.144531 59.5185547,172.144531 C59.7431641,172.144531 60.0556641,172.125 60.2119141,172.095703 L60.2119141,173.951172 C59.9482422,174.009766 59.4697266,174.048828 58.9521484,174.048828 C56.7158203,174.048828 55.8369141,173.257812 55.8369141,171.246094 L55.8369141,165.523438 L54.3525391,165.523438 L54.3525391,163.648438 L55.8369141,163.648438 L55.8369141,161.226562 Z M61.9404297,174 L61.9404297,159.908203 L64.3427734,159.908203 L64.3427734,165.425781 L64.3916016,165.425781 C64.9482422,164.166016 66.0908203,163.453125 67.6630859,163.453125 C69.9482422,163.453125 71.2861328,164.957031 71.2861328,167.330078 L71.2861328,174 L68.8544922,174 L68.8544922,167.828125 C68.8544922,166.382812 68.1318359,165.513672 66.7255859,165.513672 C65.2607422,165.513672 64.3720703,166.529297 64.3720703,168.052734 L64.3720703,174 L61.9404297,174 Z M77.6923828,165.318359 C76.3251953,165.318359 75.3388672,166.363281 75.2412109,167.808594 L80.0751953,167.808594 C80.0263672,166.34375 79.0888672,165.318359 77.6923828,165.318359 Z M80.0849609,170.904297 L82.3603516,170.904297 C82.0478516,172.857422 80.2314453,174.205078 77.7802734,174.205078 C74.6748047,174.205078 72.7998047,172.164062 72.7998047,168.863281 C72.7998047,165.591797 74.6943359,163.433594 77.6826172,163.433594 C80.6220703,163.433594 82.4580078,165.474609 82.4580078,168.619141 L82.4580078,169.410156 L75.2216797,169.410156 L75.2216797,169.556641 C75.2216797,171.216797 76.2373047,172.330078 77.8291016,172.330078 C78.9619141,172.330078 79.8212891,171.763672 80.0849609,170.904297 Z M84.0205078,174 L84.0205078,163.648438 L86.3544922,163.648438 L86.3544922,165.425781 L86.4033203,165.425781 C86.9599609,164.195312 88.0634766,163.453125 89.6552734,163.453125 C91.9404297,163.453125 93.2392578,164.917969 93.2392578,167.310547 L93.2392578,174 L90.8076172,174 L90.8076172,167.798828 C90.8076172,166.333984 90.1240234,165.513672 88.7373047,165.513672 C87.3408203,165.513672 86.4521484,166.519531 86.4521484,168.003906 L86.4521484,174 L84.0205078,174 Z M103.649414,165.318359 C102.282227,165.318359 101.295898,166.363281 101.198242,167.808594 L106.032227,167.808594 C105.983398,166.34375 105.045898,165.318359 103.649414,165.318359 Z M106.041992,170.904297 L108.317383,170.904297 C108.004883,172.857422 106.188477,174.205078 103.737305,174.205078 C100.631836,174.205078 98.7568359,172.164062 98.7568359,168.863281 C98.7568359,165.591797 100.651367,163.433594 103.639648,163.433594 C106.579102,163.433594 108.415039,165.474609 108.415039,168.619141 L108.415039,169.410156 L101.178711,169.410156 L101.178711,169.556641 C101.178711,171.216797 102.194336,172.330078 103.786133,172.330078 C104.918945,172.330078 105.77832,171.763672 106.041992,170.904297 Z M119.088867,163.648438 L115.446289,174 L112.770508,174 L109.098633,163.648438 L111.696289,163.648438 L114.098633,171.744141 L114.147461,171.744141 L116.549805,163.648438 L119.088867,163.648438 Z M124.665039,165.318359 C123.297852,165.318359 122.311523,166.363281 122.213867,167.808594 L127.047852,167.808594 C126.999023,166.34375 126.061523,165.318359 124.665039,165.318359 Z M127.057617,170.904297 L129.333008,170.904297 C129.020508,172.857422 127.204102,174.205078 124.75293,174.205078 C121.647461,174.205078 119.772461,172.164062 119.772461,168.863281 C119.772461,165.591797 121.666992,163.433594 124.655273,163.433594 C127.594727,163.433594 129.430664,165.474609 129.430664,168.619141 L129.430664,169.410156 L122.194336,169.410156 L122.194336,169.556641 C122.194336,171.216797 123.209961,172.330078 124.801758,172.330078 C125.93457,172.330078 126.793945,171.763672 127.057617,170.904297 Z M130.993164,174 L130.993164,163.648438 L133.327148,163.648438 L133.327148,165.455078 L133.375977,165.455078 C133.727539,164.195312 134.635742,163.472656 135.856445,163.472656 C136.168945,163.472656 136.442383,163.53125 136.618164,163.570312 L136.618164,165.767578 C136.413086,165.689453 136.041992,165.630859 135.631836,165.630859 C134.254883,165.630859 133.424805,166.519531 133.424805,167.974609 L133.424805,174 L130.993164,174 Z M139.020508,177.847656 C138.883789,177.847656 138.19043,177.837891 138.063477,177.808594 L138.063477,175.884766 C138.19043,175.914062 138.620117,175.923828 138.766602,175.923828 C139.772461,175.923828 140.290039,175.542969 140.563477,174.585938 C140.563477,174.556641 140.709961,174.039062 140.700195,174.009766 L137.018555,163.648438 L139.674805,163.648438 L142.116211,171.929688 L142.155273,171.929688 L144.59668,163.648438 L147.155273,163.648438 L143.415039,174.410156 C142.526367,176.978516 141.383789,177.847656 139.020508,177.847656 Z M157.829102,174.292969 C155.77832,174.292969 154.108398,173.296875 153.161133,171.490234 C152.49707,170.337891 152.155273,168.863281 152.155273,167.115234 C152.155273,162.417969 154.333008,159.615234 157.907227,159.615234 C160.485352,159.615234 162.487305,161.148438 162.907227,163.423828 L160.407227,163.423828 C160.084961,162.359375 159.098633,161.666016 157.887695,161.666016 C155.77832,161.666016 154.538086,163.619141 154.557617,167.017578 L154.606445,167.017578 C155.202148,165.640625 156.647461,164.722656 158.424805,164.722656 C161.100586,164.722656 163.092773,166.695312 163.092773,169.371094 C163.092773,172.232422 160.885742,174.292969 157.829102,174.292969 Z M157.80957,172.232422 C159.37207,172.232422 160.612305,171.001953 160.612305,169.449219 C160.612305,167.857422 159.44043,166.695312 157.829102,166.695312 C156.208008,166.695312 155.006836,167.857422 155.006836,169.419922 C155.006836,170.992188 156.237305,172.232422 157.80957,172.232422 Z M168.854492,174 L168.854492,163.648438 L171.188477,163.648438 L171.188477,165.445312 L171.237305,165.445312 C171.686523,164.244141 172.780273,163.453125 174.186523,163.453125 C175.651367,163.453125 176.696289,164.205078 177.077148,165.533203 L177.135742,165.533203 C177.633789,164.253906 178.864258,163.453125 180.358398,163.453125 C182.399414,163.453125 183.737305,164.830078 183.737305,166.900391 L183.737305,174 L181.305664,174 L181.305664,167.496094 C181.305664,166.226562 180.641602,165.503906 179.450195,165.503906 C178.27832,165.503906 177.477539,166.363281 177.477539,167.603516 L177.477539,174 L175.114258,174 L175.114258,167.369141 C175.114258,166.216797 174.411133,165.503906 173.27832,165.503906 C172.106445,165.503906 171.286133,166.412109 171.286133,167.662109 L171.286133,174 L168.854492,174 Z M190.260742,174.205078 C187.223633,174.205078 185.250977,172.183594 185.250977,168.824219 C185.250977,165.484375 187.243164,163.433594 190.260742,163.433594 C193.27832,163.433594 195.270508,165.474609 195.270508,168.824219 C195.270508,172.183594 193.297852,174.205078 190.260742,174.205078 Z M190.260742,172.28125 C191.803711,172.28125 192.799805,171.03125 192.799805,168.824219 C192.799805,166.626953 191.803711,165.367188 190.260742,165.367188 C188.727539,165.367188 187.72168,166.626953 187.72168,168.824219 C187.72168,171.03125 188.717773,172.28125 190.260742,172.28125 Z" id="path-1"></path>
        <path d="M60.7734375,34.9082031 L66.4960938,34.9082031 C70.7539062,34.9082031 73.2539062,37.3789062 73.2539062,41.8710938 C73.2539062,46.3730469 70.7441406,49 66.4960938,49 L60.7734375,49 L60.7734375,34.9082031 Z M64.3574219,37.7988281 L64.3574219,46.109375 L66.0273438,46.109375 C68.3613281,46.109375 69.6113281,44.6933594 69.6113281,41.8808594 C69.6113281,39.234375 68.2929688,37.7988281 66.0273438,37.7988281 L64.3574219,37.7988281 Z M79.875,49.2539062 C76.5253906,49.2539062 74.4355469,47.2226562 74.4355469,43.6777344 C74.4355469,40.2011719 76.5742188,38.1113281 79.875,38.1113281 C83.1953125,38.1113281 85.3144531,40.1914062 85.3144531,43.6777344 C85.3144531,47.2324219 83.2246094,49.2539062 79.875,49.2539062 Z M79.875,46.7148438 C81.0566406,46.7148438 81.8085938,45.6308594 81.8085938,43.6875 C81.8085938,41.7734375 81.0566406,40.6503906 79.875,40.6503906 C78.703125,40.6503906 77.9511719,41.7734375 77.9511719,43.6875 C77.9511719,45.6308594 78.6835938,46.7148438 79.875,46.7148438 Z M94.1621094,49 L90.7636719,49 L90.7636719,34.9082031 L93.625,34.9082031 L99.6015625,43.1015625 L99.6796875,43.1015625 L99.6796875,34.9082031 L103.078125,34.9082031 L103.078125,49 L100.246094,49 L94.2402344,40.7285156 L94.1621094,40.7285156 L94.1621094,49 Z M111.779297,34.6640625 C116.046875,34.6640625 118.732422,37.4667969 118.732422,41.9589844 C118.732422,46.4511719 116.046875,49.2441406 111.779297,49.2441406 C107.501953,49.2441406 104.816406,46.4511719 104.816406,41.9589844 C104.816406,37.4667969 107.511719,34.6640625 111.779297,34.6640625 Z M111.779297,37.5742188 C109.777344,37.5742188 108.46875,39.2734375 108.46875,41.9589844 C108.46875,44.6347656 109.767578,46.3339844 111.779297,46.3339844 C113.78125,46.3339844 115.089844,44.6347656 115.089844,41.9589844 C115.089844,39.2734375 113.78125,37.5742188 111.779297,37.5742188 Z M127.326172,49 L123.751953,49 L123.751953,37.7988281 L119.865234,37.7988281 L119.865234,34.9082031 L131.212891,34.9082031 L131.212891,37.7988281 L127.326172,37.7988281 L127.326172,49 Z M143.449219,49 L139.875,49 L139.875,37.7988281 L135.988281,37.7988281 L135.988281,34.9082031 L147.335938,34.9082031 L147.335938,37.7988281 L143.449219,37.7988281 L143.449219,49 Z M148.615234,49 L148.615234,38.3652344 L151.984375,38.3652344 L151.984375,40.3769531 L152.052734,40.3769531 C152.443359,38.9414062 153.302734,38.2089844 154.552734,38.2089844 C154.904297,38.2089844 155.197266,38.2578125 155.431641,38.3457031 L155.431641,41.2949219 C155.138672,41.1777344 154.738281,41.0996094 154.328125,41.0996094 C152.873047,41.0996094 152.082031,41.9199219 152.082031,43.4042969 L152.082031,49 L148.615234,49 Z M161.505859,40.5722656 C160.441406,40.5722656 159.650391,41.3632812 159.5625,42.4667969 L163.429688,42.4667969 C163.371094,41.3339844 162.599609,40.5722656 161.505859,40.5722656 Z M163.507812,45.640625 L166.632812,45.640625 C166.300781,47.8378906 164.347656,49.2539062 161.564453,49.2539062 C158.175781,49.2539062 156.154297,47.1738281 156.154297,43.7363281 C156.154297,40.2988281 158.195312,38.1113281 161.447266,38.1113281 C164.650391,38.1113281 166.691406,40.2109375 166.691406,43.4628906 L166.691406,44.4394531 L159.513672,44.4394531 L159.513672,44.6542969 C159.513672,45.9238281 160.363281,46.8027344 161.613281,46.8027344 C162.541016,46.8027344 163.263672,46.3632812 163.507812,45.640625 Z M172.433594,46.7734375 C173.488281,46.7734375 174.40625,46.1289062 174.40625,45.1816406 L174.40625,44.4492188 L172.472656,44.5761719 C171.564453,44.6445312 171.056641,45.0644531 171.056641,45.6894531 C171.056641,46.3632812 171.613281,46.7734375 172.433594,46.7734375 Z M171.203125,49.15625 C169.230469,49.15625 167.628906,47.8476562 167.628906,45.9238281 C167.628906,43.9316406 169.162109,42.8183594 171.916016,42.6523438 L174.40625,42.5058594 L174.40625,41.9003906 C174.40625,41.0507812 173.800781,40.5820312 172.892578,40.5820312 C171.955078,40.5820312 171.359375,41.0703125 171.261719,41.7246094 L168.146484,41.7246094 C168.244141,39.546875 170.099609,38.1113281 173.068359,38.1113281 C175.910156,38.1113281 177.794922,39.5664062 177.794922,41.7050781 L177.794922,49 L174.425781,49 L174.425781,47.4863281 L174.357422,47.4863281 C173.78125,48.5605469 172.482422,49.15625 171.203125,49.15625 Z M180.314453,35.9824219 L183.78125,35.9824219 L183.78125,38.3652344 L185.695312,38.3652344 L185.695312,40.9140625 L183.78125,40.9140625 L183.78125,45.3769531 C183.78125,46.109375 184.171875,46.4804688 185.001953,46.4804688 C185.275391,46.4804688 185.480469,46.4707031 185.685547,46.4316406 L185.685547,48.8925781 C185.353516,48.9609375 184.845703,49.0195312 184.171875,49.0195312 C181.408203,49.0195312 180.314453,48.1699219 180.314453,46.0800781 L180.314453,40.9140625 L178.869141,40.9140625 L178.869141,38.3652344 L180.314453,38.3652344 L180.314453,35.9824219 Z M59.0986328,99 L56.8330078,99 L56.8330078,89 L56.7646484,89 L52.6923828,98.8828125 L50.9736328,98.8828125 L46.9013672,89 L46.8330078,89 L46.8330078,99 L44.5576172,99 L44.5576172,84.9082031 L47.4775391,84.9082031 L51.7939453,95.5429688 L51.8720703,95.5429688 L56.1884766,84.9082031 L59.0986328,84.9082031 L59.0986328,99 Z M65.9248047,99.2050781 C62.8876953,99.2050781 60.9150391,97.1835938 60.9150391,93.8242188 C60.9150391,90.484375 62.9072266,88.4335938 65.9248047,88.4335938 C68.9423828,88.4335938 70.9345703,90.4746094 70.9345703,93.8242188 C70.9345703,97.1835938 68.9619141,99.2050781 65.9248047,99.2050781 Z M65.9248047,97.28125 C67.4677734,97.28125 68.4638672,96.03125 68.4638672,93.8242188 C68.4638672,91.6269531 67.4677734,90.3671875 65.9248047,90.3671875 C64.3916016,90.3671875 63.3857422,91.6269531 63.3857422,93.8242188 C63.3857422,96.03125 64.3818359,97.28125 65.9248047,97.28125 Z M72.4970703,99 L72.4970703,88.6484375 L74.8310547,88.6484375 L74.8310547,90.4257812 L74.8798828,90.4257812 C75.4365234,89.1953125 76.5400391,88.453125 78.1318359,88.453125 C80.4169922,88.453125 81.7158203,89.9179688 81.7158203,92.3105469 L81.7158203,99 L79.2841797,99 L79.2841797,92.7988281 C79.2841797,91.3339844 78.6005859,90.5136719 77.2138672,90.5136719 C75.8173828,90.5136719 74.9287109,91.5195312 74.9287109,93.0039062 L74.9287109,99 L72.4970703,99 Z M83.7177734,99 L83.7177734,88.6484375 L86.1494141,88.6484375 L86.1494141,99 L83.7177734,99 Z M84.9287109,87.2910156 C84.1767578,87.2910156 83.5810547,86.7050781 83.5810547,85.9726562 C83.5810547,85.2304688 84.1767578,84.6445312 84.9287109,84.6445312 C85.6904297,84.6445312 86.2861328,85.2304688 86.2861328,85.9726562 C86.2861328,86.7050781 85.6904297,87.2910156 84.9287109,87.2910156 Z M88.8642578,86.2265625 L91.2958984,86.2265625 L91.2958984,88.6484375 L93.2490234,88.6484375 L93.2490234,90.5234375 L91.2958984,90.5234375 L91.2958984,95.9042969 C91.2958984,96.7539062 91.6865234,97.1445312 92.5458984,97.1445312 C92.7705078,97.1445312 93.0830078,97.125 93.2392578,97.0957031 L93.2392578,98.9511719 C92.9755859,99.0097656 92.4970703,99.0488281 91.9794922,99.0488281 C89.7431641,99.0488281 88.8642578,98.2578125 88.8642578,96.2460938 L88.8642578,90.5234375 L87.3798828,90.5234375 L87.3798828,88.6484375 L88.8642578,88.6484375 L88.8642578,86.2265625 Z M99.4794922,99.2050781 C96.4423828,99.2050781 94.4697266,97.1835938 94.4697266,93.8242188 C94.4697266,90.484375 96.4619141,88.4335938 99.4794922,88.4335938 C102.49707,88.4335938 104.489258,90.4746094 104.489258,93.8242188 C104.489258,97.1835938 102.516602,99.2050781 99.4794922,99.2050781 Z M99.4794922,97.28125 C101.022461,97.28125 102.018555,96.03125 102.018555,93.8242188 C102.018555,91.6269531 101.022461,90.3671875 99.4794922,90.3671875 C97.9462891,90.3671875 96.9404297,91.6269531 96.9404297,93.8242188 C96.9404297,96.03125 97.9365234,97.28125 99.4794922,97.28125 Z M106.051758,99 L106.051758,88.6484375 L108.385742,88.6484375 L108.385742,90.4550781 L108.43457,90.4550781 C108.786133,89.1953125 109.694336,88.4726562 110.915039,88.4726562 C111.227539,88.4726562 111.500977,88.53125 111.676758,88.5703125 L111.676758,90.7675781 C111.47168,90.6894531 111.100586,90.6308594 110.69043,90.6308594 C109.313477,90.6308594 108.483398,91.5195312 108.483398,92.9746094 L108.483398,99 L106.051758,99 Z M126.383789,99 L125.182617,95.3574219 L119.99707,95.3574219 L118.795898,99 L116.198242,99 L121.198242,84.9082031 L124.040039,84.9082031 L129.040039,99 L126.383789,99 Z M122.555664,87.3984375 L120.583008,93.4140625 L124.586914,93.4140625 L122.624023,87.3984375 L122.555664,87.3984375 Z M139.459961,96.8710938 L139.459961,99 L130.543945,99 L130.543945,84.9082031 L133.063477,84.9082031 L133.063477,96.8710938 L139.459961,96.8710938 Z M147.223633,99 L144.713867,99 L144.713867,87.0371094 L140.495117,87.0371094 L140.495117,84.9082031 L151.432617,84.9082031 L151.432617,87.0371094 L147.223633,87.0371094 L147.223633,99 Z M154.655273,101.978516 L152.790039,101.978516 L153.600586,96.6757812 L155.973633,96.6757812 L154.655273,101.978516 Z M162.536133,84.9082031 L167.682617,84.9082031 C171.891602,84.9082031 174.381836,87.4570312 174.381836,91.9199219 C174.381836,96.3828125 171.901367,99 167.682617,99 L162.536133,99 L162.536133,84.9082031 Z M165.055664,87.0371094 L165.055664,96.8710938 L167.418945,96.8710938 C170.250977,96.8710938 171.813477,95.1425781 171.813477,91.9296875 C171.813477,88.7753906 170.231445,87.0371094 167.418945,87.0371094 L165.055664,87.0371094 Z M178.805664,99 L176.374023,99 L176.374023,84.9082031 L178.561523,84.9082031 L185.553711,94.78125 L185.641602,94.78125 L185.641602,84.9082031 L188.063477,84.9082031 L188.063477,99 L185.895508,99 L178.893555,89.1171875 L178.805664,89.1171875 L178.805664,99 Z M199.762695,99 L198.561523,95.3574219 L193.375977,95.3574219 L192.174805,99 L189.577148,99 L194.577148,84.9082031 L197.418945,84.9082031 L202.418945,99 L199.762695,99 Z M195.93457,87.3984375 L193.961914,93.4140625 L197.96582,93.4140625 L196.00293,87.3984375 L195.93457,87.3984375 Z M69.1083984,115.318359 C67.7412109,115.318359 66.7548828,116.363281 66.6572266,117.808594 L71.4912109,117.808594 C71.4423828,116.34375 70.5048828,115.318359 69.1083984,115.318359 Z M71.5009766,120.904297 L73.7763672,120.904297 C73.4638672,122.857422 71.6474609,124.205078 69.1962891,124.205078 C66.0908203,124.205078 64.2158203,122.164062 64.2158203,118.863281 C64.2158203,115.591797 66.1103516,113.433594 69.0986328,113.433594 C72.0380859,113.433594 73.8740234,115.474609 73.8740234,118.619141 L73.8740234,119.410156 L66.6376953,119.410156 L66.6376953,119.556641 C66.6376953,121.216797 67.6533203,122.330078 69.2451172,122.330078 C70.3779297,122.330078 71.2373047,121.763672 71.5009766,120.904297 Z M84.5478516,113.648438 L80.9052734,124 L78.2294922,124 L74.5576172,113.648438 L77.1552734,113.648438 L79.5576172,121.744141 L79.6064453,121.744141 L82.0087891,113.648438 L84.5478516,113.648438 Z M90.1240234,115.318359 C88.7568359,115.318359 87.7705078,116.363281 87.6728516,117.808594 L92.5068359,117.808594 C92.4580078,116.34375 91.5205078,115.318359 90.1240234,115.318359 Z M92.5166016,120.904297 L94.7919922,120.904297 C94.4794922,122.857422 92.6630859,124.205078 90.2119141,124.205078 C87.1064453,124.205078 85.2314453,122.164062 85.2314453,118.863281 C85.2314453,115.591797 87.1259766,113.433594 90.1142578,113.433594 C93.0537109,113.433594 94.8896484,115.474609 94.8896484,118.619141 L94.8896484,119.410156 L87.6533203,119.410156 L87.6533203,119.556641 C87.6533203,121.216797 88.6689453,122.330078 90.2607422,122.330078 C91.3935547,122.330078 92.2529297,121.763672 92.5166016,120.904297 Z M96.4521484,124 L96.4521484,113.648438 L98.7861328,113.648438 L98.7861328,115.455078 L98.8349609,115.455078 C99.1865234,114.195312 100.094727,113.472656 101.31543,113.472656 C101.62793,113.472656 101.901367,113.53125 102.077148,113.570312 L102.077148,115.767578 C101.87207,115.689453 101.500977,115.630859 101.09082,115.630859 C99.7138672,115.630859 98.8837891,116.519531 98.8837891,117.974609 L98.8837891,124 L96.4521484,124 Z M104.479492,127.847656 C104.342773,127.847656 103.649414,127.837891 103.522461,127.808594 L103.522461,125.884766 C103.649414,125.914062 104.079102,125.923828 104.225586,125.923828 C105.231445,125.923828 105.749023,125.542969 106.022461,124.585938 C106.022461,124.556641 106.168945,124.039062 106.15918,124.009766 L102.477539,113.648438 L105.133789,113.648438 L107.575195,121.929688 L107.614258,121.929688 L110.055664,113.648438 L112.614258,113.648438 L108.874023,124.410156 C107.985352,126.978516 106.842773,127.847656 104.479492,127.847656 Z M121.051758,117.720703 L121.051758,115.826172 L122.750977,115.826172 C124.196289,115.826172 125.182617,114.9375 125.182617,113.677734 C125.182617,112.447266 124.323242,111.626953 122.741211,111.626953 C121.286133,111.626953 120.30957,112.476562 120.211914,113.794922 L117.868164,113.794922 C118.004883,111.265625 119.948242,109.625 122.858398,109.625 C125.631836,109.625 127.604492,111.138672 127.604492,113.335938 C127.604492,115.083984 126.432617,116.34375 124.694336,116.646484 L124.694336,116.705078 C126.803711,116.861328 128.170898,118.150391 128.170898,120.113281 C128.170898,122.603516 125.905273,124.283203 122.829102,124.283203 C119.733398,124.283203 117.72168,122.583984 117.594727,120.074219 L119.99707,120.074219 C120.114258,121.363281 121.168945,122.222656 122.848633,122.222656 C124.469727,122.222656 125.612305,121.314453 125.612305,120.015625 C125.612305,118.589844 124.538086,117.720703 122.790039,117.720703 L121.051758,117.720703 Z M136.666992,119.361328 L130.250977,119.361328 L130.250977,117.193359 L136.666992,117.193359 L136.666992,119.361328 Z M144.342773,124.292969 C142.291992,124.292969 140.62207,123.296875 139.674805,121.490234 C139.010742,120.337891 138.668945,118.863281 138.668945,117.115234 C138.668945,112.417969 140.84668,109.615234 144.420898,109.615234 C146.999023,109.615234 149.000977,111.148438 149.420898,113.423828 L146.920898,113.423828 C146.598633,112.359375 145.612305,111.666016 144.401367,111.666016 C142.291992,111.666016 141.051758,113.619141 141.071289,117.017578 L141.120117,117.017578 C141.71582,115.640625 143.161133,114.722656 144.938477,114.722656 C147.614258,114.722656 149.606445,116.695312 149.606445,119.371094 C149.606445,122.232422 147.399414,124.292969 144.342773,124.292969 Z M144.323242,122.232422 C145.885742,122.232422 147.125977,121.001953 147.125977,119.449219 C147.125977,117.857422 145.954102,116.695312 144.342773,116.695312 C142.72168,116.695312 141.520508,117.857422 141.520508,119.419922 C141.520508,120.992188 142.750977,122.232422 144.323242,122.232422 Z M155.368164,124 L155.368164,113.648438 L157.702148,113.648438 L157.702148,115.445312 L157.750977,115.445312 C158.200195,114.244141 159.293945,113.453125 160.700195,113.453125 C162.165039,113.453125 163.209961,114.205078 163.59082,115.533203 L163.649414,115.533203 C164.147461,114.253906 165.37793,113.453125 166.87207,113.453125 C168.913086,113.453125 170.250977,114.830078 170.250977,116.900391 L170.250977,124 L167.819336,124 L167.819336,117.496094 C167.819336,116.226562 167.155273,115.503906 165.963867,115.503906 C164.791992,115.503906 163.991211,116.363281 163.991211,117.603516 L163.991211,124 L161.62793,124 L161.62793,117.369141 C161.62793,116.216797 160.924805,115.503906 159.791992,115.503906 C158.620117,115.503906 157.799805,116.412109 157.799805,117.662109 L157.799805,124 L155.368164,124 Z M176.774414,124.205078 C173.737305,124.205078 171.764648,122.183594 171.764648,118.824219 C171.764648,115.484375 173.756836,113.433594 176.774414,113.433594 C179.791992,113.433594 181.78418,115.474609 181.78418,118.824219 C181.78418,122.183594 179.811523,124.205078 176.774414,124.205078 Z M176.774414,122.28125 C178.317383,122.28125 179.313477,121.03125 179.313477,118.824219 C179.313477,116.626953 178.317383,115.367188 176.774414,115.367188 C175.241211,115.367188 174.235352,116.626953 174.235352,118.824219 C174.235352,121.03125 175.231445,122.28125 176.774414,122.28125 Z M71.59375,174 L69.328125,174 L69.328125,164 L69.2597656,164 L65.1875,173.882812 L63.46875,173.882812 L59.3964844,164 L59.328125,164 L59.328125,174 L57.0527344,174 L57.0527344,159.908203 L59.9726562,159.908203 L64.2890625,170.542969 L64.3671875,170.542969 L68.6835938,159.908203 L71.59375,159.908203 L71.59375,174 Z M78.4199219,174.205078 C75.3828125,174.205078 73.4101562,172.183594 73.4101562,168.824219 C73.4101562,165.484375 75.4023438,163.433594 78.4199219,163.433594 C81.4375,163.433594 83.4296875,165.474609 83.4296875,168.824219 C83.4296875,172.183594 81.4570312,174.205078 78.4199219,174.205078 Z M78.4199219,172.28125 C79.9628906,172.28125 80.9589844,171.03125 80.9589844,168.824219 C80.9589844,166.626953 79.9628906,165.367188 78.4199219,165.367188 C76.8867188,165.367188 75.8808594,166.626953 75.8808594,168.824219 C75.8808594,171.03125 76.8769531,172.28125 78.4199219,172.28125 Z M84.9921875,174 L84.9921875,163.648438 L87.3261719,163.648438 L87.3261719,165.425781 L87.375,165.425781 C87.9316406,164.195312 89.0351562,163.453125 90.6269531,163.453125 C92.9121094,163.453125 94.2109375,164.917969 94.2109375,167.310547 L94.2109375,174 L91.7792969,174 L91.7792969,167.798828 C91.7792969,166.333984 91.0957031,165.513672 89.7089844,165.513672 C88.3125,165.513672 87.4238281,166.519531 87.4238281,168.003906 L87.4238281,174 L84.9921875,174 Z M96.2128906,174 L96.2128906,163.648438 L98.6445312,163.648438 L98.6445312,174 L96.2128906,174 Z M97.4238281,162.291016 C96.671875,162.291016 96.0761719,161.705078 96.0761719,160.972656 C96.0761719,160.230469 96.671875,159.644531 97.4238281,159.644531 C98.1855469,159.644531 98.78125,160.230469 98.78125,160.972656 C98.78125,161.705078 98.1855469,162.291016 97.4238281,162.291016 Z M101.359375,161.226562 L103.791016,161.226562 L103.791016,163.648438 L105.744141,163.648438 L105.744141,165.523438 L103.791016,165.523438 L103.791016,170.904297 C103.791016,171.753906 104.181641,172.144531 105.041016,172.144531 C105.265625,172.144531 105.578125,172.125 105.734375,172.095703 L105.734375,173.951172 C105.470703,174.009766 104.992188,174.048828 104.474609,174.048828 C102.238281,174.048828 101.359375,173.257812 101.359375,171.246094 L101.359375,165.523438 L99.875,165.523438 L99.875,163.648438 L101.359375,163.648438 L101.359375,161.226562 Z M111.974609,174.205078 C108.9375,174.205078 106.964844,172.183594 106.964844,168.824219 C106.964844,165.484375 108.957031,163.433594 111.974609,163.433594 C114.992188,163.433594 116.984375,165.474609 116.984375,168.824219 C116.984375,172.183594 115.011719,174.205078 111.974609,174.205078 Z M111.974609,172.28125 C113.517578,172.28125 114.513672,171.03125 114.513672,168.824219 C114.513672,166.626953 113.517578,165.367188 111.974609,165.367188 C110.441406,165.367188 109.435547,166.626953 109.435547,168.824219 C109.435547,171.03125 110.431641,172.28125 111.974609,172.28125 Z M118.546875,174 L118.546875,163.648438 L120.880859,163.648438 L120.880859,165.455078 L120.929688,165.455078 C121.28125,164.195312 122.189453,163.472656 123.410156,163.472656 C123.722656,163.472656 123.996094,163.53125 124.171875,163.570312 L124.171875,165.767578 C123.966797,165.689453 123.595703,165.630859 123.185547,165.630859 C121.808594,165.630859 120.978516,166.519531 120.978516,167.974609 L120.978516,174 L118.546875,174 Z M141.554688,174 L139.044922,174 L139.044922,167.886719 L132.189453,167.886719 L132.189453,174 L129.669922,174 L129.669922,159.908203 L132.189453,159.908203 L132.189453,165.767578 L139.044922,165.767578 L139.044922,159.908203 L141.554688,159.908203 L141.554688,174 Z M149.943359,174 L144.035156,174 L144.035156,159.908203 L149.884766,159.908203 C152.443359,159.908203 154.09375,161.285156 154.09375,163.423828 C154.09375,164.9375 152.970703,166.255859 151.525391,166.490234 L151.525391,166.568359 C153.439453,166.753906 154.777344,168.130859 154.777344,169.996094 C154.777344,172.476562 152.951172,174 149.943359,174 Z M146.554688,161.871094 L146.554688,165.845703 L148.859375,165.845703 C150.617188,165.845703 151.603516,165.103516 151.603516,163.794922 C151.603516,162.564453 150.753906,161.871094 149.25,161.871094 L146.554688,161.871094 Z M146.554688,172.037109 L149.367188,172.037109 C151.222656,172.037109 152.208984,171.265625 152.208984,169.820312 C152.208984,168.384766 151.193359,167.632812 149.259766,167.632812 L146.554688,167.632812 L146.554688,172.037109 Z M156.144531,166.617188 C156.144531,164.722656 157.814453,163.433594 160.333984,163.433594 C162.765625,163.433594 164.416016,164.742188 164.474609,166.65625 L162.208984,166.65625 C162.130859,165.767578 161.417969,165.220703 160.285156,165.220703 C159.210938,165.220703 158.507812,165.728516 158.507812,166.480469 C158.507812,167.066406 158.976562,167.457031 159.992188,167.701172 L161.837891,168.111328 C163.908203,168.599609 164.71875,169.400391 164.71875,170.933594 C164.71875,172.886719 162.912109,174.205078 160.294922,174.205078 C157.697266,174.205078 156.046875,172.916016 155.880859,170.953125 L158.273438,170.953125 C158.419922,171.900391 159.152344,172.427734 160.382812,172.427734 C161.564453,172.427734 162.296875,171.949219 162.296875,171.177734 C162.296875,170.572266 161.916016,170.25 160.910156,169.996094 L159.025391,169.556641 C157.111328,169.107422 156.144531,168.111328 156.144531,166.617188 Z M175.724609,174 L174.523438,170.357422 L169.337891,170.357422 L168.136719,174 L165.539062,174 L170.539062,159.908203 L173.380859,159.908203 L178.380859,174 L175.724609,174 Z M171.896484,162.398438 L169.923828,168.414062 L173.927734,168.414062 L171.964844,162.398438 L171.896484,162.398438 Z M184.210938,172.076172 C185.763672,172.076172 186.769531,170.816406 186.769531,168.794922 C186.769531,166.783203 185.763672,165.474609 184.210938,165.474609 C182.677734,165.474609 181.701172,166.763672 181.701172,168.794922 C181.701172,170.845703 182.677734,172.076172 184.210938,172.076172 Z M184.201172,177.90625 C181.642578,177.90625 179.806641,176.597656 179.5625,174.78125 L181.974609,174.78125 C182.238281,175.572266 183.126953,176.109375 184.279297,176.109375 C185.861328,176.109375 186.769531,175.220703 186.769531,173.902344 L186.769531,172.154297 L186.710938,172.154297 C186.173828,173.267578 184.953125,174.009766 183.46875,174.009766 C180.910156,174.009766 179.210938,172.007812 179.210938,168.785156 C179.210938,165.513672 180.871094,163.472656 183.517578,163.472656 C184.992188,163.472656 186.183594,164.234375 186.779297,165.425781 L186.818359,165.425781 L186.818359,163.648438 L189.201172,163.648438 L189.201172,173.833984 C189.201172,176.304688 187.21875,177.90625 184.201172,177.90625 Z M75.34375,190.318359 C73.9765625,190.318359 72.9902344,191.363281 72.8925781,192.808594 L77.7265625,192.808594 C77.6777344,191.34375 76.7402344,190.318359 75.34375,190.318359 Z M77.7363281,195.904297 L80.0117188,195.904297 C79.6992188,197.857422 77.8828125,199.205078 75.4316406,199.205078 C72.3261719,199.205078 70.4511719,197.164062 70.4511719,193.863281 C70.4511719,190.591797 72.3457031,188.433594 75.3339844,188.433594 C78.2734375,188.433594 80.109375,190.474609 80.109375,193.619141 L80.109375,194.410156 L72.8730469,194.410156 L72.8730469,194.556641 C72.8730469,196.216797 73.8886719,197.330078 75.4804688,197.330078 C76.6132812,197.330078 77.4726562,196.763672 77.7363281,195.904297 Z M90.7832031,188.648438 L87.140625,199 L84.4648438,199 L80.7929688,188.648438 L83.390625,188.648438 L85.7929688,196.744141 L85.8417969,196.744141 L88.2441406,188.648438 L90.7832031,188.648438 Z M96.359375,190.318359 C94.9921875,190.318359 94.0058594,191.363281 93.9082031,192.808594 L98.7421875,192.808594 C98.6933594,191.34375 97.7558594,190.318359 96.359375,190.318359 Z M98.7519531,195.904297 L101.027344,195.904297 C100.714844,197.857422 98.8984375,199.205078 96.4472656,199.205078 C93.3417969,199.205078 91.4667969,197.164062 91.4667969,193.863281 C91.4667969,190.591797 93.3613281,188.433594 96.3496094,188.433594 C99.2890625,188.433594 101.125,190.474609 101.125,193.619141 L101.125,194.410156 L93.8886719,194.410156 L93.8886719,194.556641 C93.8886719,196.216797 94.9042969,197.330078 96.4960938,197.330078 C97.6289062,197.330078 98.4882812,196.763672 98.7519531,195.904297 Z M102.6875,199 L102.6875,188.648438 L105.021484,188.648438 L105.021484,190.455078 L105.070312,190.455078 C105.421875,189.195312 106.330078,188.472656 107.550781,188.472656 C107.863281,188.472656 108.136719,188.53125 108.3125,188.570312 L108.3125,190.767578 C108.107422,190.689453 107.736328,190.630859 107.326172,190.630859 C105.949219,190.630859 105.119141,191.519531 105.119141,192.974609 L105.119141,199 L102.6875,199 Z M110.714844,202.847656 C110.578125,202.847656 109.884766,202.837891 109.757812,202.808594 L109.757812,200.884766 C109.884766,200.914062 110.314453,200.923828 110.460938,200.923828 C111.466797,200.923828 111.984375,200.542969 112.257812,199.585938 C112.257812,199.556641 112.404297,199.039062 112.394531,199.009766 L108.712891,188.648438 L111.369141,188.648438 L113.810547,196.929688 L113.849609,196.929688 L116.291016,188.648438 L118.849609,188.648438 L115.109375,199.410156 C114.220703,201.978516 113.078125,202.847656 110.714844,202.847656 Z M127.609375,199 L127.609375,187.310547 L127.550781,187.310547 L123.908203,189.869141 L123.908203,187.496094 L127.589844,184.908203 L130.080078,184.908203 L130.080078,199 L127.609375,199 Z M133.253906,189.087891 C133.253906,186.490234 135.333984,184.625 138.253906,184.625 C141.066406,184.625 143.078125,186.34375 143.078125,188.628906 C143.078125,190.308594 142.082031,191.578125 140.236328,193.443359 L136.75,196.890625 L136.75,196.939453 L143.292969,196.939453 L143.292969,199 L133.390625,199 L133.390625,197.300781 L138.576172,192.144531 C140.177734,190.513672 140.617188,189.791016 140.617188,188.736328 C140.617188,187.574219 139.572266,186.646484 138.175781,186.646484 C136.710938,186.646484 135.617188,187.681641 135.617188,189.078125 L135.617188,189.117188 L133.253906,189.117188 L133.253906,189.087891 Z M149.132812,199 L149.132812,188.648438 L151.466797,188.648438 L151.466797,190.445312 L151.515625,190.445312 C151.964844,189.244141 153.058594,188.453125 154.464844,188.453125 C155.929688,188.453125 156.974609,189.205078 157.355469,190.533203 L157.414062,190.533203 C157.912109,189.253906 159.142578,188.453125 160.636719,188.453125 C162.677734,188.453125 164.015625,189.830078 164.015625,191.900391 L164.015625,199 L161.583984,199 L161.583984,192.496094 C161.583984,191.226562 160.919922,190.503906 159.728516,190.503906 C158.556641,190.503906 157.755859,191.363281 157.755859,192.603516 L157.755859,199 L155.392578,199 L155.392578,192.369141 C155.392578,191.216797 154.689453,190.503906 153.556641,190.503906 C152.384766,190.503906 151.564453,191.412109 151.564453,192.662109 L151.564453,199 L149.132812,199 Z M170.539062,199.205078 C167.501953,199.205078 165.529297,197.183594 165.529297,193.824219 C165.529297,190.484375 167.521484,188.433594 170.539062,188.433594 C173.556641,188.433594 175.548828,190.474609 175.548828,193.824219 C175.548828,197.183594 173.576172,199.205078 170.539062,199.205078 Z M170.539062,197.28125 C172.082031,197.28125 173.078125,196.03125 173.078125,193.824219 C173.078125,191.626953 172.082031,190.367188 170.539062,190.367188 C169.005859,190.367188 168,191.626953 168,193.824219 C168,196.03125 168.996094,197.28125 170.539062,197.28125 Z" id="path-2"></path>
        <path d="M55.4169922,48 L52.9072266,48 L52.9072266,41.8867188 L46.0517578,41.8867188 L46.0517578,48 L43.5322266,48 L43.5322266,33.9082031 L46.0517578,33.9082031 L46.0517578,39.7675781 L52.9072266,39.7675781 L52.9072266,33.9082031 L55.4169922,33.9082031 L55.4169922,48 Z M63.8056641,48 L57.8974609,48 L57.8974609,33.9082031 L63.7470703,33.9082031 C66.3056641,33.9082031 67.9560547,35.2851562 67.9560547,37.4238281 C67.9560547,38.9375 66.8330078,40.2558594 65.3876953,40.4902344 L65.3876953,40.5683594 C67.3017578,40.7539062 68.6396484,42.1308594 68.6396484,43.9960938 C68.6396484,46.4765625 66.8134766,48 63.8056641,48 Z M60.4169922,35.8710938 L60.4169922,39.8457031 L62.7216797,39.8457031 C64.4794922,39.8457031 65.4658203,39.1035156 65.4658203,37.7949219 C65.4658203,36.5644531 64.6162109,35.8710938 63.1123047,35.8710938 L60.4169922,35.8710938 Z M60.4169922,46.0371094 L63.2294922,46.0371094 C65.0849609,46.0371094 66.0712891,45.265625 66.0712891,43.8203125 C66.0712891,42.3847656 65.0556641,41.6328125 63.1220703,41.6328125 L60.4169922,41.6328125 L60.4169922,46.0371094 Z M77.2529297,48 L74.3623047,48 L69.4599609,33.9082031 L72.2333984,33.9082031 L75.8076172,45.2949219 L75.8662109,45.2949219 L79.4404297,33.9082031 L82.1552734,33.9082031 L77.2529297,48 Z M87.6630859,33.9082031 L92.8095703,33.9082031 C97.0185547,33.9082031 99.5087891,36.4570312 99.5087891,40.9199219 C99.5087891,45.3828125 97.0283203,48 92.8095703,48 L87.6630859,48 L87.6630859,33.9082031 Z M90.1826172,36.0371094 L90.1826172,45.8710938 L92.5458984,45.8710938 C95.3779297,45.8710938 96.9404297,44.1425781 96.9404297,40.9296875 C96.9404297,37.7753906 95.3583984,36.0371094 92.5458984,36.0371094 L90.1826172,36.0371094 Z M103.932617,48 L101.500977,48 L101.500977,33.9082031 L103.688477,33.9082031 L110.680664,43.78125 L110.768555,43.78125 L110.768555,33.9082031 L113.19043,33.9082031 L113.19043,48 L111.022461,48 L104.020508,38.1171875 L103.932617,38.1171875 L103.932617,48 Z M124.889648,48 L123.688477,44.3574219 L118.50293,44.3574219 L117.301758,48 L114.704102,48 L119.704102,33.9082031 L122.545898,33.9082031 L127.545898,48 L124.889648,48 Z M121.061523,36.3984375 L119.088867,42.4140625 L123.092773,42.4140625 L121.129883,36.3984375 L121.061523,36.3984375 Z M143.161133,47.3261719 L133.112305,47.3261719 L133.112305,45.3828125 L143.161133,45.3828125 L143.161133,47.3261719 Z M133.102539,42.0820312 L139.987305,40.3632812 L139.987305,40.1972656 L133.102539,38.4785156 L133.102539,36.3789062 L143.161133,39.3378906 L143.161133,41.2226562 L133.102539,44.1816406 L133.102539,42.0820312 Z M149.362305,38.0878906 C149.362305,35.4902344 151.442383,33.625 154.362305,33.625 C157.174805,33.625 159.186523,35.34375 159.186523,37.6289062 C159.186523,39.3085938 158.19043,40.578125 156.344727,42.4433594 L152.858398,45.890625 L152.858398,45.9394531 L159.401367,45.9394531 L159.401367,48 L149.499023,48 L149.499023,46.3007812 L154.68457,41.1445312 C156.286133,39.5136719 156.725586,38.7910156 156.725586,37.7363281 C156.725586,36.5742188 155.680664,35.6464844 154.28418,35.6464844 C152.819336,35.6464844 151.725586,36.6816406 151.725586,38.078125 L151.725586,38.1171875 L149.362305,38.1171875 L149.362305,38.0878906 Z M162.985352,50.9785156 L161.120117,50.9785156 L161.930664,45.6757812 L164.303711,45.6757812 L162.985352,50.9785156 Z M171.979492,48.2832031 C168.522461,48.2832031 166.461914,45.4609375 166.461914,40.9394531 C166.461914,36.4375 168.541992,33.625 171.979492,33.625 C175.407227,33.625 177.477539,36.4179688 177.477539,40.9296875 C177.477539,45.4414062 175.426758,48.2832031 171.979492,48.2832031 Z M171.979492,46.2226562 C173.844727,46.2226562 174.928711,44.2597656 174.928711,40.9394531 C174.928711,37.6484375 173.825195,35.6855469 171.979492,35.6855469 C170.124023,35.6855469 169.000977,37.6679688 169.000977,40.9296875 C169.000977,44.25 170.104492,46.2226562 171.979492,46.2226562 Z M184.674805,48.2832031 C181.217773,48.2832031 179.157227,45.4609375 179.157227,40.9394531 C179.157227,36.4375 181.237305,33.625 184.674805,33.625 C188.102539,33.625 190.172852,36.4179688 190.172852,40.9296875 C190.172852,45.4414062 188.12207,48.2832031 184.674805,48.2832031 Z M184.674805,46.2226562 C186.540039,46.2226562 187.624023,44.2597656 187.624023,40.9394531 C187.624023,37.6484375 186.520508,35.6855469 184.674805,35.6855469 C182.819336,35.6855469 181.696289,37.6679688 181.696289,40.9296875 C181.696289,44.25 182.799805,46.2226562 184.674805,46.2226562 Z M197.370117,48.2832031 C193.913086,48.2832031 191.852539,45.4609375 191.852539,40.9394531 C191.852539,36.4375 193.932617,33.625 197.370117,33.625 C200.797852,33.625 202.868164,36.4179688 202.868164,40.9296875 C202.868164,45.4414062 200.817383,48.2832031 197.370117,48.2832031 Z M197.370117,46.2226562 C199.235352,46.2226562 200.319336,44.2597656 200.319336,40.9394531 C200.319336,37.6484375 199.21582,35.6855469 197.370117,35.6855469 C195.514648,35.6855469 194.391602,37.6679688 194.391602,40.9296875 C194.391602,44.25 195.495117,46.2226562 197.370117,46.2226562 Z" id="path-3"></path>
        <path d="M55.4169922,48 L52.9072266,48 L52.9072266,41.8867188 L46.0517578,41.8867188 L46.0517578,48 L43.5322266,48 L43.5322266,33.9082031 L46.0517578,33.9082031 L46.0517578,39.7675781 L52.9072266,39.7675781 L52.9072266,33.9082031 L55.4169922,33.9082031 L55.4169922,48 Z M63.8056641,48 L57.8974609,48 L57.8974609,33.9082031 L63.7470703,33.9082031 C66.3056641,33.9082031 67.9560547,35.2851562 67.9560547,37.4238281 C67.9560547,38.9375 66.8330078,40.2558594 65.3876953,40.4902344 L65.3876953,40.5683594 C67.3017578,40.7539062 68.6396484,42.1308594 68.6396484,43.9960938 C68.6396484,46.4765625 66.8134766,48 63.8056641,48 Z M60.4169922,35.8710938 L60.4169922,39.8457031 L62.7216797,39.8457031 C64.4794922,39.8457031 65.4658203,39.1035156 65.4658203,37.7949219 C65.4658203,36.5644531 64.6162109,35.8710938 63.1123047,35.8710938 L60.4169922,35.8710938 Z M60.4169922,46.0371094 L63.2294922,46.0371094 C65.0849609,46.0371094 66.0712891,45.265625 66.0712891,43.8203125 C66.0712891,42.3847656 65.0556641,41.6328125 63.1220703,41.6328125 L60.4169922,41.6328125 L60.4169922,46.0371094 Z M77.2529297,48 L74.3623047,48 L69.4599609,33.9082031 L72.2333984,33.9082031 L75.8076172,45.2949219 L75.8662109,45.2949219 L79.4404297,33.9082031 L82.1552734,33.9082031 L77.2529297,48 Z M87.6630859,33.9082031 L92.8095703,33.9082031 C97.0185547,33.9082031 99.5087891,36.4570312 99.5087891,40.9199219 C99.5087891,45.3828125 97.0283203,48 92.8095703,48 L87.6630859,48 L87.6630859,33.9082031 Z M90.1826172,36.0371094 L90.1826172,45.8710938 L92.5458984,45.8710938 C95.3779297,45.8710938 96.9404297,44.1425781 96.9404297,40.9296875 C96.9404297,37.7753906 95.3583984,36.0371094 92.5458984,36.0371094 L90.1826172,36.0371094 Z M103.932617,48 L101.500977,48 L101.500977,33.9082031 L103.688477,33.9082031 L110.680664,43.78125 L110.768555,43.78125 L110.768555,33.9082031 L113.19043,33.9082031 L113.19043,48 L111.022461,48 L104.020508,38.1171875 L103.932617,38.1171875 L103.932617,48 Z M124.889648,48 L123.688477,44.3574219 L118.50293,44.3574219 L117.301758,48 L114.704102,48 L119.704102,33.9082031 L122.545898,33.9082031 L127.545898,48 L124.889648,48 Z M121.061523,36.3984375 L119.088867,42.4140625 L123.092773,42.4140625 L121.129883,36.3984375 L121.061523,36.3984375 Z M142.65332,38.8886719 L136.061523,42.296875 L136.061523,42.3945312 L142.65332,45.6464844 L142.65332,48.1171875 L133.610352,43.3417969 L133.610352,41.4375 L142.65332,36.4277344 L142.65332,38.8886719 Z M149.362305,38.0878906 C149.362305,35.4902344 151.442383,33.625 154.362305,33.625 C157.174805,33.625 159.186523,35.34375 159.186523,37.6289062 C159.186523,39.3085938 158.19043,40.578125 156.344727,42.4433594 L152.858398,45.890625 L152.858398,45.9394531 L159.401367,45.9394531 L159.401367,48 L149.499023,48 L149.499023,46.3007812 L154.68457,41.1445312 C156.286133,39.5136719 156.725586,38.7910156 156.725586,37.7363281 C156.725586,36.5742188 155.680664,35.6464844 154.28418,35.6464844 C152.819336,35.6464844 151.725586,36.6816406 151.725586,38.078125 L151.725586,38.1171875 L149.362305,38.1171875 L149.362305,38.0878906 Z M162.985352,50.9785156 L161.120117,50.9785156 L161.930664,45.6757812 L164.303711,45.6757812 L162.985352,50.9785156 Z M171.979492,48.2832031 C168.522461,48.2832031 166.461914,45.4609375 166.461914,40.9394531 C166.461914,36.4375 168.541992,33.625 171.979492,33.625 C175.407227,33.625 177.477539,36.4179688 177.477539,40.9296875 C177.477539,45.4414062 175.426758,48.2832031 171.979492,48.2832031 Z M171.979492,46.2226562 C173.844727,46.2226562 174.928711,44.2597656 174.928711,40.9394531 C174.928711,37.6484375 173.825195,35.6855469 171.979492,35.6855469 C170.124023,35.6855469 169.000977,37.6679688 169.000977,40.9296875 C169.000977,44.25 170.104492,46.2226562 171.979492,46.2226562 Z M184.674805,48.2832031 C181.217773,48.2832031 179.157227,45.4609375 179.157227,40.9394531 C179.157227,36.4375 181.237305,33.625 184.674805,33.625 C188.102539,33.625 190.172852,36.4179688 190.172852,40.9296875 C190.172852,45.4414062 188.12207,48.2832031 184.674805,48.2832031 Z M184.674805,46.2226562 C186.540039,46.2226562 187.624023,44.2597656 187.624023,40.9394531 C187.624023,37.6484375 186.520508,35.6855469 184.674805,35.6855469 C182.819336,35.6855469 181.696289,37.6679688 181.696289,40.9296875 C181.696289,44.25 182.799805,46.2226562 184.674805,46.2226562 Z M197.370117,48.2832031 C193.913086,48.2832031 191.852539,45.4609375 191.852539,40.9394531 C191.852539,36.4375 193.932617,33.625 197.370117,33.625 C200.797852,33.625 202.868164,36.4179688 202.868164,40.9296875 C202.868164,45.4414062 200.817383,48.2832031 197.370117,48.2832031 Z M197.370117,46.2226562 C199.235352,46.2226562 200.319336,44.2597656 200.319336,40.9394531 C200.319336,37.6484375 199.21582,35.6855469 197.370117,35.6855469 C195.514648,35.6855469 194.391602,37.6679688 194.391602,40.9296875 C194.391602,44.25 195.495117,46.2226562 197.370117,46.2226562 Z" id="path-4"></path>
        <path d="M117.490234,48 L115.058594,48 L115.058594,33.9082031 L117.246094,33.9082031 L124.238281,43.78125 L124.326172,43.78125 L124.326172,33.9082031 L126.748047,33.9082031 L126.748047,48 L124.580078,48 L117.578125,38.1171875 L117.490234,38.1171875 L117.490234,48 Z M135.449219,33.6738281 C139.550781,33.6738281 142.128906,36.4765625 142.128906,40.9589844 C142.128906,45.4414062 139.550781,48.234375 135.449219,48.234375 C131.337891,48.234375 128.759766,45.4414062 128.759766,40.9589844 C128.759766,36.4765625 131.337891,33.6738281 135.449219,33.6738281 Z M135.449219,35.8222656 C132.929688,35.8222656 131.337891,37.8144531 131.337891,40.9589844 C131.337891,44.09375 132.929688,46.0859375 135.449219,46.0859375 C137.958984,46.0859375 139.560547,44.09375 139.560547,40.9589844 C139.560547,37.8144531 137.958984,35.8222656 135.449219,35.8222656 Z M146.650391,35.9492188 L146.650391,40.7636719 L149.492188,40.7636719 C151.09375,40.7636719 152.021484,39.875 152.021484,38.3515625 C152.021484,36.8671875 151.035156,35.9492188 149.443359,35.9492188 L146.650391,35.9492188 Z M146.650391,42.6972656 L146.650391,48 L144.130859,48 L144.130859,33.9082031 L149.726562,33.9082031 C152.773438,33.9082031 154.599609,35.5976562 154.599609,38.2929688 C154.599609,40.1582031 153.623047,41.7109375 151.943359,42.3164062 L155.019531,48 L152.148438,48 L149.375,42.6972656 L146.650391,42.6972656 Z M171.171875,48 L168.90625,48 L168.90625,38 L168.837891,38 L164.765625,47.8828125 L163.046875,47.8828125 L158.974609,38 L158.90625,38 L158.90625,48 L156.630859,48 L156.630859,33.9082031 L159.550781,33.9082031 L163.867188,44.5429688 L163.945312,44.5429688 L168.261719,33.9082031 L171.171875,33.9082031 L171.171875,48 Z M182.871094,48 L181.669922,44.3574219 L176.484375,44.3574219 L175.283203,48 L172.685547,48 L177.685547,33.9082031 L180.527344,33.9082031 L185.527344,48 L182.871094,48 Z M179.042969,36.3984375 L177.070312,42.4140625 L181.074219,42.4140625 L179.111328,36.3984375 L179.042969,36.3984375 Z M195.947266,45.8710938 L195.947266,48 L187.03125,48 L187.03125,33.9082031 L189.550781,33.9082031 L189.550781,45.8710938 L195.947266,45.8710938 Z M210.966797,48 L209.765625,44.3574219 L204.580078,44.3574219 L203.378906,48 L200.78125,48 L205.78125,33.9082031 L208.623047,33.9082031 L213.623047,48 L210.966797,48 Z M207.138672,36.3984375 L205.166016,42.4140625 L209.169922,42.4140625 L207.207031,36.3984375 L207.138672,36.3984375 Z M224.042969,45.8710938 L224.042969,48 L215.126953,48 L215.126953,33.9082031 L217.646484,33.9082031 L217.646484,45.8710938 L224.042969,45.8710938 Z M231.806641,48 L229.296875,48 L229.296875,36.0371094 L225.078125,36.0371094 L225.078125,33.9082031 L236.015625,33.9082031 L236.015625,36.0371094 L231.806641,36.0371094 L231.806641,48 Z M244.257812,39.640625 L241.962891,38.0976562 L242.148438,40.8515625 L240.556641,40.8515625 L240.751953,38.0976562 L238.427734,39.6503906 L237.65625,38.2246094 L240.117188,37.0527344 L237.65625,35.8710938 L238.4375,34.4648438 L240.742188,35.9785156 L240.556641,33.2441406 L242.158203,33.2441406 L241.972656,35.9785156 L244.267578,34.4550781 L245.058594,35.8710938 L242.578125,37.0625 L245.058594,38.2246094 L244.257812,39.640625 Z" id="path-5"></path>
        <path d="M42.3652344,26.3183594 C40.9980469,26.3183594 40.0117188,27.3632812 39.9140625,28.8085938 L44.7480469,28.8085938 C44.6992188,27.34375 43.7617188,26.3183594 42.3652344,26.3183594 Z M44.7578125,31.9042969 L47.0332031,31.9042969 C46.7207031,33.8574219 44.9042969,35.2050781 42.453125,35.2050781 C39.3476562,35.2050781 37.4726562,33.1640625 37.4726562,29.8632812 C37.4726562,26.5917969 39.3671875,24.4335938 42.3554688,24.4335938 C45.2949219,24.4335938 47.1308594,26.4746094 47.1308594,29.6191406 L47.1308594,30.4101562 L39.8945312,30.4101562 L39.8945312,30.5566406 C39.8945312,32.2167969 40.9101562,33.3300781 42.5019531,33.3300781 C43.6347656,33.3300781 44.4941406,32.7636719 44.7578125,31.9042969 Z M55.2753906,30.3613281 L48.859375,30.3613281 L48.859375,28.1933594 L55.2753906,28.1933594 L55.2753906,30.3613281 Z M66.8867188,35 L65.6855469,31.3574219 L60.5,31.3574219 L59.2988281,35 L56.7011719,35 L61.7011719,20.9082031 L64.5429688,20.9082031 L69.5429688,35 L66.8867188,35 Z M63.0585938,23.3984375 L61.0859375,29.4140625 L65.0898438,29.4140625 L63.1269531,23.3984375 L63.0585938,23.3984375 Z M70.8027344,35 L70.8027344,24.6484375 L73.1367188,24.6484375 L73.1367188,26.4257812 L73.1855469,26.4257812 C73.7421875,25.1953125 74.8457031,24.453125 76.4375,24.453125 C78.7226562,24.453125 80.0214844,25.9179688 80.0214844,28.3105469 L80.0214844,35 L77.5898438,35 L77.5898438,28.7988281 C77.5898438,27.3339844 76.90625,26.5136719 75.5195312,26.5136719 C74.1230469,26.5136719 73.234375,27.5195312 73.234375,29.0039062 L73.234375,35 L70.8027344,35 Z M82.6386719,22.2265625 L85.0703125,22.2265625 L85.0703125,24.6484375 L87.0234375,24.6484375 L87.0234375,26.5234375 L85.0703125,26.5234375 L85.0703125,31.9042969 C85.0703125,32.7539062 85.4609375,33.1445312 86.3203125,33.1445312 C86.5449219,33.1445312 86.8574219,33.125 87.0136719,33.0957031 L87.0136719,34.9511719 C86.75,35.0097656 86.2714844,35.0488281 85.7539062,35.0488281 C83.5175781,35.0488281 82.6386719,34.2578125 82.6386719,32.2460938 L82.6386719,26.5234375 L81.1542969,26.5234375 L81.1542969,24.6484375 L82.6386719,24.6484375 L82.6386719,22.2265625 Z M88.7324219,35 L88.7324219,24.6484375 L91.1640625,24.6484375 L91.1640625,35 L88.7324219,35 Z M89.9433594,23.2910156 C89.1914062,23.2910156 88.5957031,22.7050781 88.5957031,21.9726562 C88.5957031,21.2304688 89.1914062,20.6445312 89.9433594,20.6445312 C90.7050781,20.6445312 91.3007812,21.2304688 91.3007812,21.9726562 C91.3007812,22.7050781 90.7050781,23.2910156 89.9433594,23.2910156 Z M97.7753906,33.0761719 C99.328125,33.0761719 100.333984,31.8164062 100.333984,29.7949219 C100.333984,27.7832031 99.328125,26.4746094 97.7753906,26.4746094 C96.2421875,26.4746094 95.265625,27.7636719 95.265625,29.7949219 C95.265625,31.8457031 96.2421875,33.0761719 97.7753906,33.0761719 Z M97.765625,38.90625 C95.2070312,38.90625 93.3710938,37.5976562 93.1269531,35.78125 L95.5390625,35.78125 C95.8027344,36.5722656 96.6914062,37.109375 97.84375,37.109375 C99.4257812,37.109375 100.333984,36.2207031 100.333984,34.9023438 L100.333984,33.1542969 L100.275391,33.1542969 C99.7382812,34.2675781 98.5175781,35.0097656 97.0332031,35.0097656 C94.4746094,35.0097656 92.7753906,33.0078125 92.7753906,29.7851562 C92.7753906,26.5136719 94.4355469,24.4726562 97.0820312,24.4726562 C98.5566406,24.4726562 99.7480469,25.234375 100.34375,26.4257812 L100.382812,26.4257812 L100.382812,24.6484375 L102.765625,24.6484375 L102.765625,34.8339844 C102.765625,37.3046875 100.783203,38.90625 97.765625,38.90625 Z M109.210938,26.3183594 C107.84375,26.3183594 106.857422,27.3632812 106.759766,28.8085938 L111.59375,28.8085938 C111.544922,27.34375 110.607422,26.3183594 109.210938,26.3183594 Z M111.603516,31.9042969 L113.878906,31.9042969 C113.566406,33.8574219 111.75,35.2050781 109.298828,35.2050781 C106.193359,35.2050781 104.318359,33.1640625 104.318359,29.8632812 C104.318359,26.5917969 106.212891,24.4335938 109.201172,24.4335938 C112.140625,24.4335938 113.976562,26.4746094 113.976562,29.6191406 L113.976562,30.4101562 L106.740234,30.4101562 L106.740234,30.5566406 C106.740234,32.2167969 107.755859,33.3300781 109.347656,33.3300781 C110.480469,33.3300781 111.339844,32.7636719 111.603516,31.9042969 Z M115.539062,35 L115.539062,24.6484375 L117.873047,24.6484375 L117.873047,26.4257812 L117.921875,26.4257812 C118.478516,25.1953125 119.582031,24.453125 121.173828,24.453125 C123.458984,24.453125 124.757812,25.9179688 124.757812,28.3105469 L124.757812,35 L122.326172,35 L122.326172,28.7988281 C122.326172,27.3339844 121.642578,26.5136719 120.255859,26.5136719 C118.859375,26.5136719 117.970703,27.5195312 117.970703,29.0039062 L117.970703,35 L115.539062,35 Z M133.380859,35 L130.949219,35 L130.949219,20.9082031 L133.136719,20.9082031 L140.128906,30.78125 L140.216797,30.78125 L140.216797,20.9082031 L142.638672,20.9082031 L142.638672,35 L140.470703,35 L133.46875,25.1171875 L133.380859,25.1171875 L133.380859,35 Z M149.347656,26.3183594 C147.980469,26.3183594 146.994141,27.3632812 146.896484,28.8085938 L151.730469,28.8085938 C151.681641,27.34375 150.744141,26.3183594 149.347656,26.3183594 Z M151.740234,31.9042969 L154.015625,31.9042969 C153.703125,33.8574219 151.886719,35.2050781 149.435547,35.2050781 C146.330078,35.2050781 144.455078,33.1640625 144.455078,29.8632812 C144.455078,26.5917969 146.349609,24.4335938 149.337891,24.4335938 C152.277344,24.4335938 154.113281,26.4746094 154.113281,29.6191406 L154.113281,30.4101562 L146.876953,30.4101562 L146.876953,30.5566406 C146.876953,32.2167969 147.892578,33.3300781 149.484375,33.3300781 C150.617188,33.3300781 151.476562,32.7636719 151.740234,31.9042969 Z M160.246094,33.0761719 C161.798828,33.0761719 162.804688,31.8164062 162.804688,29.7949219 C162.804688,27.7832031 161.798828,26.4746094 160.246094,26.4746094 C158.712891,26.4746094 157.736328,27.7636719 157.736328,29.7949219 C157.736328,31.8457031 158.712891,33.0761719 160.246094,33.0761719 Z M160.236328,38.90625 C157.677734,38.90625 155.841797,37.5976562 155.597656,35.78125 L158.009766,35.78125 C158.273438,36.5722656 159.162109,37.109375 160.314453,37.109375 C161.896484,37.109375 162.804688,36.2207031 162.804688,34.9023438 L162.804688,33.1542969 L162.746094,33.1542969 C162.208984,34.2675781 160.988281,35.0097656 159.503906,35.0097656 C156.945312,35.0097656 155.246094,33.0078125 155.246094,29.7851562 C155.246094,26.5136719 156.90625,24.4726562 159.552734,24.4726562 C161.027344,24.4726562 162.21875,25.234375 162.814453,26.4257812 L162.853516,26.4257812 L162.853516,24.6484375 L165.236328,24.6484375 L165.236328,34.8339844 C165.236328,37.3046875 163.253906,38.90625 160.236328,38.90625 Z M170.998047,33.3300781 C172.375,33.3300781 173.478516,32.4121094 173.478516,31.1621094 L173.478516,30.3710938 L171.085938,30.5175781 C169.914062,30.5957031 169.240234,31.1230469 169.240234,31.9433594 C169.240234,32.7929688 169.943359,33.3300781 170.998047,33.3300781 Z M170.265625,35.1660156 C168.263672,35.1660156 166.808594,33.90625 166.808594,32.0410156 C166.808594,30.2050781 168.224609,29.1015625 170.744141,28.9453125 L173.478516,28.7890625 L173.478516,28.046875 C173.478516,26.9628906 172.746094,26.3378906 171.544922,26.3378906 C170.392578,26.3378906 169.660156,26.8945312 169.503906,27.7539062 L167.248047,27.7539062 C167.355469,25.8203125 169.005859,24.4335938 171.642578,24.4335938 C174.210938,24.4335938 175.880859,25.7910156 175.880859,27.8710938 L175.880859,35 L173.537109,35 L173.537109,33.3496094 L173.488281,33.3496094 C172.892578,34.4726562 171.59375,35.1660156 170.265625,35.1660156 Z M178.507812,22.2265625 L180.939453,22.2265625 L180.939453,24.6484375 L182.892578,24.6484375 L182.892578,26.5234375 L180.939453,26.5234375 L180.939453,31.9042969 C180.939453,32.7539062 181.330078,33.1445312 182.189453,33.1445312 C182.414062,33.1445312 182.726562,33.125 182.882812,33.0957031 L182.882812,34.9511719 C182.619141,35.0097656 182.140625,35.0488281 181.623047,35.0488281 C179.386719,35.0488281 178.507812,34.2578125 178.507812,32.2460938 L178.507812,26.5234375 L177.023438,26.5234375 L177.023438,24.6484375 L178.507812,24.6484375 L178.507812,22.2265625 Z M184.601562,35 L184.601562,24.6484375 L187.033203,24.6484375 L187.033203,35 L184.601562,35 Z M185.8125,23.2910156 C185.060547,23.2910156 184.464844,22.7050781 184.464844,21.9726562 C184.464844,21.2304688 185.060547,20.6445312 185.8125,20.6445312 C186.574219,20.6445312 187.169922,21.2304688 187.169922,21.9726562 C187.169922,22.7050781 186.574219,23.2910156 185.8125,23.2910156 Z M198.185547,24.6484375 L194.542969,35 L191.867188,35 L188.195312,24.6484375 L190.792969,24.6484375 L193.195312,32.7441406 L193.244141,32.7441406 L195.646484,24.6484375 L198.185547,24.6484375 Z M203.761719,26.3183594 C202.394531,26.3183594 201.408203,27.3632812 201.310547,28.8085938 L206.144531,28.8085938 C206.095703,27.34375 205.158203,26.3183594 203.761719,26.3183594 Z M206.154297,31.9042969 L208.429688,31.9042969 C208.117188,33.8574219 206.300781,35.2050781 203.849609,35.2050781 C200.744141,35.2050781 198.869141,33.1640625 198.869141,29.8632812 C198.869141,26.5917969 200.763672,24.4335938 203.751953,24.4335938 C206.691406,24.4335938 208.527344,26.4746094 208.527344,29.6191406 L208.527344,30.4101562 L201.291016,30.4101562 L201.291016,30.5566406 C201.291016,32.2167969 202.306641,33.3300781 203.898438,33.3300781 C205.03125,33.3300781 205.890625,32.7636719 206.154297,31.9042969 Z M79.9238281,54.4628906 C79.9238281,51.0351562 80.8222656,48.2910156 82.7753906,45.9082031 L84.9628906,45.9082031 C83.5371094,47.5683594 82.4238281,51.2207031 82.4238281,54.453125 C82.4238281,57.6855469 83.546875,61.3476562 84.9628906,63.0175781 L82.7753906,63.0175781 C80.8222656,60.625 79.9238281,57.8710938 79.9238281,54.4628906 Z M98.4492188,60 L95.9394531,60 L95.9394531,53.8867188 L89.0839844,53.8867188 L89.0839844,60 L86.5644531,60 L86.5644531,45.9082031 L89.0839844,45.9082031 L89.0839844,51.7675781 L95.9394531,51.7675781 L95.9394531,45.9082031 L98.4492188,45.9082031 L98.4492188,60 Z M106.837891,60 L100.929688,60 L100.929688,45.9082031 L106.779297,45.9082031 C109.337891,45.9082031 110.988281,47.2851562 110.988281,49.4238281 C110.988281,50.9375 109.865234,52.2558594 108.419922,52.4902344 L108.419922,52.5683594 C110.333984,52.7539062 111.671875,54.1308594 111.671875,55.9960938 C111.671875,58.4765625 109.845703,60 106.837891,60 Z M103.449219,47.8710938 L103.449219,51.8457031 L105.753906,51.8457031 C107.511719,51.8457031 108.498047,51.1035156 108.498047,49.7949219 C108.498047,48.5644531 107.648438,47.8710938 106.144531,47.8710938 L103.449219,47.8710938 Z M103.449219,58.0371094 L106.261719,58.0371094 C108.117188,58.0371094 109.103516,57.265625 109.103516,55.8203125 C109.103516,54.3847656 108.087891,53.6328125 106.154297,53.6328125 L103.449219,53.6328125 L103.449219,58.0371094 Z M117.6875,51.3183594 C116.320312,51.3183594 115.333984,52.3632812 115.236328,53.8085938 L120.070312,53.8085938 C120.021484,52.34375 119.083984,51.3183594 117.6875,51.3183594 Z M120.080078,56.9042969 L122.355469,56.9042969 C122.042969,58.8574219 120.226562,60.2050781 117.775391,60.2050781 C114.669922,60.2050781 112.794922,58.1640625 112.794922,54.8632812 C112.794922,51.5917969 114.689453,49.4335938 117.677734,49.4335938 C120.617188,49.4335938 122.453125,51.4746094 122.453125,54.6191406 L122.453125,55.4101562 L115.216797,55.4101562 L115.216797,55.5566406 C115.216797,57.2167969 116.232422,58.3300781 117.824219,58.3300781 C118.957031,58.3300781 119.816406,57.7636719 120.080078,56.9042969 Z M133.46875,60 L132.267578,56.3574219 L127.082031,56.3574219 L125.880859,60 L123.283203,60 L128.283203,45.9082031 L131.125,45.9082031 L136.125,60 L133.46875,60 Z M129.640625,48.3984375 L127.667969,54.4140625 L131.671875,54.4140625 L129.708984,48.3984375 L129.640625,48.3984375 Z M141.955078,58.0761719 C143.507812,58.0761719 144.513672,56.8164062 144.513672,54.7949219 C144.513672,52.7832031 143.507812,51.4746094 141.955078,51.4746094 C140.421875,51.4746094 139.445312,52.7636719 139.445312,54.7949219 C139.445312,56.8457031 140.421875,58.0761719 141.955078,58.0761719 Z M141.945312,63.90625 C139.386719,63.90625 137.550781,62.5976562 137.306641,60.78125 L139.71875,60.78125 C139.982422,61.5722656 140.871094,62.109375 142.023438,62.109375 C143.605469,62.109375 144.513672,61.2207031 144.513672,59.9023438 L144.513672,58.1542969 L144.455078,58.1542969 C143.917969,59.2675781 142.697266,60.0097656 141.212891,60.0097656 C138.654297,60.0097656 136.955078,58.0078125 136.955078,54.7851562 C136.955078,51.5136719 138.615234,49.4726562 141.261719,49.4726562 C142.736328,49.4726562 143.927734,50.234375 144.523438,51.4257812 L144.5625,51.4257812 L144.5625,49.6484375 L146.945312,49.6484375 L146.945312,59.8339844 C146.945312,62.3046875 144.962891,63.90625 141.945312,63.90625 Z M159.513672,55.3613281 L153.097656,55.3613281 L153.097656,53.1933594 L159.513672,53.1933594 L159.513672,55.3613281 Z M166.076172,54.4628906 C166.076172,58.59375 164.777344,61.1328125 163.224609,63.0175781 L161.037109,63.0175781 C162.091797,61.7675781 163.576172,58.5253906 163.576172,54.453125 C163.576172,50.3808594 162.091797,47.1386719 161.037109,45.9082031 L163.224609,45.9082031 C164.767578,47.7832031 166.076172,50.3125 166.076172,54.4628906 Z" id="path-6"></path>
        <path d="M26.9892578,35.234375 C22.9658203,35.234375 20.4365234,32.4707031 20.4365234,27.9492188 C20.4365234,23.4570312 22.9853516,20.6738281 26.9892578,20.6738281 C30.2607422,20.6738281 32.7509766,22.7148438 33.0634766,25.7421875 L30.5830078,25.7421875 C30.2509766,23.9746094 28.8154297,22.8125 26.9892578,22.8125 C24.5673828,22.8125 23.0146484,24.8046875 23.0146484,27.9492188 C23.0146484,31.1132812 24.5576172,33.0957031 26.9990234,33.0957031 C28.8642578,33.0957031 30.2021484,32.0898438 30.5927734,30.390625 L33.0634766,30.390625 C32.6240234,33.4082031 30.3193359,35.234375 26.9892578,35.234375 Z M34.7919922,35 L34.7919922,20.9082031 L37.1943359,20.9082031 L37.1943359,26.4257812 L37.2431641,26.4257812 C37.7998047,25.1660156 38.9423828,24.453125 40.5146484,24.453125 C42.7998047,24.453125 44.1376953,25.9570312 44.1376953,28.3300781 L44.1376953,35 L41.7060547,35 L41.7060547,28.828125 C41.7060547,27.3828125 40.9833984,26.5136719 39.5771484,26.5136719 C38.1123047,26.5136719 37.2236328,27.5292969 37.2236328,29.0527344 L37.2236328,35 L34.7919922,35 Z M46.0810547,35 L46.0810547,24.6484375 L48.4150391,24.6484375 L48.4150391,26.4550781 L48.4638672,26.4550781 C48.8154297,25.1953125 49.7236328,24.4726562 50.9443359,24.4726562 C51.2568359,24.4726562 51.5302734,24.53125 51.7060547,24.5703125 L51.7060547,26.7675781 C51.5009766,26.6894531 51.1298828,26.6308594 50.7197266,26.6308594 C49.3427734,26.6308594 48.5126953,27.5195312 48.5126953,28.9746094 L48.5126953,35 L46.0810547,35 Z M57.5361328,35.2050781 C54.4990234,35.2050781 52.5263672,33.1835938 52.5263672,29.8242188 C52.5263672,26.484375 54.5185547,24.4335938 57.5361328,24.4335938 C60.5537109,24.4335938 62.5458984,26.4746094 62.5458984,29.8242188 C62.5458984,33.1835938 60.5732422,35.2050781 57.5361328,35.2050781 Z M57.5361328,33.28125 C59.0791016,33.28125 60.0751953,32.03125 60.0751953,29.8242188 C60.0751953,27.6269531 59.0791016,26.3671875 57.5361328,26.3671875 C56.0029297,26.3671875 54.9970703,27.6269531 54.9970703,29.8242188 C54.9970703,32.03125 55.9931641,33.28125 57.5361328,33.28125 Z M64.1083984,35 L64.1083984,24.6484375 L66.4423828,24.6484375 L66.4423828,26.4257812 L66.4912109,26.4257812 C67.0478516,25.1953125 68.1513672,24.453125 69.7431641,24.453125 C72.0283203,24.453125 73.3271484,25.9179688 73.3271484,28.3105469 L73.3271484,35 L70.8955078,35 L70.8955078,28.7988281 C70.8955078,27.3339844 70.2119141,26.5136719 68.8251953,26.5136719 C67.4287109,26.5136719 66.5400391,27.5195312 66.5400391,29.0039062 L66.5400391,35 L64.1083984,35 Z M75.3291016,35 L75.3291016,24.6484375 L77.7607422,24.6484375 L77.7607422,35 L75.3291016,35 Z M76.5400391,23.2910156 C75.7880859,23.2910156 75.1923828,22.7050781 75.1923828,21.9726562 C75.1923828,21.2304688 75.7880859,20.6445312 76.5400391,20.6445312 C77.3017578,20.6445312 77.8974609,21.2304688 77.8974609,21.9726562 C77.8974609,22.7050781 77.3017578,23.2910156 76.5400391,23.2910156 Z M88.9228516,28.3398438 L86.6279297,28.3398438 C86.4326172,27.2363281 85.6611328,26.40625 84.3623047,26.40625 C82.8291016,26.40625 81.8427734,27.6953125 81.8427734,29.8242188 C81.8427734,31.9921875 82.8388672,33.2421875 84.3818359,33.2421875 C85.6123047,33.2421875 86.4130859,32.5390625 86.6376953,31.3671875 L88.9326172,31.3671875 C88.7373047,33.6816406 86.9501953,35.2050781 84.3525391,35.2050781 C81.3251953,35.2050781 79.3720703,33.1835938 79.3720703,29.8242188 C79.3720703,26.5136719 81.3251953,24.4335938 84.3330078,24.4335938 C87.0673828,24.4335938 88.7568359,26.1621094 88.9228516,28.3398438 Z M106.510742,35 L104.000977,35 L104.000977,28.8867188 L97.1455078,28.8867188 L97.1455078,35 L94.6259766,35 L94.6259766,20.9082031 L97.1455078,20.9082031 L97.1455078,26.7675781 L104.000977,26.7675781 L104.000977,20.9082031 L106.510742,20.9082031 L106.510742,35 Z M114.899414,35 L108.991211,35 L108.991211,20.9082031 L114.84082,20.9082031 C117.399414,20.9082031 119.049805,22.2851562 119.049805,24.4238281 C119.049805,25.9375 117.926758,27.2558594 116.481445,27.4902344 L116.481445,27.5683594 C118.395508,27.7539062 119.733398,29.1308594 119.733398,30.9960938 C119.733398,33.4765625 117.907227,35 114.899414,35 Z M111.510742,22.8710938 L111.510742,26.8457031 L113.81543,26.8457031 C115.573242,26.8457031 116.55957,26.1035156 116.55957,24.7949219 C116.55957,23.5644531 115.709961,22.8710938 114.206055,22.8710938 L111.510742,22.8710938 Z M111.510742,33.0371094 L114.323242,33.0371094 C116.178711,33.0371094 117.165039,32.265625 117.165039,30.8203125 C117.165039,29.3847656 116.149414,28.6328125 114.21582,28.6328125 L111.510742,28.6328125 L111.510742,33.0371094 Z M128.34668,35 L125.456055,35 L120.553711,20.9082031 L123.327148,20.9082031 L126.901367,32.2949219 L126.959961,32.2949219 L130.53418,20.9082031 L133.249023,20.9082031 L128.34668,35 Z M139.323242,29.4628906 C139.323242,26.0351562 140.22168,23.2910156 142.174805,20.9082031 L144.362305,20.9082031 C142.936523,22.5683594 141.823242,26.2207031 141.823242,29.453125 C141.823242,32.6855469 142.946289,36.3476562 144.362305,38.0175781 L142.174805,38.0175781 C140.22168,35.625 139.323242,32.8710938 139.323242,29.4628906 Z M157.848633,35 L155.338867,35 L155.338867,28.8867188 L148.483398,28.8867188 L148.483398,35 L145.963867,35 L145.963867,20.9082031 L148.483398,20.9082031 L148.483398,26.7675781 L155.338867,26.7675781 L155.338867,20.9082031 L157.848633,20.9082031 L157.848633,35 Z M166.237305,35 L160.329102,35 L160.329102,20.9082031 L166.178711,20.9082031 C168.737305,20.9082031 170.387695,22.2851562 170.387695,24.4238281 C170.387695,25.9375 169.264648,27.2558594 167.819336,27.4902344 L167.819336,27.5683594 C169.733398,27.7539062 171.071289,29.1308594 171.071289,30.9960938 C171.071289,33.4765625 169.245117,35 166.237305,35 Z M162.848633,22.8710938 L162.848633,26.8457031 L165.15332,26.8457031 C166.911133,26.8457031 167.897461,26.1035156 167.897461,24.7949219 C167.897461,23.5644531 167.047852,22.8710938 165.543945,22.8710938 L162.848633,22.8710938 Z M162.848633,33.0371094 L165.661133,33.0371094 C167.516602,33.0371094 168.50293,32.265625 168.50293,30.8203125 C168.50293,29.3847656 167.487305,28.6328125 165.553711,28.6328125 L162.848633,28.6328125 L162.848633,33.0371094 Z M172.438477,27.6171875 C172.438477,25.7226562 174.108398,24.4335938 176.62793,24.4335938 C179.05957,24.4335938 180.709961,25.7421875 180.768555,27.65625 L178.50293,27.65625 C178.424805,26.7675781 177.711914,26.2207031 176.579102,26.2207031 C175.504883,26.2207031 174.801758,26.7285156 174.801758,27.4804688 C174.801758,28.0664062 175.270508,28.4570312 176.286133,28.7011719 L178.131836,29.1113281 C180.202148,29.5996094 181.012695,30.4003906 181.012695,31.9335938 C181.012695,33.8867188 179.206055,35.2050781 176.588867,35.2050781 C173.991211,35.2050781 172.34082,33.9160156 172.174805,31.953125 L174.567383,31.953125 C174.713867,32.9003906 175.446289,33.4277344 176.676758,33.4277344 C177.858398,33.4277344 178.59082,32.9492188 178.59082,32.1777344 C178.59082,31.5722656 178.209961,31.25 177.204102,30.9960938 L175.319336,30.5566406 C173.405273,30.1074219 172.438477,29.1113281 172.438477,27.6171875 Z M192.018555,35 L190.817383,31.3574219 L185.631836,31.3574219 L184.430664,35 L181.833008,35 L186.833008,20.9082031 L189.674805,20.9082031 L194.674805,35 L192.018555,35 Z M188.19043,23.3984375 L186.217773,29.4140625 L190.22168,29.4140625 L188.258789,23.3984375 L188.19043,23.3984375 Z M200.504883,33.0761719 C202.057617,33.0761719 203.063477,31.8164062 203.063477,29.7949219 C203.063477,27.7832031 202.057617,26.4746094 200.504883,26.4746094 C198.97168,26.4746094 197.995117,27.7636719 197.995117,29.7949219 C197.995117,31.8457031 198.97168,33.0761719 200.504883,33.0761719 Z M200.495117,38.90625 C197.936523,38.90625 196.100586,37.5976562 195.856445,35.78125 L198.268555,35.78125 C198.532227,36.5722656 199.420898,37.109375 200.573242,37.109375 C202.155273,37.109375 203.063477,36.2207031 203.063477,34.9023438 L203.063477,33.1542969 L203.004883,33.1542969 C202.467773,34.2675781 201.24707,35.0097656 199.762695,35.0097656 C197.204102,35.0097656 195.504883,33.0078125 195.504883,29.7851562 C195.504883,26.5136719 197.165039,24.4726562 199.811523,24.4726562 C201.286133,24.4726562 202.477539,25.234375 203.073242,26.4257812 L203.112305,26.4257812 L203.112305,24.6484375 L205.495117,24.6484375 L205.495117,34.8339844 C205.495117,37.3046875 203.512695,38.90625 200.495117,38.90625 Z M213.893555,30.46875 L213.893555,34.8046875 L211.696289,34.8046875 L211.696289,30.46875 L207.643555,30.46875 L207.643555,28.3007812 L211.696289,28.3007812 L211.696289,24.0332031 L213.893555,24.0332031 L213.893555,28.3007812 L217.956055,28.3007812 L217.956055,30.46875 L213.893555,30.46875 Z M224.518555,29.4628906 C224.518555,33.59375 223.219727,36.1328125 221.666992,38.0175781 L219.479492,38.0175781 C220.53418,36.7675781 222.018555,33.5253906 222.018555,29.453125 C222.018555,25.3808594 220.53418,22.1386719 219.479492,20.9082031 L221.666992,20.9082031 C223.209961,22.7832031 224.518555,25.3125 224.518555,29.4628906 Z M55.5097656,49.8046875 L52.6289062,60 L50.2558594,60 L46.4765625,45.9082031 L49.09375,45.9082031 L51.5351562,56.5820312 L51.6132812,56.5820312 L54.4453125,45.9082031 L56.671875,45.9082031 L59.5039062,56.5820312 L59.5820312,56.5820312 L62.0234375,45.9082031 L64.640625,45.9082031 L60.8613281,60 L58.4882812,60 L55.6074219,49.8046875 L55.5097656,49.8046875 Z M66.1152344,60 L66.1152344,49.6484375 L68.546875,49.6484375 L68.546875,60 L66.1152344,60 Z M67.3261719,48.2910156 C66.5742188,48.2910156 65.9785156,47.7050781 65.9785156,46.9726562 C65.9785156,46.2304688 66.5742188,45.6445312 67.3261719,45.6445312 C68.0878906,45.6445312 68.6835938,46.2304688 68.6835938,46.9726562 C68.6835938,47.7050781 68.0878906,48.2910156 67.3261719,48.2910156 Z M71.2617188,47.2265625 L73.6933594,47.2265625 L73.6933594,49.6484375 L75.6464844,49.6484375 L75.6464844,51.5234375 L73.6933594,51.5234375 L73.6933594,56.9042969 C73.6933594,57.7539062 74.0839844,58.1445312 74.9433594,58.1445312 C75.1679688,58.1445312 75.4804688,58.125 75.6367188,58.0957031 L75.6367188,59.9511719 C75.3730469,60.0097656 74.8945312,60.0488281 74.3769531,60.0488281 C72.140625,60.0488281 71.2617188,59.2578125 71.2617188,57.2460938 L71.2617188,51.5234375 L69.7773438,51.5234375 L69.7773438,49.6484375 L71.2617188,49.6484375 L71.2617188,47.2265625 Z M77.3652344,60 L77.3652344,45.9082031 L79.7675781,45.9082031 L79.7675781,51.4257812 L79.8164062,51.4257812 C80.3730469,50.1660156 81.515625,49.453125 83.0878906,49.453125 C85.3730469,49.453125 86.7109375,50.9570312 86.7109375,53.3300781 L86.7109375,60 L84.2792969,60 L84.2792969,53.828125 C84.2792969,52.3828125 83.5566406,51.5136719 82.1503906,51.5136719 C80.6855469,51.5136719 79.796875,52.5292969 79.796875,54.0527344 L79.796875,60 L77.3652344,60 Z M93.234375,60.2050781 C90.1972656,60.2050781 88.2246094,58.1835938 88.2246094,54.8242188 C88.2246094,51.484375 90.2167969,49.4335938 93.234375,49.4335938 C96.2519531,49.4335938 98.2441406,51.4746094 98.2441406,54.8242188 C98.2441406,58.1835938 96.2714844,60.2050781 93.234375,60.2050781 Z M93.234375,58.28125 C94.7773438,58.28125 95.7734375,57.03125 95.7734375,54.8242188 C95.7734375,52.6269531 94.7773438,51.3671875 93.234375,51.3671875 C91.7011719,51.3671875 90.6953125,52.6269531 90.6953125,54.8242188 C90.6953125,57.03125 91.6914062,58.28125 93.234375,58.28125 Z M108.986328,49.6484375 L108.986328,60 L106.642578,60 L106.642578,58.203125 L106.59375,58.203125 C106.046875,59.4628906 105.001953,60.1855469 103.429688,60.1855469 C101.183594,60.1855469 99.7578125,58.7304688 99.7578125,56.3378906 L99.7578125,49.6484375 L102.189453,49.6484375 L102.189453,55.8496094 C102.189453,57.3339844 102.912109,58.1347656 104.279297,58.1347656 C105.685547,58.1347656 106.554688,57.1386719 106.554688,55.6347656 L106.554688,49.6484375 L108.986328,49.6484375 Z M111.642578,47.2265625 L114.074219,47.2265625 L114.074219,49.6484375 L116.027344,49.6484375 L116.027344,51.5234375 L114.074219,51.5234375 L114.074219,56.9042969 C114.074219,57.7539062 114.464844,58.1445312 115.324219,58.1445312 C115.548828,58.1445312 115.861328,58.125 116.017578,58.0957031 L116.017578,59.9511719 C115.753906,60.0097656 115.275391,60.0488281 114.757812,60.0488281 C112.521484,60.0488281 111.642578,59.2578125 111.642578,57.2460938 L111.642578,51.5234375 L110.158203,51.5234375 L110.158203,49.6484375 L111.642578,49.6484375 L111.642578,47.2265625 Z M128,60.234375 C123.976562,60.234375 121.447266,57.4707031 121.447266,52.9492188 C121.447266,48.4570312 123.996094,45.6738281 128,45.6738281 C131.271484,45.6738281 133.761719,47.7148438 134.074219,50.7421875 L131.59375,50.7421875 C131.261719,48.9746094 129.826172,47.8125 128,47.8125 C125.578125,47.8125 124.025391,49.8046875 124.025391,52.9492188 C124.025391,56.1132812 125.568359,58.0957031 128.009766,58.0957031 C129.875,58.0957031 131.212891,57.0898438 131.603516,55.390625 L134.074219,55.390625 C133.634766,58.4082031 131.330078,60.234375 128,60.234375 Z M135.792969,60 L135.792969,49.6484375 L138.224609,49.6484375 L138.224609,60 L135.792969,60 Z M137.003906,48.2910156 C136.251953,48.2910156 135.65625,47.7050781 135.65625,46.9726562 C135.65625,46.2304688 136.251953,45.6445312 137.003906,45.6445312 C137.765625,45.6445312 138.361328,46.2304688 138.361328,46.9726562 C138.361328,47.7050781 137.765625,48.2910156 137.003906,48.2910156 Z M140.265625,60 L140.265625,49.6484375 L142.599609,49.6484375 L142.599609,51.4550781 L142.648438,51.4550781 C143,50.1953125 143.908203,49.4726562 145.128906,49.4726562 C145.441406,49.4726562 145.714844,49.53125 145.890625,49.5703125 L145.890625,51.7675781 C145.685547,51.6894531 145.314453,51.6308594 144.904297,51.6308594 C143.527344,51.6308594 142.697266,52.5195312 142.697266,53.9746094 L142.697266,60 L140.265625,60 Z M147.140625,60 L147.140625,49.6484375 L149.474609,49.6484375 L149.474609,51.4550781 L149.523438,51.4550781 C149.875,50.1953125 150.783203,49.4726562 152.003906,49.4726562 C152.316406,49.4726562 152.589844,49.53125 152.765625,49.5703125 L152.765625,51.7675781 C152.560547,51.6894531 152.189453,51.6308594 151.779297,51.6308594 C150.402344,51.6308594 149.572266,52.5195312 149.572266,53.9746094 L149.572266,60 L147.140625,60 Z M154.083984,60 L154.083984,45.9082031 L156.486328,45.9082031 L156.486328,51.4257812 L156.535156,51.4257812 C157.091797,50.1660156 158.234375,49.453125 159.806641,49.453125 C162.091797,49.453125 163.429688,50.9570312 163.429688,53.3300781 L163.429688,60 L160.998047,60 L160.998047,53.828125 C160.998047,52.3828125 160.275391,51.5136719 158.869141,51.5136719 C157.404297,51.5136719 156.515625,52.5292969 156.515625,54.0527344 L156.515625,60 L154.083984,60 Z M169.953125,60.2050781 C166.916016,60.2050781 164.943359,58.1835938 164.943359,54.8242188 C164.943359,51.484375 166.935547,49.4335938 169.953125,49.4335938 C172.970703,49.4335938 174.962891,51.4746094 174.962891,54.8242188 C174.962891,58.1835938 172.990234,60.2050781 169.953125,60.2050781 Z M169.953125,58.28125 C171.496094,58.28125 172.492188,57.03125 172.492188,54.8242188 C172.492188,52.6269531 171.496094,51.3671875 169.953125,51.3671875 C168.419922,51.3671875 167.414062,52.6269531 167.414062,54.8242188 C167.414062,57.03125 168.410156,58.28125 169.953125,58.28125 Z M176.339844,52.6171875 C176.339844,50.7226562 178.009766,49.4335938 180.529297,49.4335938 C182.960938,49.4335938 184.611328,50.7421875 184.669922,52.65625 L182.404297,52.65625 C182.326172,51.7675781 181.613281,51.2207031 180.480469,51.2207031 C179.40625,51.2207031 178.703125,51.7285156 178.703125,52.4804688 C178.703125,53.0664062 179.171875,53.4570312 180.1875,53.7011719 L182.033203,54.1113281 C184.103516,54.5996094 184.914062,55.4003906 184.914062,56.9335938 C184.914062,58.8867188 183.107422,60.2050781 180.490234,60.2050781 C177.892578,60.2050781 176.242188,58.9160156 176.076172,56.953125 L178.46875,56.953125 C178.615234,57.9003906 179.347656,58.4277344 180.578125,58.4277344 C181.759766,58.4277344 182.492188,57.9492188 182.492188,57.1777344 C182.492188,56.5722656 182.111328,56.25 181.105469,55.9960938 L179.220703,55.5566406 C177.306641,55.1074219 176.339844,54.1113281 176.339844,52.6171875 Z M186.525391,60 L186.525391,49.6484375 L188.957031,49.6484375 L188.957031,60 L186.525391,60 Z M187.736328,48.2910156 C186.984375,48.2910156 186.388672,47.7050781 186.388672,46.9726562 C186.388672,46.2304688 186.984375,45.6445312 187.736328,45.6445312 C188.498047,45.6445312 189.09375,46.2304688 189.09375,46.9726562 C189.09375,47.7050781 188.498047,48.2910156 187.736328,48.2910156 Z M190.8125,52.6171875 C190.8125,50.7226562 192.482422,49.4335938 195.001953,49.4335938 C197.433594,49.4335938 199.083984,50.7421875 199.142578,52.65625 L196.876953,52.65625 C196.798828,51.7675781 196.085938,51.2207031 194.953125,51.2207031 C193.878906,51.2207031 193.175781,51.7285156 193.175781,52.4804688 C193.175781,53.0664062 193.644531,53.4570312 194.660156,53.7011719 L196.505859,54.1113281 C198.576172,54.5996094 199.386719,55.4003906 199.386719,56.9335938 C199.386719,58.8867188 197.580078,60.2050781 194.962891,60.2050781 C192.365234,60.2050781 190.714844,58.9160156 190.548828,56.953125 L192.941406,56.953125 C193.087891,57.9003906 193.820312,58.4277344 195.050781,58.4277344 C196.232422,58.4277344 196.964844,57.9492188 196.964844,57.1777344 C196.964844,56.5722656 196.583984,56.25 195.578125,55.9960938 L193.693359,55.5566406 C191.779297,55.1074219 190.8125,54.1113281 190.8125,52.6171875 Z" id="path-7"></path>
    </defs>
    <g id="Page-1" stroke="none" stroke-width="1" fill="none" fill-rule="evenodd">
        <g id="eAg--Normal" transform="translate(-366.000000, -417.000000)" fill-rule="nonzero">
            <g id="Box-7" transform="translate(721.000000, 917.000000)">
                <rect id="Rectangle" fill="#2B818E" x="0" y="0" width="246" height="233"></rect>
                <g id="DoNOTTreatMonitorALT,DNAevery3mox1yr,thenevery6mo">
                    <use fill="#212121" xlink:href="#path-1"></use>
                    <use fill="#FFFFFF" xlink:href="#path-1"></use>
                </g>
            </g>
            <g id="Box-6" transform="translate(366.000000, 917.000000)">
                <rect id="Rectangle" fill="#2B818E" x="0" y="0" width="246" height="233"></rect>
                <g id="DoNOTTreatMonitorALT,DNAevery3-6moMonitorHBsAgevery12mo" fill="#FFFFFF">
                    <use xlink:href="#path-2"></use>
                    <use xlink:href="#path-2"></use>
                </g>
            </g>
            <g id="Box-5" transform="translate(721.000000, 796.000000)">
                <rect id="Rectangle" fill="#1D1F20" x="0" y="0" width="246" height="81"></rect>
                <g id="HBVDNA2,000">
                    <use fill="#212121" xlink:href="#path-3"></use>
                    <use fill="#C8CDE5" xlink:href="#path-3"></use>
                </g>
                <path id="Line" d="M121.5,101.625 L121.5,82.5 L121.5,81 L124.5,81 L124.5,82.5 L124.5,101.625 L132.5,101.625 L123,120.625 L113.5,101.625 L121.5,101.625 Z" fill="#BFD9DD"></path>
            </g>
            <g id="Box-4" transform="translate(366.000000, 796.000000)">
                <rect id="Rectangle" fill="#1D1F20" x="0" y="0" width="246" height="81"></rect>
                <g id="HBVDNA&lt;2,000">
                    <use fill="#212121" xlink:href="#path-4"></use>
                    <use fill="#C8CDE5" xlink:href="#path-4"></use>
                </g>
                <path id="Line" d="M121.5,101.625 L121.5,82.5 L121.5,81 L124.5,81 L124.5,82.5 L124.5,101.625 L132.5,101.625 L123,120.625 L113.5,101.625 L121.5,101.625 Z" fill="#BFD9DD"></path>
            </g>
            <g id="Box-3" transform="translate(487.000000, 659.000000)">
                <rect id="Rectangle" fill="#1D1F20" x="57" y="0" width="246" height="81"></rect>
                <g id="NORMALALT*">
                    <use fill="#212121" xlink:href="#path-5"></use>
                    <use fill="#C8CDE5" xlink:href="#path-5"></use>
                </g>
                <path id="Line" d="M12.6868309,122.691849 L54.9393398,80.4393398 L56,79.3786797 L58.1213203,81.5 L57.0606602,82.5606602 L14.8081512,124.813169 L20.4650055,130.470023 L0.312462234,137.187538 L7.02997666,117.034995 L12.6868309,122.691849 Z" fill="#BFD9DD"></path>
                <path id="Line-Copy" d="M345.18897,124.81029 L302.93934,82.5606602 L301.87868,81.5 L304,79.3786797 L305.06066,80.4393398 L347.31029,122.68897 L352.967145,117.032116 L359.684659,137.184659 L339.532116,130.467145 L345.18897,124.81029 Z" fill="#BFD9DD"></path>
            </g>
            <g id="Box-2" transform="translate(544.000000, 538.000000)">
                <rect id="Rectangle" fill="#1D1F20" x="0" y="0" width="246" height="81"></rect>
                <g id="e-AntigenNegative(HBeAg-)">
                    <use fill="#212121" xlink:href="#path-6"></use>
                    <use fill="#C8CDE5" xlink:href="#path-6"></use>
                </g>
                <path id="Line" d="M121.5,101.625 L121.5,82.5 L121.5,81 L124.5,81 L124.5,82.5 L124.5,101.625 L132.5,101.625 L123,120.625 L113.5,101.625 L121.5,101.625 Z" fill="#BFD9DD"></path>
            </g>
            <g id="Box-1" transform="translate(544.000000, 417.000000)">
                <rect id="Rectangle" fill="#1D1F20" x="0" y="0" width="246" height="81"></rect>
                <g id="ChronicHBV(HBsAg+)WithoutCirrhosis">
                    <use fill="#212121" xlink:href="#path-7"></use>
                    <use fill="#C8CDE5" xlink:href="#path-7"></use>
                </g>
                <path id="Line" d="M121.5,101.625 L121.5,82.5 L121.5,81 L124.5,81 L124.5,82.5 L124.5,101.625 L132.5,101.625 L123,120.625 L113.5,101.625 L121.5,101.625 Z" fill="#2B818E" opacity="0.295665923"></path>
            </g>
        </g>
    </g>
</svg>