
<svg width="601px" height="733px" viewBox="0 0 601 733" version="1.1" xmlns="http://www.w3.org/2000/svg" xmlns:xlink="http://www.w3.org/1999/xlink">
    <defs>
        <path d="M68.234375,34.9082031 L73.9570312,34.9082031 C78.2148438,34.9082031 80.7148438,37.3789062 80.7148438,41.8710938 C80.7148438,46.3730469 78.2050781,49 73.9570312,49 L68.234375,49 L68.234375,34.9082031 Z M71.8183594,37.7988281 L71.8183594,46.109375 L73.4882812,46.109375 C75.8222656,46.109375 77.0722656,44.6933594 77.0722656,41.8808594 C77.0722656,39.234375 75.7539062,37.7988281 73.4882812,37.7988281 L71.8183594,37.7988281 Z M87.3359375,49.2539062 C83.9863281,49.2539062 81.8964844,47.2226562 81.8964844,43.6777344 C81.8964844,40.2011719 84.0351562,38.1113281 87.3359375,38.1113281 C90.65625,38.1113281 92.7753906,40.1914062 92.7753906,43.6777344 C92.7753906,47.2324219 90.6855469,49.2539062 87.3359375,49.2539062 Z M87.3359375,46.7148438 C88.5175781,46.7148438 89.2695312,45.6308594 89.2695312,43.6875 C89.2695312,41.7734375 88.5175781,40.6503906 87.3359375,40.6503906 C86.1640625,40.6503906 85.4121094,41.7734375 85.4121094,43.6875 C85.4121094,45.6308594 86.1445312,46.7148438 87.3359375,46.7148438 Z M97.9902344,49 L97.9902344,38.3652344 L101.359375,38.3652344 L101.359375,40.3671875 L101.427734,40.3671875 C101.974609,38.9511719 103.087891,38.1601562 104.71875,38.1601562 C107.091797,38.1601562 108.410156,39.6445312 108.410156,42.1738281 L108.410156,49 L104.953125,49 L104.953125,42.9160156 C104.953125,41.7050781 104.376953,40.9824219 103.244141,40.9824219 C102.140625,40.9824219 101.457031,41.8125 101.457031,42.984375 L101.457031,49 L97.9902344,49 Z M115.148438,49.2539062 C111.798828,49.2539062 109.708984,47.2226562 109.708984,43.6777344 C109.708984,40.2011719 111.847656,38.1113281 115.148438,38.1113281 C118.46875,38.1113281 120.587891,40.1914062 120.587891,43.6777344 C120.587891,47.2324219 118.498047,49.2539062 115.148438,49.2539062 Z M115.148438,46.7148438 C116.330078,46.7148438 117.082031,45.6308594 117.082031,43.6875 C117.082031,41.7734375 116.330078,40.6503906 115.148438,40.6503906 C113.976562,40.6503906 113.224609,41.7734375 113.224609,43.6875 C113.224609,45.6308594 113.957031,46.7148438 115.148438,46.7148438 Z M122.794922,35.9824219 L126.261719,35.9824219 L126.261719,38.3652344 L128.175781,38.3652344 L128.175781,40.9140625 L126.261719,40.9140625 L126.261719,45.3769531 C126.261719,46.109375 126.652344,46.4804688 127.482422,46.4804688 C127.755859,46.4804688 127.960938,46.4707031 128.166016,46.4316406 L128.166016,48.8925781 C127.833984,48.9609375 127.326172,49.0195312 126.652344,49.0195312 C123.888672,49.0195312 122.794922,48.1699219 122.794922,46.0800781 L122.794922,40.9140625 L121.349609,40.9140625 L121.349609,38.3652344 L122.794922,38.3652344 L122.794922,35.9824219 Z M134.347656,35.9824219 L137.814453,35.9824219 L137.814453,38.3652344 L139.728516,38.3652344 L139.728516,40.9140625 L137.814453,40.9140625 L137.814453,45.3769531 C137.814453,46.109375 138.205078,46.4804688 139.035156,46.4804688 C139.308594,46.4804688 139.513672,46.4707031 139.71875,46.4316406 L139.71875,48.8925781 C139.386719,48.9609375 138.878906,49.0195312 138.205078,49.0195312 C135.441406,49.0195312 134.347656,48.1699219 134.347656,46.0800781 L134.347656,40.9140625 L132.902344,40.9140625 L132.902344,38.3652344 L134.347656,38.3652344 L134.347656,35.9824219 Z M141.154297,49 L141.154297,38.3652344 L144.523438,38.3652344 L144.523438,40.3769531 L144.591797,40.3769531 C144.982422,38.9414062 145.841797,38.2089844 147.091797,38.2089844 C147.443359,38.2089844 147.736328,38.2578125 147.970703,38.3457031 L147.970703,41.2949219 C147.677734,41.1777344 147.277344,41.0996094 146.867188,41.0996094 C145.412109,41.0996094 144.621094,41.9199219 144.621094,43.4042969 L144.621094,49 L141.154297,49 Z M154.044922,40.5722656 C152.980469,40.5722656 152.189453,41.3632812 152.101562,42.4667969 L155.96875,42.4667969 C155.910156,41.3339844 155.138672,40.5722656 154.044922,40.5722656 Z M156.046875,45.640625 L159.171875,45.640625 C158.839844,47.8378906 156.886719,49.2539062 154.103516,49.2539062 C150.714844,49.2539062 148.693359,47.1738281 148.693359,43.7363281 C148.693359,40.2988281 150.734375,38.1113281 153.986328,38.1113281 C157.189453,38.1113281 159.230469,40.2109375 159.230469,43.4628906 L159.230469,44.4394531 L152.052734,44.4394531 L152.052734,44.6542969 C152.052734,45.9238281 152.902344,46.8027344 154.152344,46.8027344 C155.080078,46.8027344 155.802734,46.3632812 156.046875,45.640625 Z M164.972656,46.7734375 C166.027344,46.7734375 166.945312,46.1289062 166.945312,45.1816406 L166.945312,44.4492188 L165.011719,44.5761719 C164.103516,44.6445312 163.595703,45.0644531 163.595703,45.6894531 C163.595703,46.3632812 164.152344,46.7734375 164.972656,46.7734375 Z M163.742188,49.15625 C161.769531,49.15625 160.167969,47.8476562 160.167969,45.9238281 C160.167969,43.9316406 161.701172,42.8183594 164.455078,42.6523438 L166.945312,42.5058594 L166.945312,41.9003906 C166.945312,41.0507812 166.339844,40.5820312 165.431641,40.5820312 C164.494141,40.5820312 163.898438,41.0703125 163.800781,41.7246094 L160.685547,41.7246094 C160.783203,39.546875 162.638672,38.1113281 165.607422,38.1113281 C168.449219,38.1113281 170.333984,39.5664062 170.333984,41.7050781 L170.333984,49 L166.964844,49 L166.964844,47.4863281 L166.896484,47.4863281 C166.320312,48.5605469 165.021484,49.15625 163.742188,49.15625 Z M172.853516,35.9824219 L176.320312,35.9824219 L176.320312,38.3652344 L178.234375,38.3652344 L178.234375,40.9140625 L176.320312,40.9140625 L176.320312,45.3769531 C176.320312,46.109375 176.710938,46.4804688 177.541016,46.4804688 C177.814453,46.4804688 178.019531,46.4707031 178.224609,46.4316406 L178.224609,48.8925781 C177.892578,48.9609375 177.384766,49.0195312 176.710938,49.0195312 C173.947266,49.0195312 172.853516,48.1699219 172.853516,46.0800781 L172.853516,40.9140625 L171.408203,40.9140625 L171.408203,38.3652344 L172.853516,38.3652344 L172.853516,35.9824219 Z M59.0986328,99 L56.8330078,99 L56.8330078,89 L56.7646484,89 L52.6923828,98.8828125 L50.9736328,98.8828125 L46.9013672,89 L46.8330078,89 L46.8330078,99 L44.5576172,99 L44.5576172,84.9082031 L47.4775391,84.9082031 L51.7939453,95.5429688 L51.8720703,95.5429688 L56.1884766,84.9082031 L59.0986328,84.9082031 L59.0986328,99 Z M65.9248047,99.2050781 C62.8876953,99.2050781 60.9150391,97.1835938 60.9150391,93.8242188 C60.9150391,90.484375 62.9072266,88.4335938 65.9248047,88.4335938 C68.9423828,88.4335938 70.9345703,90.4746094 70.9345703,93.8242188 C70.9345703,97.1835938 68.9619141,99.2050781 65.9248047,99.2050781 Z M65.9248047,97.28125 C67.4677734,97.28125 68.4638672,96.03125 68.4638672,93.8242188 C68.4638672,91.6269531 67.4677734,90.3671875 65.9248047,90.3671875 C64.3916016,90.3671875 63.3857422,91.6269531 63.3857422,93.8242188 C63.3857422,96.03125 64.3818359,97.28125 65.9248047,97.28125 Z M72.4970703,99 L72.4970703,88.6484375 L74.8310547,88.6484375 L74.8310547,90.4257812 L74.8798828,90.4257812 C75.4365234,89.1953125 76.5400391,88.453125 78.1318359,88.453125 C80.4169922,88.453125 81.7158203,89.9179688 81.7158203,92.3105469 L81.7158203,99 L79.2841797,99 L79.2841797,92.7988281 C79.2841797,91.3339844 78.6005859,90.5136719 77.2138672,90.5136719 C75.8173828,90.5136719 74.9287109,91.5195312 74.9287109,93.0039062 L74.9287109,99 L72.4970703,99 Z M83.7177734,99 L83.7177734,88.6484375 L86.1494141,88.6484375 L86.1494141,99 L83.7177734,99 Z M84.9287109,87.2910156 C84.1767578,87.2910156 83.5810547,86.7050781 83.5810547,85.9726562 C83.5810547,85.2304688 84.1767578,84.6445312 84.9287109,84.6445312 C85.6904297,84.6445312 86.2861328,85.2304688 86.2861328,85.9726562 C86.2861328,86.7050781 85.6904297,87.2910156 84.9287109,87.2910156 Z M88.8642578,86.2265625 L91.2958984,86.2265625 L91.2958984,88.6484375 L93.2490234,88.6484375 L93.2490234,90.5234375 L91.2958984,90.5234375 L91.2958984,95.9042969 C91.2958984,96.7539062 91.6865234,97.1445312 92.5458984,97.1445312 C92.7705078,97.1445312 93.0830078,97.125 93.2392578,97.0957031 L93.2392578,98.9511719 C92.9755859,99.0097656 92.4970703,99.0488281 91.9794922,99.0488281 C89.7431641,99.0488281 88.8642578,98.2578125 88.8642578,96.2460938 L88.8642578,90.5234375 L87.3798828,90.5234375 L87.3798828,88.6484375 L88.8642578,88.6484375 L88.8642578,86.2265625 Z M99.4794922,99.2050781 C96.4423828,99.2050781 94.4697266,97.1835938 94.4697266,93.8242188 C94.4697266,90.484375 96.4619141,88.4335938 99.4794922,88.4335938 C102.49707,88.4335938 104.489258,90.4746094 104.489258,93.8242188 C104.489258,97.1835938 102.516602,99.2050781 99.4794922,99.2050781 Z M99.4794922,97.28125 C101.022461,97.28125 102.018555,96.03125 102.018555,93.8242188 C102.018555,91.6269531 101.022461,90.3671875 99.4794922,90.3671875 C97.9462891,90.3671875 96.9404297,91.6269531 96.9404297,93.8242188 C96.9404297,96.03125 97.9365234,97.28125 99.4794922,97.28125 Z M106.051758,99 L106.051758,88.6484375 L108.385742,88.6484375 L108.385742,90.4550781 L108.43457,90.4550781 C108.786133,89.1953125 109.694336,88.4726562 110.915039,88.4726562 C111.227539,88.4726562 111.500977,88.53125 111.676758,88.5703125 L111.676758,90.7675781 C111.47168,90.6894531 111.100586,90.6308594 110.69043,90.6308594 C109.313477,90.6308594 108.483398,91.5195312 108.483398,92.9746094 L108.483398,99 L106.051758,99 Z M126.383789,99 L125.182617,95.3574219 L119.99707,95.3574219 L118.795898,99 L116.198242,99 L121.198242,84.9082031 L124.040039,84.9082031 L129.040039,99 L126.383789,99 Z M122.555664,87.3984375 L120.583008,93.4140625 L124.586914,93.4140625 L122.624023,87.3984375 L122.555664,87.3984375 Z M139.459961,96.8710938 L139.459961,99 L130.543945,99 L130.543945,84.9082031 L133.063477,84.9082031 L133.063477,96.8710938 L139.459961,96.8710938 Z M147.223633,99 L144.713867,99 L144.713867,87.0371094 L140.495117,87.0371094 L140.495117,84.9082031 L151.432617,84.9082031 L151.432617,87.0371094 L147.223633,87.0371094 L147.223633,99 Z M154.655273,101.978516 L152.790039,101.978516 L153.600586,96.6757812 L155.973633,96.6757812 L154.655273,101.978516 Z M162.536133,84.9082031 L167.682617,84.9082031 C171.891602,84.9082031 174.381836,87.4570312 174.381836,91.9199219 C174.381836,96.3828125 171.901367,99 167.682617,99 L162.536133,99 L162.536133,84.9082031 Z M165.055664,87.0371094 L165.055664,96.8710938 L167.418945,96.8710938 C170.250977,96.8710938 171.813477,95.1425781 171.813477,91.9296875 C171.813477,88.7753906 170.231445,87.0371094 167.418945,87.0371094 L165.055664,87.0371094 Z M178.805664,99 L176.374023,99 L176.374023,84.9082031 L178.561523,84.9082031 L185.553711,94.78125 L185.641602,94.78125 L185.641602,84.9082031 L188.063477,84.9082031 L188.063477,99 L185.895508,99 L178.893555,89.1171875 L178.805664,89.1171875 L178.805664,99 Z M199.762695,99 L198.561523,95.3574219 L193.375977,95.3574219 L192.174805,99 L189.577148,99 L194.577148,84.9082031 L197.418945,84.9082031 L202.418945,99 L199.762695,99 Z M195.93457,87.3984375 L193.961914,93.4140625 L197.96582,93.4140625 L196.00293,87.3984375 L195.93457,87.3984375 Z M70.7099609,115.318359 C69.3427734,115.318359 68.3564453,116.363281 68.2587891,117.808594 L73.0927734,117.808594 C73.0439453,116.34375 72.1064453,115.318359 70.7099609,115.318359 Z M73.1025391,120.904297 L75.3779297,120.904297 C75.0654297,122.857422 73.2490234,124.205078 70.7978516,124.205078 C67.6923828,124.205078 65.8173828,122.164062 65.8173828,118.863281 C65.8173828,115.591797 67.7119141,113.433594 70.7001953,113.433594 C73.6396484,113.433594 75.4755859,115.474609 75.4755859,118.619141 L75.4755859,119.410156 L68.2392578,119.410156 L68.2392578,119.556641 C68.2392578,121.216797 69.2548828,122.330078 70.8466797,122.330078 C71.9794922,122.330078 72.8388672,121.763672 73.1025391,120.904297 Z M86.1494141,113.648438 L82.5068359,124 L79.8310547,124 L76.1591797,113.648438 L78.7568359,113.648438 L81.1591797,121.744141 L81.2080078,121.744141 L83.6103516,113.648438 L86.1494141,113.648438 Z M91.7255859,115.318359 C90.3583984,115.318359 89.3720703,116.363281 89.2744141,117.808594 L94.1083984,117.808594 C94.0595703,116.34375 93.1220703,115.318359 91.7255859,115.318359 Z M94.1181641,120.904297 L96.3935547,120.904297 C96.0810547,122.857422 94.2646484,124.205078 91.8134766,124.205078 C88.7080078,124.205078 86.8330078,122.164062 86.8330078,118.863281 C86.8330078,115.591797 88.7275391,113.433594 91.7158203,113.433594 C94.6552734,113.433594 96.4912109,115.474609 96.4912109,118.619141 L96.4912109,119.410156 L89.2548828,119.410156 L89.2548828,119.556641 C89.2548828,121.216797 90.2705078,122.330078 91.8623047,122.330078 C92.9951172,122.330078 93.8544922,121.763672 94.1181641,120.904297 Z M98.0537109,124 L98.0537109,113.648438 L100.387695,113.648438 L100.387695,115.455078 L100.436523,115.455078 C100.788086,114.195312 101.696289,113.472656 102.916992,113.472656 C103.229492,113.472656 103.50293,113.53125 103.678711,113.570312 L103.678711,115.767578 C103.473633,115.689453 103.102539,115.630859 102.692383,115.630859 C101.31543,115.630859 100.485352,116.519531 100.485352,117.974609 L100.485352,124 L98.0537109,124 Z M106.081055,127.847656 C105.944336,127.847656 105.250977,127.837891 105.124023,127.808594 L105.124023,125.884766 C105.250977,125.914062 105.680664,125.923828 105.827148,125.923828 C106.833008,125.923828 107.350586,125.542969 107.624023,124.585938 C107.624023,124.556641 107.770508,124.039062 107.760742,124.009766 L104.079102,113.648438 L106.735352,113.648438 L109.176758,121.929688 L109.21582,121.929688 L111.657227,113.648438 L114.21582,113.648438 L110.475586,124.410156 C109.586914,126.978516 108.444336,127.847656 106.081055,127.847656 Z M122.975586,124 L122.975586,112.310547 L122.916992,112.310547 L119.274414,114.869141 L119.274414,112.496094 L122.956055,109.908203 L125.446289,109.908203 L125.446289,124 L122.975586,124 Z M135.290039,119.361328 L128.874023,119.361328 L128.874023,117.193359 L135.290039,117.193359 L135.290039,119.361328 Z M140.729492,117.720703 L140.729492,115.826172 L142.428711,115.826172 C143.874023,115.826172 144.860352,114.9375 144.860352,113.677734 C144.860352,112.447266 144.000977,111.626953 142.418945,111.626953 C140.963867,111.626953 139.987305,112.476562 139.889648,113.794922 L137.545898,113.794922 C137.682617,111.265625 139.625977,109.625 142.536133,109.625 C145.30957,109.625 147.282227,111.138672 147.282227,113.335938 C147.282227,115.083984 146.110352,116.34375 144.37207,116.646484 L144.37207,116.705078 C146.481445,116.861328 147.848633,118.150391 147.848633,120.113281 C147.848633,122.603516 145.583008,124.283203 142.506836,124.283203 C139.411133,124.283203 137.399414,122.583984 137.272461,120.074219 L139.674805,120.074219 C139.791992,121.363281 140.84668,122.222656 142.526367,122.222656 C144.147461,122.222656 145.290039,121.314453 145.290039,120.015625 C145.290039,118.589844 144.21582,117.720703 142.467773,117.720703 L140.729492,117.720703 Z M153.766602,124 L153.766602,113.648438 L156.100586,113.648438 L156.100586,115.445312 L156.149414,115.445312 C156.598633,114.244141 157.692383,113.453125 159.098633,113.453125 C160.563477,113.453125 161.608398,114.205078 161.989258,115.533203 L162.047852,115.533203 C162.545898,114.253906 163.776367,113.453125 165.270508,113.453125 C167.311523,113.453125 168.649414,114.830078 168.649414,116.900391 L168.649414,124 L166.217773,124 L166.217773,117.496094 C166.217773,116.226562 165.553711,115.503906 164.362305,115.503906 C163.19043,115.503906 162.389648,116.363281 162.389648,117.603516 L162.389648,124 L160.026367,124 L160.026367,117.369141 C160.026367,116.216797 159.323242,115.503906 158.19043,115.503906 C157.018555,115.503906 156.198242,116.412109 156.198242,117.662109 L156.198242,124 L153.766602,124 Z M175.172852,124.205078 C172.135742,124.205078 170.163086,122.183594 170.163086,118.824219 C170.163086,115.484375 172.155273,113.433594 175.172852,113.433594 C178.19043,113.433594 180.182617,115.474609 180.182617,118.824219 C180.182617,122.183594 178.209961,124.205078 175.172852,124.205078 Z M175.172852,122.28125 C176.71582,122.28125 177.711914,121.03125 177.711914,118.824219 C177.711914,116.626953 176.71582,115.367188 175.172852,115.367188 C173.639648,115.367188 172.633789,116.626953 172.633789,118.824219 C172.633789,121.03125 173.629883,122.28125 175.172852,122.28125 Z M71.1689453,174 L68.9033203,174 L68.9033203,164 L68.8349609,164 L64.7626953,173.882812 L63.0439453,173.882812 L58.9716797,164 L58.9033203,164 L58.9033203,174 L56.6279297,174 L56.6279297,159.908203 L59.5478516,159.908203 L63.8642578,170.542969 L63.9423828,170.542969 L68.2587891,159.908203 L71.1689453,159.908203 L71.1689453,174 Z M77.9951172,174.205078 C74.9580078,174.205078 72.9853516,172.183594 72.9853516,168.824219 C72.9853516,165.484375 74.9775391,163.433594 77.9951172,163.433594 C81.0126953,163.433594 83.0048828,165.474609 83.0048828,168.824219 C83.0048828,172.183594 81.0322266,174.205078 77.9951172,174.205078 Z M77.9951172,172.28125 C79.5380859,172.28125 80.5341797,171.03125 80.5341797,168.824219 C80.5341797,166.626953 79.5380859,165.367188 77.9951172,165.367188 C76.4619141,165.367188 75.4560547,166.626953 75.4560547,168.824219 C75.4560547,171.03125 76.4521484,172.28125 77.9951172,172.28125 Z M84.5673828,174 L84.5673828,163.648438 L86.9013672,163.648438 L86.9013672,165.425781 L86.9501953,165.425781 C87.5068359,164.195312 88.6103516,163.453125 90.2021484,163.453125 C92.4873047,163.453125 93.7861328,164.917969 93.7861328,167.310547 L93.7861328,174 L91.3544922,174 L91.3544922,167.798828 C91.3544922,166.333984 90.6708984,165.513672 89.2841797,165.513672 C87.8876953,165.513672 86.9990234,166.519531 86.9990234,168.003906 L86.9990234,174 L84.5673828,174 Z M95.7880859,174 L95.7880859,163.648438 L98.2197266,163.648438 L98.2197266,174 L95.7880859,174 Z M96.9990234,162.291016 C96.2470703,162.291016 95.6513672,161.705078 95.6513672,160.972656 C95.6513672,160.230469 96.2470703,159.644531 96.9990234,159.644531 C97.7607422,159.644531 98.3564453,160.230469 98.3564453,160.972656 C98.3564453,161.705078 97.7607422,162.291016 96.9990234,162.291016 Z M100.93457,161.226562 L103.366211,161.226562 L103.366211,163.648438 L105.319336,163.648438 L105.319336,165.523438 L103.366211,165.523438 L103.366211,170.904297 C103.366211,171.753906 103.756836,172.144531 104.616211,172.144531 C104.84082,172.144531 105.15332,172.125 105.30957,172.095703 L105.30957,173.951172 C105.045898,174.009766 104.567383,174.048828 104.049805,174.048828 C101.813477,174.048828 100.93457,173.257812 100.93457,171.246094 L100.93457,165.523438 L99.4501953,165.523438 L99.4501953,163.648438 L100.93457,163.648438 L100.93457,161.226562 Z M111.549805,174.205078 C108.512695,174.205078 106.540039,172.183594 106.540039,168.824219 C106.540039,165.484375 108.532227,163.433594 111.549805,163.433594 C114.567383,163.433594 116.55957,165.474609 116.55957,168.824219 C116.55957,172.183594 114.586914,174.205078 111.549805,174.205078 Z M111.549805,172.28125 C113.092773,172.28125 114.088867,171.03125 114.088867,168.824219 C114.088867,166.626953 113.092773,165.367188 111.549805,165.367188 C110.016602,165.367188 109.010742,166.626953 109.010742,168.824219 C109.010742,171.03125 110.006836,172.28125 111.549805,172.28125 Z M118.12207,174 L118.12207,163.648438 L120.456055,163.648438 L120.456055,165.455078 L120.504883,165.455078 C120.856445,164.195312 121.764648,163.472656 122.985352,163.472656 C123.297852,163.472656 123.571289,163.53125 123.74707,163.570312 L123.74707,165.767578 C123.541992,165.689453 123.170898,165.630859 122.760742,165.630859 C121.383789,165.630859 120.553711,166.519531 120.553711,167.974609 L120.553711,174 L118.12207,174 Z M141.129883,174 L138.620117,174 L138.620117,167.886719 L131.764648,167.886719 L131.764648,174 L129.245117,174 L129.245117,159.908203 L131.764648,159.908203 L131.764648,165.767578 L138.620117,165.767578 L138.620117,159.908203 L141.129883,159.908203 L141.129883,174 Z M149.518555,174 L143.610352,174 L143.610352,159.908203 L149.459961,159.908203 C152.018555,159.908203 153.668945,161.285156 153.668945,163.423828 C153.668945,164.9375 152.545898,166.255859 151.100586,166.490234 L151.100586,166.568359 C153.014648,166.753906 154.352539,168.130859 154.352539,169.996094 C154.352539,172.476562 152.526367,174 149.518555,174 Z M146.129883,161.871094 L146.129883,165.845703 L148.43457,165.845703 C150.192383,165.845703 151.178711,165.103516 151.178711,163.794922 C151.178711,162.564453 150.329102,161.871094 148.825195,161.871094 L146.129883,161.871094 Z M146.129883,172.037109 L148.942383,172.037109 C150.797852,172.037109 151.78418,171.265625 151.78418,169.820312 C151.78418,168.384766 150.768555,167.632812 148.834961,167.632812 L146.129883,167.632812 L146.129883,172.037109 Z M160.368164,165.318359 C159.000977,165.318359 158.014648,166.363281 157.916992,167.808594 L162.750977,167.808594 C162.702148,166.34375 161.764648,165.318359 160.368164,165.318359 Z M162.760742,170.904297 L165.036133,170.904297 C164.723633,172.857422 162.907227,174.205078 160.456055,174.205078 C157.350586,174.205078 155.475586,172.164062 155.475586,168.863281 C155.475586,165.591797 157.370117,163.433594 160.358398,163.433594 C163.297852,163.433594 165.133789,165.474609 165.133789,168.619141 L165.133789,169.410156 L157.897461,169.410156 L157.897461,169.556641 C157.897461,171.216797 158.913086,172.330078 160.504883,172.330078 C161.637695,172.330078 162.49707,171.763672 162.760742,170.904297 Z M176.149414,174 L174.948242,170.357422 L169.762695,170.357422 L168.561523,174 L165.963867,174 L170.963867,159.908203 L173.805664,159.908203 L178.805664,174 L176.149414,174 Z M172.321289,162.398438 L170.348633,168.414062 L174.352539,168.414062 L172.389648,162.398438 L172.321289,162.398438 Z M184.635742,172.076172 C186.188477,172.076172 187.194336,170.816406 187.194336,168.794922 C187.194336,166.783203 186.188477,165.474609 184.635742,165.474609 C183.102539,165.474609 182.125977,166.763672 182.125977,168.794922 C182.125977,170.845703 183.102539,172.076172 184.635742,172.076172 Z M184.625977,177.90625 C182.067383,177.90625 180.231445,176.597656 179.987305,174.78125 L182.399414,174.78125 C182.663086,175.572266 183.551758,176.109375 184.704102,176.109375 C186.286133,176.109375 187.194336,175.220703 187.194336,173.902344 L187.194336,172.154297 L187.135742,172.154297 C186.598633,173.267578 185.37793,174.009766 183.893555,174.009766 C181.334961,174.009766 179.635742,172.007812 179.635742,168.785156 C179.635742,165.513672 181.295898,163.472656 183.942383,163.472656 C185.416992,163.472656 186.608398,164.234375 187.204102,165.425781 L187.243164,165.425781 L187.243164,163.648438 L189.625977,163.648438 L189.625977,173.833984 C189.625977,176.304688 187.643555,177.90625 184.625977,177.90625 Z M79.6357422,190.318359 C78.2685547,190.318359 77.2822266,191.363281 77.1845703,192.808594 L82.0185547,192.808594 C81.9697266,191.34375 81.0322266,190.318359 79.6357422,190.318359 Z M82.0283203,195.904297 L84.3037109,195.904297 C83.9912109,197.857422 82.1748047,199.205078 79.7236328,199.205078 C76.6181641,199.205078 74.7431641,197.164062 74.7431641,193.863281 C74.7431641,190.591797 76.6376953,188.433594 79.6259766,188.433594 C82.5654297,188.433594 84.4013672,190.474609 84.4013672,193.619141 L84.4013672,194.410156 L77.1650391,194.410156 L77.1650391,194.556641 C77.1650391,196.216797 78.1806641,197.330078 79.7724609,197.330078 C80.9052734,197.330078 81.7646484,196.763672 82.0283203,195.904297 Z M95.0751953,188.648438 L91.4326172,199 L88.7568359,199 L85.0849609,188.648438 L87.6826172,188.648438 L90.0849609,196.744141 L90.1337891,196.744141 L92.5361328,188.648438 L95.0751953,188.648438 Z M100.651367,190.318359 C99.2841797,190.318359 98.2978516,191.363281 98.2001953,192.808594 L103.03418,192.808594 C102.985352,191.34375 102.047852,190.318359 100.651367,190.318359 Z M103.043945,195.904297 L105.319336,195.904297 C105.006836,197.857422 103.19043,199.205078 100.739258,199.205078 C97.6337891,199.205078 95.7587891,197.164062 95.7587891,193.863281 C95.7587891,190.591797 97.6533203,188.433594 100.641602,188.433594 C103.581055,188.433594 105.416992,190.474609 105.416992,193.619141 L105.416992,194.410156 L98.1806641,194.410156 L98.1806641,194.556641 C98.1806641,196.216797 99.1962891,197.330078 100.788086,197.330078 C101.920898,197.330078 102.780273,196.763672 103.043945,195.904297 Z M106.979492,199 L106.979492,188.648438 L109.313477,188.648438 L109.313477,190.455078 L109.362305,190.455078 C109.713867,189.195312 110.62207,188.472656 111.842773,188.472656 C112.155273,188.472656 112.428711,188.53125 112.604492,188.570312 L112.604492,190.767578 C112.399414,190.689453 112.02832,190.630859 111.618164,190.630859 C110.241211,190.630859 109.411133,191.519531 109.411133,192.974609 L109.411133,199 L106.979492,199 Z M115.006836,202.847656 C114.870117,202.847656 114.176758,202.837891 114.049805,202.808594 L114.049805,200.884766 C114.176758,200.914062 114.606445,200.923828 114.75293,200.923828 C115.758789,200.923828 116.276367,200.542969 116.549805,199.585938 C116.549805,199.556641 116.696289,199.039062 116.686523,199.009766 L113.004883,188.648438 L115.661133,188.648438 L118.102539,196.929688 L118.141602,196.929688 L120.583008,188.648438 L123.141602,188.648438 L119.401367,199.410156 C118.512695,201.978516 117.370117,202.847656 115.006836,202.847656 Z M133.81543,199.292969 C131.764648,199.292969 130.094727,198.296875 129.147461,196.490234 C128.483398,195.337891 128.141602,193.863281 128.141602,192.115234 C128.141602,187.417969 130.319336,184.615234 133.893555,184.615234 C136.47168,184.615234 138.473633,186.148438 138.893555,188.423828 L136.393555,188.423828 C136.071289,187.359375 135.084961,186.666016 133.874023,186.666016 C131.764648,186.666016 130.524414,188.619141 130.543945,192.017578 L130.592773,192.017578 C131.188477,190.640625 132.633789,189.722656 134.411133,189.722656 C137.086914,189.722656 139.079102,191.695312 139.079102,194.371094 C139.079102,197.232422 136.87207,199.292969 133.81543,199.292969 Z M133.795898,197.232422 C135.358398,197.232422 136.598633,196.001953 136.598633,194.449219 C136.598633,192.857422 135.426758,191.695312 133.81543,191.695312 C132.194336,191.695312 130.993164,192.857422 130.993164,194.419922 C130.993164,195.992188 132.223633,197.232422 133.795898,197.232422 Z M144.84082,199 L144.84082,188.648438 L147.174805,188.648438 L147.174805,190.445312 L147.223633,190.445312 C147.672852,189.244141 148.766602,188.453125 150.172852,188.453125 C151.637695,188.453125 152.682617,189.205078 153.063477,190.533203 L153.12207,190.533203 C153.620117,189.253906 154.850586,188.453125 156.344727,188.453125 C158.385742,188.453125 159.723633,189.830078 159.723633,191.900391 L159.723633,199 L157.291992,199 L157.291992,192.496094 C157.291992,191.226562 156.62793,190.503906 155.436523,190.503906 C154.264648,190.503906 153.463867,191.363281 153.463867,192.603516 L153.463867,199 L151.100586,199 L151.100586,192.369141 C151.100586,191.216797 150.397461,190.503906 149.264648,190.503906 C148.092773,190.503906 147.272461,191.412109 147.272461,192.662109 L147.272461,199 L144.84082,199 Z M166.24707,199.205078 C163.209961,199.205078 161.237305,197.183594 161.237305,193.824219 C161.237305,190.484375 163.229492,188.433594 166.24707,188.433594 C169.264648,188.433594 171.256836,190.474609 171.256836,193.824219 C171.256836,197.183594 169.28418,199.205078 166.24707,199.205078 Z M166.24707,197.28125 C167.790039,197.28125 168.786133,196.03125 168.786133,193.824219 C168.786133,191.626953 167.790039,190.367188 166.24707,190.367188 C164.713867,190.367188 163.708008,191.626953 163.708008,193.824219 C163.708008,196.03125 164.704102,197.28125 166.24707,197.28125 Z" id="path-1"></path>
        <path d="M68.234375,84.9082031 L73.9570312,84.9082031 C78.2148438,84.9082031 80.7148438,87.3789062 80.7148438,91.8710938 C80.7148438,96.3730469 78.2050781,99 73.9570312,99 L68.234375,99 L68.234375,84.9082031 Z M71.8183594,87.7988281 L71.8183594,96.109375 L73.4882812,96.109375 C75.8222656,96.109375 77.0722656,94.6933594 77.0722656,91.8808594 C77.0722656,89.234375 75.7539062,87.7988281 73.4882812,87.7988281 L71.8183594,87.7988281 Z M87.3359375,99.2539062 C83.9863281,99.2539062 81.8964844,97.2226562 81.8964844,93.6777344 C81.8964844,90.2011719 84.0351562,88.1113281 87.3359375,88.1113281 C90.65625,88.1113281 92.7753906,90.1914062 92.7753906,93.6777344 C92.7753906,97.2324219 90.6855469,99.2539062 87.3359375,99.2539062 Z M87.3359375,96.7148438 C88.5175781,96.7148438 89.2695312,95.6308594 89.2695312,93.6875 C89.2695312,91.7734375 88.5175781,90.6503906 87.3359375,90.6503906 C86.1640625,90.6503906 85.4121094,91.7734375 85.4121094,93.6875 C85.4121094,95.6308594 86.1445312,96.7148438 87.3359375,96.7148438 Z M97.9902344,99 L97.9902344,88.3652344 L101.359375,88.3652344 L101.359375,90.3671875 L101.427734,90.3671875 C101.974609,88.9511719 103.087891,88.1601562 104.71875,88.1601562 C107.091797,88.1601562 108.410156,89.6445312 108.410156,92.1738281 L108.410156,99 L104.953125,99 L104.953125,92.9160156 C104.953125,91.7050781 104.376953,90.9824219 103.244141,90.9824219 C102.140625,90.9824219 101.457031,91.8125 101.457031,92.984375 L101.457031,99 L97.9902344,99 Z M115.148438,99.2539062 C111.798828,99.2539062 109.708984,97.2226562 109.708984,93.6777344 C109.708984,90.2011719 111.847656,88.1113281 115.148438,88.1113281 C118.46875,88.1113281 120.587891,90.1914062 120.587891,93.6777344 C120.587891,97.2324219 118.498047,99.2539062 115.148438,99.2539062 Z M115.148438,96.7148438 C116.330078,96.7148438 117.082031,95.6308594 117.082031,93.6875 C117.082031,91.7734375 116.330078,90.6503906 115.148438,90.6503906 C113.976562,90.6503906 113.224609,91.7734375 113.224609,93.6875 C113.224609,95.6308594 113.957031,96.7148438 115.148438,96.7148438 Z M122.794922,85.9824219 L126.261719,85.9824219 L126.261719,88.3652344 L128.175781,88.3652344 L128.175781,90.9140625 L126.261719,90.9140625 L126.261719,95.3769531 C126.261719,96.109375 126.652344,96.4804688 127.482422,96.4804688 C127.755859,96.4804688 127.960938,96.4707031 128.166016,96.4316406 L128.166016,98.8925781 C127.833984,98.9609375 127.326172,99.0195312 126.652344,99.0195312 C123.888672,99.0195312 122.794922,98.1699219 122.794922,96.0800781 L122.794922,90.9140625 L121.349609,90.9140625 L121.349609,88.3652344 L122.794922,88.3652344 L122.794922,85.9824219 Z M134.347656,85.9824219 L137.814453,85.9824219 L137.814453,88.3652344 L139.728516,88.3652344 L139.728516,90.9140625 L137.814453,90.9140625 L137.814453,95.3769531 C137.814453,96.109375 138.205078,96.4804688 139.035156,96.4804688 C139.308594,96.4804688 139.513672,96.4707031 139.71875,96.4316406 L139.71875,98.8925781 C139.386719,98.9609375 138.878906,99.0195312 138.205078,99.0195312 C135.441406,99.0195312 134.347656,98.1699219 134.347656,96.0800781 L134.347656,90.9140625 L132.902344,90.9140625 L132.902344,88.3652344 L134.347656,88.3652344 L134.347656,85.9824219 Z M141.154297,99 L141.154297,88.3652344 L144.523438,88.3652344 L144.523438,90.3769531 L144.591797,90.3769531 C144.982422,88.9414062 145.841797,88.2089844 147.091797,88.2089844 C147.443359,88.2089844 147.736328,88.2578125 147.970703,88.3457031 L147.970703,91.2949219 C147.677734,91.1777344 147.277344,91.0996094 146.867188,91.0996094 C145.412109,91.0996094 144.621094,91.9199219 144.621094,93.4042969 L144.621094,99 L141.154297,99 Z M154.044922,90.5722656 C152.980469,90.5722656 152.189453,91.3632812 152.101562,92.4667969 L155.96875,92.4667969 C155.910156,91.3339844 155.138672,90.5722656 154.044922,90.5722656 Z M156.046875,95.640625 L159.171875,95.640625 C158.839844,97.8378906 156.886719,99.2539062 154.103516,99.2539062 C150.714844,99.2539062 148.693359,97.1738281 148.693359,93.7363281 C148.693359,90.2988281 150.734375,88.1113281 153.986328,88.1113281 C157.189453,88.1113281 159.230469,90.2109375 159.230469,93.4628906 L159.230469,94.4394531 L152.052734,94.4394531 L152.052734,94.6542969 C152.052734,95.9238281 152.902344,96.8027344 154.152344,96.8027344 C155.080078,96.8027344 155.802734,96.3632812 156.046875,95.640625 Z M164.972656,96.7734375 C166.027344,96.7734375 166.945312,96.1289062 166.945312,95.1816406 L166.945312,94.4492188 L165.011719,94.5761719 C164.103516,94.6445312 163.595703,95.0644531 163.595703,95.6894531 C163.595703,96.3632812 164.152344,96.7734375 164.972656,96.7734375 Z M163.742188,99.15625 C161.769531,99.15625 160.167969,97.8476562 160.167969,95.9238281 C160.167969,93.9316406 161.701172,92.8183594 164.455078,92.6523438 L166.945312,92.5058594 L166.945312,91.9003906 C166.945312,91.0507812 166.339844,90.5820312 165.431641,90.5820312 C164.494141,90.5820312 163.898438,91.0703125 163.800781,91.7246094 L160.685547,91.7246094 C160.783203,89.546875 162.638672,88.1113281 165.607422,88.1113281 C168.449219,88.1113281 170.333984,89.5664062 170.333984,91.7050781 L170.333984,99 L166.964844,99 L166.964844,97.4863281 L166.896484,97.4863281 C166.320312,98.5605469 165.021484,99.15625 163.742188,99.15625 Z M172.853516,85.9824219 L176.320312,85.9824219 L176.320312,88.3652344 L178.234375,88.3652344 L178.234375,90.9140625 L176.320312,90.9140625 L176.320312,95.3769531 C176.320312,96.109375 176.710938,96.4804688 177.541016,96.4804688 C177.814453,96.4804688 178.019531,96.4707031 178.224609,96.4316406 L178.224609,98.8925781 C177.892578,98.9609375 177.384766,99.0195312 176.710938,99.0195312 C173.947266,99.0195312 172.853516,98.1699219 172.853516,96.0800781 L172.853516,90.9140625 L171.408203,90.9140625 L171.408203,88.3652344 L172.853516,88.3652344 L172.853516,85.9824219 Z M43.1220703,149 L40.8564453,149 L40.8564453,139 L40.7880859,139 L36.7158203,148.882812 L34.9970703,148.882812 L30.9248047,139 L30.8564453,139 L30.8564453,149 L28.5810547,149 L28.5810547,134.908203 L31.5009766,134.908203 L35.8173828,145.542969 L35.8955078,145.542969 L40.2119141,134.908203 L43.1220703,134.908203 L43.1220703,149 Z M49.9482422,149.205078 C46.9111328,149.205078 44.9384766,147.183594 44.9384766,143.824219 C44.9384766,140.484375 46.9306641,138.433594 49.9482422,138.433594 C52.9658203,138.433594 54.9580078,140.474609 54.9580078,143.824219 C54.9580078,147.183594 52.9853516,149.205078 49.9482422,149.205078 Z M49.9482422,147.28125 C51.4912109,147.28125 52.4873047,146.03125 52.4873047,143.824219 C52.4873047,141.626953 51.4912109,140.367188 49.9482422,140.367188 C48.4150391,140.367188 47.4091797,141.626953 47.4091797,143.824219 C47.4091797,146.03125 48.4052734,147.28125 49.9482422,147.28125 Z M56.5205078,149 L56.5205078,138.648438 L58.8544922,138.648438 L58.8544922,140.425781 L58.9033203,140.425781 C59.4599609,139.195312 60.5634766,138.453125 62.1552734,138.453125 C64.4404297,138.453125 65.7392578,139.917969 65.7392578,142.310547 L65.7392578,149 L63.3076172,149 L63.3076172,142.798828 C63.3076172,141.333984 62.6240234,140.513672 61.2373047,140.513672 C59.8408203,140.513672 58.9521484,141.519531 58.9521484,143.003906 L58.9521484,149 L56.5205078,149 Z M67.7412109,149 L67.7412109,138.648438 L70.1728516,138.648438 L70.1728516,149 L67.7412109,149 Z M68.9521484,137.291016 C68.2001953,137.291016 67.6044922,136.705078 67.6044922,135.972656 C67.6044922,135.230469 68.2001953,134.644531 68.9521484,134.644531 C69.7138672,134.644531 70.3095703,135.230469 70.3095703,135.972656 C70.3095703,136.705078 69.7138672,137.291016 68.9521484,137.291016 Z M72.8876953,136.226562 L75.3193359,136.226562 L75.3193359,138.648438 L77.2724609,138.648438 L77.2724609,140.523438 L75.3193359,140.523438 L75.3193359,145.904297 C75.3193359,146.753906 75.7099609,147.144531 76.5693359,147.144531 C76.7939453,147.144531 77.1064453,147.125 77.2626953,147.095703 L77.2626953,148.951172 C76.9990234,149.009766 76.5205078,149.048828 76.0029297,149.048828 C73.7666016,149.048828 72.8876953,148.257812 72.8876953,146.246094 L72.8876953,140.523438 L71.4033203,140.523438 L71.4033203,138.648438 L72.8876953,138.648438 L72.8876953,136.226562 Z M83.5029297,149.205078 C80.4658203,149.205078 78.4931641,147.183594 78.4931641,143.824219 C78.4931641,140.484375 80.4853516,138.433594 83.5029297,138.433594 C86.5205078,138.433594 88.5126953,140.474609 88.5126953,143.824219 C88.5126953,147.183594 86.5400391,149.205078 83.5029297,149.205078 Z M83.5029297,147.28125 C85.0458984,147.28125 86.0419922,146.03125 86.0419922,143.824219 C86.0419922,141.626953 85.0458984,140.367188 83.5029297,140.367188 C81.9697266,140.367188 80.9638672,141.626953 80.9638672,143.824219 C80.9638672,146.03125 81.9599609,147.28125 83.5029297,147.28125 Z M90.0751953,149 L90.0751953,138.648438 L92.4091797,138.648438 L92.4091797,140.455078 L92.4580078,140.455078 C92.8095703,139.195312 93.7177734,138.472656 94.9384766,138.472656 C95.2509766,138.472656 95.5244141,138.53125 95.7001953,138.570312 L95.7001953,140.767578 C95.4951172,140.689453 95.1240234,140.630859 94.7138672,140.630859 C93.3369141,140.630859 92.5068359,141.519531 92.5068359,142.974609 L92.5068359,149 L90.0751953,149 Z M105.416992,140.318359 C104.049805,140.318359 103.063477,141.363281 102.96582,142.808594 L107.799805,142.808594 C107.750977,141.34375 106.813477,140.318359 105.416992,140.318359 Z M107.80957,145.904297 L110.084961,145.904297 C109.772461,147.857422 107.956055,149.205078 105.504883,149.205078 C102.399414,149.205078 100.524414,147.164062 100.524414,143.863281 C100.524414,140.591797 102.418945,138.433594 105.407227,138.433594 C108.34668,138.433594 110.182617,140.474609 110.182617,143.619141 L110.182617,144.410156 L102.946289,144.410156 L102.946289,144.556641 C102.946289,146.216797 103.961914,147.330078 105.553711,147.330078 C106.686523,147.330078 107.545898,146.763672 107.80957,145.904297 Z M120.856445,138.648438 L117.213867,149 L114.538086,149 L110.866211,138.648438 L113.463867,138.648438 L115.866211,146.744141 L115.915039,146.744141 L118.317383,138.648438 L120.856445,138.648438 Z M126.432617,140.318359 C125.06543,140.318359 124.079102,141.363281 123.981445,142.808594 L128.81543,142.808594 C128.766602,141.34375 127.829102,140.318359 126.432617,140.318359 Z M128.825195,145.904297 L131.100586,145.904297 C130.788086,147.857422 128.97168,149.205078 126.520508,149.205078 C123.415039,149.205078 121.540039,147.164062 121.540039,143.863281 C121.540039,140.591797 123.43457,138.433594 126.422852,138.433594 C129.362305,138.433594 131.198242,140.474609 131.198242,143.619141 L131.198242,144.410156 L123.961914,144.410156 L123.961914,144.556641 C123.961914,146.216797 124.977539,147.330078 126.569336,147.330078 C127.702148,147.330078 128.561523,146.763672 128.825195,145.904297 Z M132.760742,149 L132.760742,138.648438 L135.094727,138.648438 L135.094727,140.455078 L135.143555,140.455078 C135.495117,139.195312 136.40332,138.472656 137.624023,138.472656 C137.936523,138.472656 138.209961,138.53125 138.385742,138.570312 L138.385742,140.767578 C138.180664,140.689453 137.80957,140.630859 137.399414,140.630859 C136.022461,140.630859 135.192383,141.519531 135.192383,142.974609 L135.192383,149 L132.760742,149 Z M140.788086,152.847656 C140.651367,152.847656 139.958008,152.837891 139.831055,152.808594 L139.831055,150.884766 C139.958008,150.914062 140.387695,150.923828 140.53418,150.923828 C141.540039,150.923828 142.057617,150.542969 142.331055,149.585938 C142.331055,149.556641 142.477539,149.039062 142.467773,149.009766 L138.786133,138.648438 L141.442383,138.648438 L143.883789,146.929688 L143.922852,146.929688 L146.364258,138.648438 L148.922852,138.648438 L145.182617,149.410156 C144.293945,151.978516 143.151367,152.847656 140.788086,152.847656 Z M157.360352,142.720703 L157.360352,140.826172 L159.05957,140.826172 C160.504883,140.826172 161.491211,139.9375 161.491211,138.677734 C161.491211,137.447266 160.631836,136.626953 159.049805,136.626953 C157.594727,136.626953 156.618164,137.476562 156.520508,138.794922 L154.176758,138.794922 C154.313477,136.265625 156.256836,134.625 159.166992,134.625 C161.94043,134.625 163.913086,136.138672 163.913086,138.335938 C163.913086,140.083984 162.741211,141.34375 161.00293,141.646484 L161.00293,141.705078 C163.112305,141.861328 164.479492,143.150391 164.479492,145.113281 C164.479492,147.603516 162.213867,149.283203 159.137695,149.283203 C156.041992,149.283203 154.030273,147.583984 153.90332,145.074219 L156.305664,145.074219 C156.422852,146.363281 157.477539,147.222656 159.157227,147.222656 C160.77832,147.222656 161.920898,146.314453 161.920898,145.015625 C161.920898,143.589844 160.84668,142.720703 159.098633,142.720703 L157.360352,142.720703 Z M172.975586,144.361328 L166.55957,144.361328 L166.55957,142.193359 L172.975586,142.193359 L172.975586,144.361328 Z M180.651367,149.292969 C178.600586,149.292969 176.930664,148.296875 175.983398,146.490234 C175.319336,145.337891 174.977539,143.863281 174.977539,142.115234 C174.977539,137.417969 177.155273,134.615234 180.729492,134.615234 C183.307617,134.615234 185.30957,136.148438 185.729492,138.423828 L183.229492,138.423828 C182.907227,137.359375 181.920898,136.666016 180.709961,136.666016 C178.600586,136.666016 177.360352,138.619141 177.379883,142.017578 L177.428711,142.017578 C178.024414,140.640625 179.469727,139.722656 181.24707,139.722656 C183.922852,139.722656 185.915039,141.695312 185.915039,144.371094 C185.915039,147.232422 183.708008,149.292969 180.651367,149.292969 Z M180.631836,147.232422 C182.194336,147.232422 183.43457,146.001953 183.43457,144.449219 C183.43457,142.857422 182.262695,141.695312 180.651367,141.695312 C179.030273,141.695312 177.829102,142.857422 177.829102,144.419922 C177.829102,145.992188 179.05957,147.232422 180.631836,147.232422 Z M191.676758,149 L191.676758,138.648438 L194.010742,138.648438 L194.010742,140.445312 L194.05957,140.445312 C194.508789,139.244141 195.602539,138.453125 197.008789,138.453125 C198.473633,138.453125 199.518555,139.205078 199.899414,140.533203 L199.958008,140.533203 C200.456055,139.253906 201.686523,138.453125 203.180664,138.453125 C205.22168,138.453125 206.55957,139.830078 206.55957,141.900391 L206.55957,149 L204.12793,149 L204.12793,142.496094 C204.12793,141.226562 203.463867,140.503906 202.272461,140.503906 C201.100586,140.503906 200.299805,141.363281 200.299805,142.603516 L200.299805,149 L197.936523,149 L197.936523,142.369141 C197.936523,141.216797 197.233398,140.503906 196.100586,140.503906 C194.928711,140.503906 194.108398,141.412109 194.108398,142.662109 L194.108398,149 L191.676758,149 Z M213.083008,149.205078 C210.045898,149.205078 208.073242,147.183594 208.073242,143.824219 C208.073242,140.484375 210.06543,138.433594 213.083008,138.433594 C216.100586,138.433594 218.092773,140.474609 218.092773,143.824219 C218.092773,147.183594 216.120117,149.205078 213.083008,149.205078 Z M213.083008,147.28125 C214.625977,147.28125 215.62207,146.03125 215.62207,143.824219 C215.62207,141.626953 214.625977,140.367188 213.083008,140.367188 C211.549805,140.367188 210.543945,141.626953 210.543945,143.824219 C210.543945,146.03125 211.540039,147.28125 213.083008,147.28125 Z" id="path-2"></path>
        <path d="M49.0693359,48 L46.5595703,48 L46.5595703,41.8867188 L39.7041016,41.8867188 L39.7041016,48 L37.1845703,48 L37.1845703,33.9082031 L39.7041016,33.9082031 L39.7041016,39.7675781 L46.5595703,39.7675781 L46.5595703,33.9082031 L49.0693359,33.9082031 L49.0693359,48 Z M57.4580078,48 L51.5498047,48 L51.5498047,33.9082031 L57.3994141,33.9082031 C59.9580078,33.9082031 61.6083984,35.2851562 61.6083984,37.4238281 C61.6083984,38.9375 60.4853516,40.2558594 59.0400391,40.4902344 L59.0400391,40.5683594 C60.9541016,40.7539062 62.2919922,42.1308594 62.2919922,43.9960938 C62.2919922,46.4765625 60.4658203,48 57.4580078,48 Z M54.0693359,35.8710938 L54.0693359,39.8457031 L56.3740234,39.8457031 C58.1318359,39.8457031 59.1181641,39.1035156 59.1181641,37.7949219 C59.1181641,36.5644531 58.2685547,35.8710938 56.7646484,35.8710938 L54.0693359,35.8710938 Z M54.0693359,46.0371094 L56.8818359,46.0371094 C58.7373047,46.0371094 59.7236328,45.265625 59.7236328,43.8203125 C59.7236328,42.3847656 58.7080078,41.6328125 56.7744141,41.6328125 L54.0693359,41.6328125 L54.0693359,46.0371094 Z M70.9052734,48 L68.0146484,48 L63.1123047,33.9082031 L65.8857422,33.9082031 L69.4599609,45.2949219 L69.5185547,45.2949219 L73.0927734,33.9082031 L75.8076172,33.9082031 L70.9052734,48 Z M81.3154297,33.9082031 L86.4619141,33.9082031 C90.6708984,33.9082031 93.1611328,36.4570312 93.1611328,40.9199219 C93.1611328,45.3828125 90.6806641,48 86.4619141,48 L81.3154297,48 L81.3154297,33.9082031 Z M83.8349609,36.0371094 L83.8349609,45.8710938 L86.1982422,45.8710938 C89.0302734,45.8710938 90.5927734,44.1425781 90.5927734,40.9296875 C90.5927734,37.7753906 89.0107422,36.0371094 86.1982422,36.0371094 L83.8349609,36.0371094 Z M97.5849609,48 L95.1533203,48 L95.1533203,33.9082031 L97.3408203,33.9082031 L104.333008,43.78125 L104.420898,43.78125 L104.420898,33.9082031 L106.842773,33.9082031 L106.842773,48 L104.674805,48 L97.6728516,38.1171875 L97.5849609,38.1171875 L97.5849609,48 Z M118.541992,48 L117.34082,44.3574219 L112.155273,44.3574219 L110.954102,48 L108.356445,48 L113.356445,33.9082031 L116.198242,33.9082031 L121.198242,48 L118.541992,48 Z M114.713867,36.3984375 L112.741211,42.4140625 L116.745117,42.4140625 L114.782227,36.3984375 L114.713867,36.3984375 Z M136.813477,47.3261719 L126.764648,47.3261719 L126.764648,45.3828125 L136.813477,45.3828125 L136.813477,47.3261719 Z M126.754883,42.0820312 L133.639648,40.3632812 L133.639648,40.1972656 L126.754883,38.4785156 L126.754883,36.3789062 L136.813477,39.3378906 L136.813477,41.2226562 L126.754883,44.1816406 L126.754883,42.0820312 Z M143.014648,38.0878906 C143.014648,35.4902344 145.094727,33.625 148.014648,33.625 C150.827148,33.625 152.838867,35.34375 152.838867,37.6289062 C152.838867,39.3085938 151.842773,40.578125 149.99707,42.4433594 L146.510742,45.890625 L146.510742,45.9394531 L153.053711,45.9394531 L153.053711,48 L143.151367,48 L143.151367,46.3007812 L148.336914,41.1445312 C149.938477,39.5136719 150.37793,38.7910156 150.37793,37.7363281 C150.37793,36.5742188 149.333008,35.6464844 147.936523,35.6464844 C146.47168,35.6464844 145.37793,36.6816406 145.37793,38.078125 L145.37793,38.1171875 L143.014648,38.1171875 L143.014648,38.0878906 Z M160.250977,48.2832031 C156.793945,48.2832031 154.733398,45.4609375 154.733398,40.9394531 C154.733398,36.4375 156.813477,33.625 160.250977,33.625 C163.678711,33.625 165.749023,36.4179688 165.749023,40.9296875 C165.749023,45.4414062 163.698242,48.2832031 160.250977,48.2832031 Z M160.250977,46.2226562 C162.116211,46.2226562 163.200195,44.2597656 163.200195,40.9394531 C163.200195,37.6484375 162.09668,35.6855469 160.250977,35.6855469 C158.395508,35.6855469 157.272461,37.6679688 157.272461,40.9296875 C157.272461,44.25 158.375977,46.2226562 160.250977,46.2226562 Z M169.333008,50.9785156 L167.467773,50.9785156 L168.27832,45.6757812 L170.651367,45.6757812 L169.333008,50.9785156 Z M178.327148,48.2832031 C174.870117,48.2832031 172.80957,45.4609375 172.80957,40.9394531 C172.80957,36.4375 174.889648,33.625 178.327148,33.625 C181.754883,33.625 183.825195,36.4179688 183.825195,40.9296875 C183.825195,45.4414062 181.774414,48.2832031 178.327148,48.2832031 Z M178.327148,46.2226562 C180.192383,46.2226562 181.276367,44.2597656 181.276367,40.9394531 C181.276367,37.6484375 180.172852,35.6855469 178.327148,35.6855469 C176.47168,35.6855469 175.348633,37.6679688 175.348633,40.9296875 C175.348633,44.25 176.452148,46.2226562 178.327148,46.2226562 Z M191.022461,48.2832031 C187.56543,48.2832031 185.504883,45.4609375 185.504883,40.9394531 C185.504883,36.4375 187.584961,33.625 191.022461,33.625 C194.450195,33.625 196.520508,36.4179688 196.520508,40.9296875 C196.520508,45.4414062 194.469727,48.2832031 191.022461,48.2832031 Z M191.022461,46.2226562 C192.887695,46.2226562 193.97168,44.2597656 193.97168,40.9394531 C193.97168,37.6484375 192.868164,35.6855469 191.022461,35.6855469 C189.166992,35.6855469 188.043945,37.6679688 188.043945,40.9296875 C188.043945,44.25 189.147461,46.2226562 191.022461,46.2226562 Z M203.717773,48.2832031 C200.260742,48.2832031 198.200195,45.4609375 198.200195,40.9394531 C198.200195,36.4375 200.280273,33.625 203.717773,33.625 C207.145508,33.625 209.21582,36.4179688 209.21582,40.9296875 C209.21582,45.4414062 207.165039,48.2832031 203.717773,48.2832031 Z M203.717773,46.2226562 C205.583008,46.2226562 206.666992,44.2597656 206.666992,40.9394531 C206.666992,37.6484375 205.563477,35.6855469 203.717773,35.6855469 C201.862305,35.6855469 200.739258,37.6679688 200.739258,40.9296875 C200.739258,44.25 201.842773,46.2226562 203.717773,46.2226562 Z" id="path-3"></path>
        <path d="M49.0693359,48 L46.5595703,48 L46.5595703,41.8867188 L39.7041016,41.8867188 L39.7041016,48 L37.1845703,48 L37.1845703,33.9082031 L39.7041016,33.9082031 L39.7041016,39.7675781 L46.5595703,39.7675781 L46.5595703,33.9082031 L49.0693359,33.9082031 L49.0693359,48 Z M57.4580078,48 L51.5498047,48 L51.5498047,33.9082031 L57.3994141,33.9082031 C59.9580078,33.9082031 61.6083984,35.2851562 61.6083984,37.4238281 C61.6083984,38.9375 60.4853516,40.2558594 59.0400391,40.4902344 L59.0400391,40.5683594 C60.9541016,40.7539062 62.2919922,42.1308594 62.2919922,43.9960938 C62.2919922,46.4765625 60.4658203,48 57.4580078,48 Z M54.0693359,35.8710938 L54.0693359,39.8457031 L56.3740234,39.8457031 C58.1318359,39.8457031 59.1181641,39.1035156 59.1181641,37.7949219 C59.1181641,36.5644531 58.2685547,35.8710938 56.7646484,35.8710938 L54.0693359,35.8710938 Z M54.0693359,46.0371094 L56.8818359,46.0371094 C58.7373047,46.0371094 59.7236328,45.265625 59.7236328,43.8203125 C59.7236328,42.3847656 58.7080078,41.6328125 56.7744141,41.6328125 L54.0693359,41.6328125 L54.0693359,46.0371094 Z M70.9052734,48 L68.0146484,48 L63.1123047,33.9082031 L65.8857422,33.9082031 L69.4599609,45.2949219 L69.5185547,45.2949219 L73.0927734,33.9082031 L75.8076172,33.9082031 L70.9052734,48 Z M81.3154297,33.9082031 L86.4619141,33.9082031 C90.6708984,33.9082031 93.1611328,36.4570312 93.1611328,40.9199219 C93.1611328,45.3828125 90.6806641,48 86.4619141,48 L81.3154297,48 L81.3154297,33.9082031 Z M83.8349609,36.0371094 L83.8349609,45.8710938 L86.1982422,45.8710938 C89.0302734,45.8710938 90.5927734,44.1425781 90.5927734,40.9296875 C90.5927734,37.7753906 89.0107422,36.0371094 86.1982422,36.0371094 L83.8349609,36.0371094 Z M97.5849609,48 L95.1533203,48 L95.1533203,33.9082031 L97.3408203,33.9082031 L104.333008,43.78125 L104.420898,43.78125 L104.420898,33.9082031 L106.842773,33.9082031 L106.842773,48 L104.674805,48 L97.6728516,38.1171875 L97.5849609,38.1171875 L97.5849609,48 Z M118.541992,48 L117.34082,44.3574219 L112.155273,44.3574219 L110.954102,48 L108.356445,48 L113.356445,33.9082031 L116.198242,33.9082031 L121.198242,48 L118.541992,48 Z M114.713867,36.3984375 L112.741211,42.4140625 L116.745117,42.4140625 L114.782227,36.3984375 L114.713867,36.3984375 Z M136.305664,38.8886719 L129.713867,42.296875 L129.713867,42.3945312 L136.305664,45.6464844 L136.305664,48.1171875 L127.262695,43.3417969 L127.262695,41.4375 L136.305664,36.4277344 L136.305664,38.8886719 Z M143.014648,38.0878906 C143.014648,35.4902344 145.094727,33.625 148.014648,33.625 C150.827148,33.625 152.838867,35.34375 152.838867,37.6289062 C152.838867,39.3085938 151.842773,40.578125 149.99707,42.4433594 L146.510742,45.890625 L146.510742,45.9394531 L153.053711,45.9394531 L153.053711,48 L143.151367,48 L143.151367,46.3007812 L148.336914,41.1445312 C149.938477,39.5136719 150.37793,38.7910156 150.37793,37.7363281 C150.37793,36.5742188 149.333008,35.6464844 147.936523,35.6464844 C146.47168,35.6464844 145.37793,36.6816406 145.37793,38.078125 L145.37793,38.1171875 L143.014648,38.1171875 L143.014648,38.0878906 Z M160.250977,48.2832031 C156.793945,48.2832031 154.733398,45.4609375 154.733398,40.9394531 C154.733398,36.4375 156.813477,33.625 160.250977,33.625 C163.678711,33.625 165.749023,36.4179688 165.749023,40.9296875 C165.749023,45.4414062 163.698242,48.2832031 160.250977,48.2832031 Z M160.250977,46.2226562 C162.116211,46.2226562 163.200195,44.2597656 163.200195,40.9394531 C163.200195,37.6484375 162.09668,35.6855469 160.250977,35.6855469 C158.395508,35.6855469 157.272461,37.6679688 157.272461,40.9296875 C157.272461,44.25 158.375977,46.2226562 160.250977,46.2226562 Z M169.333008,50.9785156 L167.467773,50.9785156 L168.27832,45.6757812 L170.651367,45.6757812 L169.333008,50.9785156 Z M178.327148,48.2832031 C174.870117,48.2832031 172.80957,45.4609375 172.80957,40.9394531 C172.80957,36.4375 174.889648,33.625 178.327148,33.625 C181.754883,33.625 183.825195,36.4179688 183.825195,40.9296875 C183.825195,45.4414062 181.774414,48.2832031 178.327148,48.2832031 Z M178.327148,46.2226562 C180.192383,46.2226562 181.276367,44.2597656 181.276367,40.9394531 C181.276367,37.6484375 180.172852,35.6855469 178.327148,35.6855469 C176.47168,35.6855469 175.348633,37.6679688 175.348633,40.9296875 C175.348633,44.25 176.452148,46.2226562 178.327148,46.2226562 Z M191.022461,48.2832031 C187.56543,48.2832031 185.504883,45.4609375 185.504883,40.9394531 C185.504883,36.4375 187.584961,33.625 191.022461,33.625 C194.450195,33.625 196.520508,36.4179688 196.520508,40.9296875 C196.520508,45.4414062 194.469727,48.2832031 191.022461,48.2832031 Z M191.022461,46.2226562 C192.887695,46.2226562 193.97168,44.2597656 193.97168,40.9394531 C193.97168,37.6484375 192.868164,35.6855469 191.022461,35.6855469 C189.166992,35.6855469 188.043945,37.6679688 188.043945,40.9296875 C188.043945,44.25 189.147461,46.2226562 191.022461,46.2226562 Z M203.717773,48.2832031 C200.260742,48.2832031 198.200195,45.4609375 198.200195,40.9394531 C198.200195,36.4375 200.280273,33.625 203.717773,33.625 C207.145508,33.625 209.21582,36.4179688 209.21582,40.9296875 C209.21582,45.4414062 207.165039,48.2832031 203.717773,48.2832031 Z M203.717773,46.2226562 C205.583008,46.2226562 206.666992,44.2597656 206.666992,40.9394531 C206.666992,37.6484375 205.563477,35.6855469 203.717773,35.6855469 C201.862305,35.6855469 200.739258,37.6679688 200.739258,40.9296875 C200.739258,44.25 201.842773,46.2226562 203.717773,46.2226562 Z" id="path-4"></path>
        <path d="M126.728516,48 L124.296875,48 L124.296875,33.9082031 L126.484375,33.9082031 L133.476562,43.78125 L133.564453,43.78125 L133.564453,33.9082031 L135.986328,33.9082031 L135.986328,48 L133.818359,48 L126.816406,38.1171875 L126.728516,38.1171875 L126.728516,48 Z M142.8125,48.2050781 C139.775391,48.2050781 137.802734,46.1835938 137.802734,42.8242188 C137.802734,39.484375 139.794922,37.4335938 142.8125,37.4335938 C145.830078,37.4335938 147.822266,39.4746094 147.822266,42.8242188 C147.822266,46.1835938 145.849609,48.2050781 142.8125,48.2050781 Z M142.8125,46.28125 C144.355469,46.28125 145.351562,45.03125 145.351562,42.8242188 C145.351562,40.6269531 144.355469,39.3671875 142.8125,39.3671875 C141.279297,39.3671875 140.273438,40.6269531 140.273438,42.8242188 C140.273438,45.03125 141.269531,46.28125 142.8125,46.28125 Z M149.384766,48 L149.384766,37.6484375 L151.71875,37.6484375 L151.71875,39.4550781 L151.767578,39.4550781 C152.119141,38.1953125 153.027344,37.4726562 154.248047,37.4726562 C154.560547,37.4726562 154.833984,37.53125 155.009766,37.5703125 L155.009766,39.7675781 C154.804688,39.6894531 154.433594,39.6308594 154.023438,39.6308594 C152.646484,39.6308594 151.816406,40.5195312 151.816406,41.9746094 L151.816406,48 L149.384766,48 Z M156.259766,48 L156.259766,37.6484375 L158.59375,37.6484375 L158.59375,39.4453125 L158.642578,39.4453125 C159.091797,38.2441406 160.185547,37.453125 161.591797,37.453125 C163.056641,37.453125 164.101562,38.2050781 164.482422,39.5332031 L164.541016,39.5332031 C165.039062,38.2539062 166.269531,37.453125 167.763672,37.453125 C169.804688,37.453125 171.142578,38.8300781 171.142578,40.9003906 L171.142578,48 L168.710938,48 L168.710938,41.4960938 C168.710938,40.2265625 168.046875,39.5039062 166.855469,39.5039062 C165.683594,39.5039062 164.882812,40.3632812 164.882812,41.6035156 L164.882812,48 L162.519531,48 L162.519531,41.3691406 C162.519531,40.2167969 161.816406,39.5039062 160.683594,39.5039062 C159.511719,39.5039062 158.691406,40.4121094 158.691406,41.6621094 L158.691406,48 L156.259766,48 Z M176.865234,46.3300781 C178.242188,46.3300781 179.345703,45.4121094 179.345703,44.1621094 L179.345703,43.3710938 L176.953125,43.5175781 C175.78125,43.5957031 175.107422,44.1230469 175.107422,44.9433594 C175.107422,45.7929688 175.810547,46.3300781 176.865234,46.3300781 Z M176.132812,48.1660156 C174.130859,48.1660156 172.675781,46.90625 172.675781,45.0410156 C172.675781,43.2050781 174.091797,42.1015625 176.611328,41.9453125 L179.345703,41.7890625 L179.345703,41.046875 C179.345703,39.9628906 178.613281,39.3378906 177.412109,39.3378906 C176.259766,39.3378906 175.527344,39.8945312 175.371094,40.7539062 L173.115234,40.7539062 C173.222656,38.8203125 174.873047,37.4335938 177.509766,37.4335938 C180.078125,37.4335938 181.748047,38.7910156 181.748047,40.8710938 L181.748047,48 L179.404297,48 L179.404297,46.3496094 L179.355469,46.3496094 C178.759766,47.4726562 177.460938,48.1660156 176.132812,48.1660156 Z M183.769531,48 L183.769531,33.9082031 L186.201172,33.9082031 L186.201172,48 L183.769531,48 Z M201.728516,48 L200.527344,44.3574219 L195.341797,44.3574219 L194.140625,48 L191.542969,48 L196.542969,33.9082031 L199.384766,33.9082031 L204.384766,48 L201.728516,48 Z M197.900391,36.3984375 L195.927734,42.4140625 L199.931641,42.4140625 L197.96875,36.3984375 L197.900391,36.3984375 Z M214.804688,45.8710938 L214.804688,48 L205.888672,48 L205.888672,33.9082031 L208.408203,33.9082031 L208.408203,45.8710938 L214.804688,45.8710938 Z M222.568359,48 L220.058594,48 L220.058594,36.0371094 L215.839844,36.0371094 L215.839844,33.9082031 L226.777344,33.9082031 L226.777344,36.0371094 L222.568359,36.0371094 L222.568359,48 Z M235.019531,39.640625 L232.724609,38.0976562 L232.910156,40.8515625 L231.318359,40.8515625 L231.513672,38.0976562 L229.189453,39.6503906 L228.417969,38.2246094 L230.878906,37.0527344 L228.417969,35.8710938 L229.199219,34.4648438 L231.503906,35.9785156 L231.318359,33.2441406 L232.919922,33.2441406 L232.734375,35.9785156 L235.029297,34.4550781 L235.820312,35.8710938 L233.339844,37.0625 L235.820312,38.2246094 L235.019531,39.640625 Z" id="path-5"></path>
        <path d="M48.7226562,26.3183594 C47.3554688,26.3183594 46.3691406,27.3632812 46.2714844,28.8085938 L51.1054688,28.8085938 C51.0566406,27.34375 50.1191406,26.3183594 48.7226562,26.3183594 Z M51.1152344,31.9042969 L53.390625,31.9042969 C53.078125,33.8574219 51.2617188,35.2050781 48.8105469,35.2050781 C45.7050781,35.2050781 43.8300781,33.1640625 43.8300781,29.8632812 C43.8300781,26.5917969 45.7246094,24.4335938 48.7128906,24.4335938 C51.6523438,24.4335938 53.4882812,26.4746094 53.4882812,29.6191406 L53.4882812,30.4101562 L46.2519531,30.4101562 L46.2519531,30.5566406 C46.2519531,32.2167969 47.2675781,33.3300781 48.859375,33.3300781 C49.9921875,33.3300781 50.8515625,32.7636719 51.1152344,31.9042969 Z M61.6328125,30.3613281 L55.2167969,30.3613281 L55.2167969,28.1933594 L61.6328125,28.1933594 L61.6328125,30.3613281 Z M67.5703125,33.3300781 C68.9472656,33.3300781 70.0507812,32.4121094 70.0507812,31.1621094 L70.0507812,30.3710938 L67.6582031,30.5175781 C66.4863281,30.5957031 65.8125,31.1230469 65.8125,31.9433594 C65.8125,32.7929688 66.515625,33.3300781 67.5703125,33.3300781 Z M66.8378906,35.1660156 C64.8359375,35.1660156 63.3808594,33.90625 63.3808594,32.0410156 C63.3808594,30.2050781 64.796875,29.1015625 67.3164062,28.9453125 L70.0507812,28.7890625 L70.0507812,28.046875 C70.0507812,26.9628906 69.3183594,26.3378906 68.1171875,26.3378906 C66.9648438,26.3378906 66.2324219,26.8945312 66.0761719,27.7539062 L63.8203125,27.7539062 C63.9277344,25.8203125 65.578125,24.4335938 68.2148438,24.4335938 C70.7832031,24.4335938 72.453125,25.7910156 72.453125,27.8710938 L72.453125,35 L70.109375,35 L70.109375,33.3496094 L70.0605469,33.3496094 C69.4648438,34.4726562 68.1660156,35.1660156 66.8378906,35.1660156 Z M74.40625,35 L74.40625,24.6484375 L76.7402344,24.6484375 L76.7402344,26.4257812 L76.7890625,26.4257812 C77.3457031,25.1953125 78.4492188,24.453125 80.0410156,24.453125 C82.3261719,24.453125 83.625,25.9179688 83.625,28.3105469 L83.625,35 L81.1933594,35 L81.1933594,28.7988281 C81.1933594,27.3339844 80.5097656,26.5136719 79.1230469,26.5136719 C77.7265625,26.5136719 76.8378906,27.5195312 76.8378906,29.0039062 L76.8378906,35 L74.40625,35 Z M86.2421875,22.2265625 L88.6738281,22.2265625 L88.6738281,24.6484375 L90.6269531,24.6484375 L90.6269531,26.5234375 L88.6738281,26.5234375 L88.6738281,31.9042969 C88.6738281,32.7539062 89.0644531,33.1445312 89.9238281,33.1445312 C90.1484375,33.1445312 90.4609375,33.125 90.6171875,33.0957031 L90.6171875,34.9511719 C90.3535156,35.0097656 89.875,35.0488281 89.3574219,35.0488281 C87.1210938,35.0488281 86.2421875,34.2578125 86.2421875,32.2460938 L86.2421875,26.5234375 L84.7578125,26.5234375 L84.7578125,24.6484375 L86.2421875,24.6484375 L86.2421875,22.2265625 Z M92.3359375,35 L92.3359375,24.6484375 L94.7675781,24.6484375 L94.7675781,35 L92.3359375,35 Z M93.546875,23.2910156 C92.7949219,23.2910156 92.1992188,22.7050781 92.1992188,21.9726562 C92.1992188,21.2304688 92.7949219,20.6445312 93.546875,20.6445312 C94.3085938,20.6445312 94.9042969,21.2304688 94.9042969,21.9726562 C94.9042969,22.7050781 94.3085938,23.2910156 93.546875,23.2910156 Z M101.378906,33.0761719 C102.931641,33.0761719 103.9375,31.8164062 103.9375,29.7949219 C103.9375,27.7832031 102.931641,26.4746094 101.378906,26.4746094 C99.8457031,26.4746094 98.8691406,27.7636719 98.8691406,29.7949219 C98.8691406,31.8457031 99.8457031,33.0761719 101.378906,33.0761719 Z M101.369141,38.90625 C98.8105469,38.90625 96.9746094,37.5976562 96.7304688,35.78125 L99.1425781,35.78125 C99.40625,36.5722656 100.294922,37.109375 101.447266,37.109375 C103.029297,37.109375 103.9375,36.2207031 103.9375,34.9023438 L103.9375,33.1542969 L103.878906,33.1542969 C103.341797,34.2675781 102.121094,35.0097656 100.636719,35.0097656 C98.078125,35.0097656 96.3789062,33.0078125 96.3789062,29.7851562 C96.3789062,26.5136719 98.0390625,24.4726562 100.685547,24.4726562 C102.160156,24.4726562 103.351562,25.234375 103.947266,26.4257812 L103.986328,26.4257812 L103.986328,24.6484375 L106.369141,24.6484375 L106.369141,34.8339844 C106.369141,37.3046875 104.386719,38.90625 101.369141,38.90625 Z M112.814453,26.3183594 C111.447266,26.3183594 110.460938,27.3632812 110.363281,28.8085938 L115.197266,28.8085938 C115.148438,27.34375 114.210938,26.3183594 112.814453,26.3183594 Z M115.207031,31.9042969 L117.482422,31.9042969 C117.169922,33.8574219 115.353516,35.2050781 112.902344,35.2050781 C109.796875,35.2050781 107.921875,33.1640625 107.921875,29.8632812 C107.921875,26.5917969 109.816406,24.4335938 112.804688,24.4335938 C115.744141,24.4335938 117.580078,26.4746094 117.580078,29.6191406 L117.580078,30.4101562 L110.34375,30.4101562 L110.34375,30.5566406 C110.34375,32.2167969 111.359375,33.3300781 112.951172,33.3300781 C114.083984,33.3300781 114.943359,32.7636719 115.207031,31.9042969 Z M119.142578,35 L119.142578,24.6484375 L121.476562,24.6484375 L121.476562,26.4257812 L121.525391,26.4257812 C122.082031,25.1953125 123.185547,24.453125 124.777344,24.453125 C127.0625,24.453125 128.361328,25.9179688 128.361328,28.3105469 L128.361328,35 L125.929688,35 L125.929688,28.7988281 C125.929688,27.3339844 125.246094,26.5136719 123.859375,26.5136719 C122.462891,26.5136719 121.574219,27.5195312 121.574219,29.0039062 L121.574219,35 L119.142578,35 Z M139.992188,24.4726562 C142.619141,24.4726562 144.289062,26.5136719 144.289062,29.8242188 C144.289062,33.125 142.628906,35.1660156 140.03125,35.1660156 C138.527344,35.1660156 137.355469,34.4433594 136.789062,33.28125 L136.740234,33.28125 L136.740234,38.4082031 L134.308594,38.4082031 L134.308594,24.6484375 L136.681641,24.6484375 L136.681641,26.4355469 L136.730469,26.4355469 C137.316406,25.234375 138.488281,24.4726562 139.992188,24.4726562 Z M139.25,33.1738281 C140.822266,33.1738281 141.798828,31.875 141.798828,29.8242188 C141.798828,27.7832031 140.822266,26.4746094 139.25,26.4746094 C137.736328,26.4746094 136.730469,27.8125 136.720703,29.8242188 C136.730469,31.8554688 137.736328,33.1738281 139.25,33.1738281 Z M150.431641,35.2050781 C147.394531,35.2050781 145.421875,33.1835938 145.421875,29.8242188 C145.421875,26.484375 147.414062,24.4335938 150.431641,24.4335938 C153.449219,24.4335938 155.441406,26.4746094 155.441406,29.8242188 C155.441406,33.1835938 153.46875,35.2050781 150.431641,35.2050781 Z M150.431641,33.28125 C151.974609,33.28125 152.970703,32.03125 152.970703,29.8242188 C152.970703,27.6269531 151.974609,26.3671875 150.431641,26.3671875 C148.898438,26.3671875 147.892578,27.6269531 147.892578,29.8242188 C147.892578,32.03125 148.888672,33.28125 150.431641,33.28125 Z M156.818359,27.6171875 C156.818359,25.7226562 158.488281,24.4335938 161.007812,24.4335938 C163.439453,24.4335938 165.089844,25.7421875 165.148438,27.65625 L162.882812,27.65625 C162.804688,26.7675781 162.091797,26.2207031 160.958984,26.2207031 C159.884766,26.2207031 159.181641,26.7285156 159.181641,27.4804688 C159.181641,28.0664062 159.650391,28.4570312 160.666016,28.7011719 L162.511719,29.1113281 C164.582031,29.5996094 165.392578,30.4003906 165.392578,31.9335938 C165.392578,33.8867188 163.585938,35.2050781 160.96875,35.2050781 C158.371094,35.2050781 156.720703,33.9160156 156.554688,31.953125 L158.947266,31.953125 C159.09375,32.9003906 159.826172,33.4277344 161.056641,33.4277344 C162.238281,33.4277344 162.970703,32.9492188 162.970703,32.1777344 C162.970703,31.5722656 162.589844,31.25 161.583984,30.9960938 L159.699219,30.5566406 C157.785156,30.1074219 156.818359,29.1113281 156.818359,27.6171875 Z M167.003906,35 L167.003906,24.6484375 L169.435547,24.6484375 L169.435547,35 L167.003906,35 Z M168.214844,23.2910156 C167.462891,23.2910156 166.867188,22.7050781 166.867188,21.9726562 C166.867188,21.2304688 167.462891,20.6445312 168.214844,20.6445312 C168.976562,20.6445312 169.572266,21.2304688 169.572266,21.9726562 C169.572266,22.7050781 168.976562,23.2910156 168.214844,23.2910156 Z M172.150391,22.2265625 L174.582031,22.2265625 L174.582031,24.6484375 L176.535156,24.6484375 L176.535156,26.5234375 L174.582031,26.5234375 L174.582031,31.9042969 C174.582031,32.7539062 174.972656,33.1445312 175.832031,33.1445312 C176.056641,33.1445312 176.369141,33.125 176.525391,33.0957031 L176.525391,34.9511719 C176.261719,35.0097656 175.783203,35.0488281 175.265625,35.0488281 C173.029297,35.0488281 172.150391,34.2578125 172.150391,32.2460938 L172.150391,26.5234375 L170.666016,26.5234375 L170.666016,24.6484375 L172.150391,24.6484375 L172.150391,22.2265625 Z M178.244141,35 L178.244141,24.6484375 L180.675781,24.6484375 L180.675781,35 L178.244141,35 Z M179.455078,23.2910156 C178.703125,23.2910156 178.107422,22.7050781 178.107422,21.9726562 C178.107422,21.2304688 178.703125,20.6445312 179.455078,20.6445312 C180.216797,20.6445312 180.8125,21.2304688 180.8125,21.9726562 C180.8125,22.7050781 180.216797,23.2910156 179.455078,23.2910156 Z M191.828125,24.6484375 L188.185547,35 L185.509766,35 L181.837891,24.6484375 L184.435547,24.6484375 L186.837891,32.7441406 L186.886719,32.7441406 L189.289062,24.6484375 L191.828125,24.6484375 Z M197.404297,26.3183594 C196.037109,26.3183594 195.050781,27.3632812 194.953125,28.8085938 L199.787109,28.8085938 C199.738281,27.34375 198.800781,26.3183594 197.404297,26.3183594 Z M199.796875,31.9042969 L202.072266,31.9042969 C201.759766,33.8574219 199.943359,35.2050781 197.492188,35.2050781 C194.386719,35.2050781 192.511719,33.1640625 192.511719,29.8632812 C192.511719,26.5917969 194.40625,24.4335938 197.394531,24.4335938 C200.333984,24.4335938 202.169922,26.4746094 202.169922,29.6191406 L202.169922,30.4101562 L194.933594,30.4101562 L194.933594,30.5566406 C194.933594,32.2167969 195.949219,33.3300781 197.541016,33.3300781 C198.673828,33.3300781 199.533203,32.7636719 199.796875,31.9042969 Z M77.9755859,54.4628906 C77.9755859,51.0351562 78.8740234,48.2910156 80.8271484,45.9082031 L83.0146484,45.9082031 C81.5888672,47.5683594 80.4755859,51.2207031 80.4755859,54.453125 C80.4755859,57.6855469 81.5986328,61.3476562 83.0146484,63.0175781 L80.8271484,63.0175781 C78.8740234,60.625 77.9755859,57.8710938 77.9755859,54.4628906 Z M96.5009766,60 L93.9912109,60 L93.9912109,53.8867188 L87.1357422,53.8867188 L87.1357422,60 L84.6162109,60 L84.6162109,45.9082031 L87.1357422,45.9082031 L87.1357422,51.7675781 L93.9912109,51.7675781 L93.9912109,45.9082031 L96.5009766,45.9082031 L96.5009766,60 Z M104.889648,60 L98.9814453,60 L98.9814453,45.9082031 L104.831055,45.9082031 C107.389648,45.9082031 109.040039,47.2851562 109.040039,49.4238281 C109.040039,50.9375 107.916992,52.2558594 106.47168,52.4902344 L106.47168,52.5683594 C108.385742,52.7539062 109.723633,54.1308594 109.723633,55.9960938 C109.723633,58.4765625 107.897461,60 104.889648,60 Z M101.500977,47.8710938 L101.500977,51.8457031 L103.805664,51.8457031 C105.563477,51.8457031 106.549805,51.1035156 106.549805,49.7949219 C106.549805,48.5644531 105.700195,47.8710938 104.196289,47.8710938 L101.500977,47.8710938 Z M101.500977,58.0371094 L104.313477,58.0371094 C106.168945,58.0371094 107.155273,57.265625 107.155273,55.8203125 C107.155273,54.3847656 106.139648,53.6328125 104.206055,53.6328125 L101.500977,53.6328125 L101.500977,58.0371094 Z M115.739258,51.3183594 C114.37207,51.3183594 113.385742,52.3632812 113.288086,53.8085938 L118.12207,53.8085938 C118.073242,52.34375 117.135742,51.3183594 115.739258,51.3183594 Z M118.131836,56.9042969 L120.407227,56.9042969 C120.094727,58.8574219 118.27832,60.2050781 115.827148,60.2050781 C112.72168,60.2050781 110.84668,58.1640625 110.84668,54.8632812 C110.84668,51.5917969 112.741211,49.4335938 115.729492,49.4335938 C118.668945,49.4335938 120.504883,51.4746094 120.504883,54.6191406 L120.504883,55.4101562 L113.268555,55.4101562 L113.268555,55.5566406 C113.268555,57.2167969 114.28418,58.3300781 115.875977,58.3300781 C117.008789,58.3300781 117.868164,57.7636719 118.131836,56.9042969 Z M131.520508,60 L130.319336,56.3574219 L125.133789,56.3574219 L123.932617,60 L121.334961,60 L126.334961,45.9082031 L129.176758,45.9082031 L134.176758,60 L131.520508,60 Z M127.692383,48.3984375 L125.719727,54.4140625 L129.723633,54.4140625 L127.760742,48.3984375 L127.692383,48.3984375 Z M140.006836,58.0761719 C141.55957,58.0761719 142.56543,56.8164062 142.56543,54.7949219 C142.56543,52.7832031 141.55957,51.4746094 140.006836,51.4746094 C138.473633,51.4746094 137.49707,52.7636719 137.49707,54.7949219 C137.49707,56.8457031 138.473633,58.0761719 140.006836,58.0761719 Z M139.99707,63.90625 C137.438477,63.90625 135.602539,62.5976562 135.358398,60.78125 L137.770508,60.78125 C138.03418,61.5722656 138.922852,62.109375 140.075195,62.109375 C141.657227,62.109375 142.56543,61.2207031 142.56543,59.9023438 L142.56543,58.1542969 L142.506836,58.1542969 C141.969727,59.2675781 140.749023,60.0097656 139.264648,60.0097656 C136.706055,60.0097656 135.006836,58.0078125 135.006836,54.7851562 C135.006836,51.5136719 136.666992,49.4726562 139.313477,49.4726562 C140.788086,49.4726562 141.979492,50.234375 142.575195,51.4257812 L142.614258,51.4257812 L142.614258,49.6484375 L144.99707,49.6484375 L144.99707,59.8339844 C144.99707,62.3046875 143.014648,63.90625 139.99707,63.90625 Z M157.399414,55.46875 L157.399414,59.8046875 L155.202148,59.8046875 L155.202148,55.46875 L151.149414,55.46875 L151.149414,53.3007812 L155.202148,53.3007812 L155.202148,49.0332031 L157.399414,49.0332031 L157.399414,53.3007812 L161.461914,53.3007812 L161.461914,55.46875 L157.399414,55.46875 Z M168.024414,54.4628906 C168.024414,58.59375 166.725586,61.1328125 165.172852,63.0175781 L162.985352,63.0175781 C164.040039,61.7675781 165.524414,58.5253906 165.524414,54.453125 C165.524414,50.3808594 164.040039,47.1386719 162.985352,45.9082031 L165.172852,45.9082031 C166.71582,47.7832031 168.024414,50.3125 168.024414,54.4628906 Z" id="path-6"></path>
        <path d="M26.9892578,35.234375 C22.9658203,35.234375 20.4365234,32.4707031 20.4365234,27.9492188 C20.4365234,23.4570312 22.9853516,20.6738281 26.9892578,20.6738281 C30.2607422,20.6738281 32.7509766,22.7148438 33.0634766,25.7421875 L30.5830078,25.7421875 C30.2509766,23.9746094 28.8154297,22.8125 26.9892578,22.8125 C24.5673828,22.8125 23.0146484,24.8046875 23.0146484,27.9492188 C23.0146484,31.1132812 24.5576172,33.0957031 26.9990234,33.0957031 C28.8642578,33.0957031 30.2021484,32.0898438 30.5927734,30.390625 L33.0634766,30.390625 C32.6240234,33.4082031 30.3193359,35.234375 26.9892578,35.234375 Z M34.7919922,35 L34.7919922,20.9082031 L37.1943359,20.9082031 L37.1943359,26.4257812 L37.2431641,26.4257812 C37.7998047,25.1660156 38.9423828,24.453125 40.5146484,24.453125 C42.7998047,24.453125 44.1376953,25.9570312 44.1376953,28.3300781 L44.1376953,35 L41.7060547,35 L41.7060547,28.828125 C41.7060547,27.3828125 40.9833984,26.5136719 39.5771484,26.5136719 C38.1123047,26.5136719 37.2236328,27.5292969 37.2236328,29.0527344 L37.2236328,35 L34.7919922,35 Z M46.0810547,35 L46.0810547,24.6484375 L48.4150391,24.6484375 L48.4150391,26.4550781 L48.4638672,26.4550781 C48.8154297,25.1953125 49.7236328,24.4726562 50.9443359,24.4726562 C51.2568359,24.4726562 51.5302734,24.53125 51.7060547,24.5703125 L51.7060547,26.7675781 C51.5009766,26.6894531 51.1298828,26.6308594 50.7197266,26.6308594 C49.3427734,26.6308594 48.5126953,27.5195312 48.5126953,28.9746094 L48.5126953,35 L46.0810547,35 Z M57.5361328,35.2050781 C54.4990234,35.2050781 52.5263672,33.1835938 52.5263672,29.8242188 C52.5263672,26.484375 54.5185547,24.4335938 57.5361328,24.4335938 C60.5537109,24.4335938 62.5458984,26.4746094 62.5458984,29.8242188 C62.5458984,33.1835938 60.5732422,35.2050781 57.5361328,35.2050781 Z M57.5361328,33.28125 C59.0791016,33.28125 60.0751953,32.03125 60.0751953,29.8242188 C60.0751953,27.6269531 59.0791016,26.3671875 57.5361328,26.3671875 C56.0029297,26.3671875 54.9970703,27.6269531 54.9970703,29.8242188 C54.9970703,32.03125 55.9931641,33.28125 57.5361328,33.28125 Z M64.1083984,35 L64.1083984,24.6484375 L66.4423828,24.6484375 L66.4423828,26.4257812 L66.4912109,26.4257812 C67.0478516,25.1953125 68.1513672,24.453125 69.7431641,24.453125 C72.0283203,24.453125 73.3271484,25.9179688 73.3271484,28.3105469 L73.3271484,35 L70.8955078,35 L70.8955078,28.7988281 C70.8955078,27.3339844 70.2119141,26.5136719 68.8251953,26.5136719 C67.4287109,26.5136719 66.5400391,27.5195312 66.5400391,29.0039062 L66.5400391,35 L64.1083984,35 Z M75.3291016,35 L75.3291016,24.6484375 L77.7607422,24.6484375 L77.7607422,35 L75.3291016,35 Z M76.5400391,23.2910156 C75.7880859,23.2910156 75.1923828,22.7050781 75.1923828,21.9726562 C75.1923828,21.2304688 75.7880859,20.6445312 76.5400391,20.6445312 C77.3017578,20.6445312 77.8974609,21.2304688 77.8974609,21.9726562 C77.8974609,22.7050781 77.3017578,23.2910156 76.5400391,23.2910156 Z M88.9228516,28.3398438 L86.6279297,28.3398438 C86.4326172,27.2363281 85.6611328,26.40625 84.3623047,26.40625 C82.8291016,26.40625 81.8427734,27.6953125 81.8427734,29.8242188 C81.8427734,31.9921875 82.8388672,33.2421875 84.3818359,33.2421875 C85.6123047,33.2421875 86.4130859,32.5390625 86.6376953,31.3671875 L88.9326172,31.3671875 C88.7373047,33.6816406 86.9501953,35.2050781 84.3525391,35.2050781 C81.3251953,35.2050781 79.3720703,33.1835938 79.3720703,29.8242188 C79.3720703,26.5136719 81.3251953,24.4335938 84.3330078,24.4335938 C87.0673828,24.4335938 88.7568359,26.1621094 88.9228516,28.3398438 Z M106.510742,35 L104.000977,35 L104.000977,28.8867188 L97.1455078,28.8867188 L97.1455078,35 L94.6259766,35 L94.6259766,20.9082031 L97.1455078,20.9082031 L97.1455078,26.7675781 L104.000977,26.7675781 L104.000977,20.9082031 L106.510742,20.9082031 L106.510742,35 Z M114.899414,35 L108.991211,35 L108.991211,20.9082031 L114.84082,20.9082031 C117.399414,20.9082031 119.049805,22.2851562 119.049805,24.4238281 C119.049805,25.9375 117.926758,27.2558594 116.481445,27.4902344 L116.481445,27.5683594 C118.395508,27.7539062 119.733398,29.1308594 119.733398,30.9960938 C119.733398,33.4765625 117.907227,35 114.899414,35 Z M111.510742,22.8710938 L111.510742,26.8457031 L113.81543,26.8457031 C115.573242,26.8457031 116.55957,26.1035156 116.55957,24.7949219 C116.55957,23.5644531 115.709961,22.8710938 114.206055,22.8710938 L111.510742,22.8710938 Z M111.510742,33.0371094 L114.323242,33.0371094 C116.178711,33.0371094 117.165039,32.265625 117.165039,30.8203125 C117.165039,29.3847656 116.149414,28.6328125 114.21582,28.6328125 L111.510742,28.6328125 L111.510742,33.0371094 Z M128.34668,35 L125.456055,35 L120.553711,20.9082031 L123.327148,20.9082031 L126.901367,32.2949219 L126.959961,32.2949219 L130.53418,20.9082031 L133.249023,20.9082031 L128.34668,35 Z M139.323242,29.4628906 C139.323242,26.0351562 140.22168,23.2910156 142.174805,20.9082031 L144.362305,20.9082031 C142.936523,22.5683594 141.823242,26.2207031 141.823242,29.453125 C141.823242,32.6855469 142.946289,36.3476562 144.362305,38.0175781 L142.174805,38.0175781 C140.22168,35.625 139.323242,32.8710938 139.323242,29.4628906 Z M157.848633,35 L155.338867,35 L155.338867,28.8867188 L148.483398,28.8867188 L148.483398,35 L145.963867,35 L145.963867,20.9082031 L148.483398,20.9082031 L148.483398,26.7675781 L155.338867,26.7675781 L155.338867,20.9082031 L157.848633,20.9082031 L157.848633,35 Z M166.237305,35 L160.329102,35 L160.329102,20.9082031 L166.178711,20.9082031 C168.737305,20.9082031 170.387695,22.2851562 170.387695,24.4238281 C170.387695,25.9375 169.264648,27.2558594 167.819336,27.4902344 L167.819336,27.5683594 C169.733398,27.7539062 171.071289,29.1308594 171.071289,30.9960938 C171.071289,33.4765625 169.245117,35 166.237305,35 Z M162.848633,22.8710938 L162.848633,26.8457031 L165.15332,26.8457031 C166.911133,26.8457031 167.897461,26.1035156 167.897461,24.7949219 C167.897461,23.5644531 167.047852,22.8710938 165.543945,22.8710938 L162.848633,22.8710938 Z M162.848633,33.0371094 L165.661133,33.0371094 C167.516602,33.0371094 168.50293,32.265625 168.50293,30.8203125 C168.50293,29.3847656 167.487305,28.6328125 165.553711,28.6328125 L162.848633,28.6328125 L162.848633,33.0371094 Z M172.438477,27.6171875 C172.438477,25.7226562 174.108398,24.4335938 176.62793,24.4335938 C179.05957,24.4335938 180.709961,25.7421875 180.768555,27.65625 L178.50293,27.65625 C178.424805,26.7675781 177.711914,26.2207031 176.579102,26.2207031 C175.504883,26.2207031 174.801758,26.7285156 174.801758,27.4804688 C174.801758,28.0664062 175.270508,28.4570312 176.286133,28.7011719 L178.131836,29.1113281 C180.202148,29.5996094 181.012695,30.4003906 181.012695,31.9335938 C181.012695,33.8867188 179.206055,35.2050781 176.588867,35.2050781 C173.991211,35.2050781 172.34082,33.9160156 172.174805,31.953125 L174.567383,31.953125 C174.713867,32.9003906 175.446289,33.4277344 176.676758,33.4277344 C177.858398,33.4277344 178.59082,32.9492188 178.59082,32.1777344 C178.59082,31.5722656 178.209961,31.25 177.204102,30.9960938 L175.319336,30.5566406 C173.405273,30.1074219 172.438477,29.1113281 172.438477,27.6171875 Z M192.018555,35 L190.817383,31.3574219 L185.631836,31.3574219 L184.430664,35 L181.833008,35 L186.833008,20.9082031 L189.674805,20.9082031 L194.674805,35 L192.018555,35 Z M188.19043,23.3984375 L186.217773,29.4140625 L190.22168,29.4140625 L188.258789,23.3984375 L188.19043,23.3984375 Z M200.504883,33.0761719 C202.057617,33.0761719 203.063477,31.8164062 203.063477,29.7949219 C203.063477,27.7832031 202.057617,26.4746094 200.504883,26.4746094 C198.97168,26.4746094 197.995117,27.7636719 197.995117,29.7949219 C197.995117,31.8457031 198.97168,33.0761719 200.504883,33.0761719 Z M200.495117,38.90625 C197.936523,38.90625 196.100586,37.5976562 195.856445,35.78125 L198.268555,35.78125 C198.532227,36.5722656 199.420898,37.109375 200.573242,37.109375 C202.155273,37.109375 203.063477,36.2207031 203.063477,34.9023438 L203.063477,33.1542969 L203.004883,33.1542969 C202.467773,34.2675781 201.24707,35.0097656 199.762695,35.0097656 C197.204102,35.0097656 195.504883,33.0078125 195.504883,29.7851562 C195.504883,26.5136719 197.165039,24.4726562 199.811523,24.4726562 C201.286133,24.4726562 202.477539,25.234375 203.073242,26.4257812 L203.112305,26.4257812 L203.112305,24.6484375 L205.495117,24.6484375 L205.495117,34.8339844 C205.495117,37.3046875 203.512695,38.90625 200.495117,38.90625 Z M213.893555,30.46875 L213.893555,34.8046875 L211.696289,34.8046875 L211.696289,30.46875 L207.643555,30.46875 L207.643555,28.3007812 L211.696289,28.3007812 L211.696289,24.0332031 L213.893555,24.0332031 L213.893555,28.3007812 L217.956055,28.3007812 L217.956055,30.46875 L213.893555,30.46875 Z M224.518555,29.4628906 C224.518555,33.59375 223.219727,36.1328125 221.666992,38.0175781 L219.479492,38.0175781 C220.53418,36.7675781 222.018555,33.5253906 222.018555,29.453125 C222.018555,25.3808594 220.53418,22.1386719 219.479492,20.9082031 L221.666992,20.9082031 C223.209961,22.7832031 224.518555,25.3125 224.518555,29.4628906 Z M64.7089844,49.6484375 L61.90625,60 L59.3476562,60 L57.3066406,52.4316406 L57.2578125,52.4316406 L55.2265625,60 L52.6875,60 L49.8847656,49.6484375 L52.3261719,49.6484375 L54.0742188,57.5976562 L54.1230469,57.5976562 L56.1445312,49.6484375 L58.4785156,49.6484375 L60.5,57.5976562 L60.5585938,57.5976562 L62.3066406,49.6484375 L64.7089844,49.6484375 Z M65.9785156,60 L65.9785156,49.6484375 L68.4101562,49.6484375 L68.4101562,60 L65.9785156,60 Z M67.1894531,48.2910156 C66.4375,48.2910156 65.8417969,47.7050781 65.8417969,46.9726562 C65.8417969,46.2304688 66.4375,45.6445312 67.1894531,45.6445312 C67.9511719,45.6445312 68.546875,46.2304688 68.546875,46.9726562 C68.546875,47.7050781 67.9511719,48.2910156 67.1894531,48.2910156 Z M71.125,47.2265625 L73.5566406,47.2265625 L73.5566406,49.6484375 L75.5097656,49.6484375 L75.5097656,51.5234375 L73.5566406,51.5234375 L73.5566406,56.9042969 C73.5566406,57.7539062 73.9472656,58.1445312 74.8066406,58.1445312 C75.03125,58.1445312 75.34375,58.125 75.5,58.0957031 L75.5,59.9511719 C75.2363281,60.0097656 74.7578125,60.0488281 74.2402344,60.0488281 C72.0039062,60.0488281 71.125,59.2578125 71.125,57.2460938 L71.125,51.5234375 L69.640625,51.5234375 L69.640625,49.6484375 L71.125,49.6484375 L71.125,47.2265625 Z M77.2285156,60 L77.2285156,45.9082031 L79.6308594,45.9082031 L79.6308594,51.4257812 L79.6796875,51.4257812 C80.2363281,50.1660156 81.3789062,49.453125 82.9511719,49.453125 C85.2363281,49.453125 86.5742188,50.9570312 86.5742188,53.3300781 L86.5742188,60 L84.1425781,60 L84.1425781,53.828125 C84.1425781,52.3828125 83.4199219,51.5136719 82.0136719,51.5136719 C80.5488281,51.5136719 79.6601562,52.5292969 79.6601562,54.0527344 L79.6601562,60 L77.2285156,60 Z M93.0976562,60.2050781 C90.0605469,60.2050781 88.0878906,58.1835938 88.0878906,54.8242188 C88.0878906,51.484375 90.0800781,49.4335938 93.0976562,49.4335938 C96.1152344,49.4335938 98.1074219,51.4746094 98.1074219,54.8242188 C98.1074219,58.1835938 96.1347656,60.2050781 93.0976562,60.2050781 Z M93.0976562,58.28125 C94.640625,58.28125 95.6367188,57.03125 95.6367188,54.8242188 C95.6367188,52.6269531 94.640625,51.3671875 93.0976562,51.3671875 C91.5644531,51.3671875 90.5585938,52.6269531 90.5585938,54.8242188 C90.5585938,57.03125 91.5546875,58.28125 93.0976562,58.28125 Z M108.849609,49.6484375 L108.849609,60 L106.505859,60 L106.505859,58.203125 L106.457031,58.203125 C105.910156,59.4628906 104.865234,60.1855469 103.292969,60.1855469 C101.046875,60.1855469 99.6210938,58.7304688 99.6210938,56.3378906 L99.6210938,49.6484375 L102.052734,49.6484375 L102.052734,55.8496094 C102.052734,57.3339844 102.775391,58.1347656 104.142578,58.1347656 C105.548828,58.1347656 106.417969,57.1386719 106.417969,55.6347656 L106.417969,49.6484375 L108.849609,49.6484375 Z M111.505859,47.2265625 L113.9375,47.2265625 L113.9375,49.6484375 L115.890625,49.6484375 L115.890625,51.5234375 L113.9375,51.5234375 L113.9375,56.9042969 C113.9375,57.7539062 114.328125,58.1445312 115.1875,58.1445312 C115.412109,58.1445312 115.724609,58.125 115.880859,58.0957031 L115.880859,59.9511719 C115.617188,60.0097656 115.138672,60.0488281 114.621094,60.0488281 C112.384766,60.0488281 111.505859,59.2578125 111.505859,57.2460938 L111.505859,51.5234375 L110.021484,51.5234375 L110.021484,49.6484375 L111.505859,49.6484375 L111.505859,47.2265625 Z M130.666016,53.3398438 L128.371094,53.3398438 C128.175781,52.2363281 127.404297,51.40625 126.105469,51.40625 C124.572266,51.40625 123.585938,52.6953125 123.585938,54.8242188 C123.585938,56.9921875 124.582031,58.2421875 126.125,58.2421875 C127.355469,58.2421875 128.15625,57.5390625 128.380859,56.3671875 L130.675781,56.3671875 C130.480469,58.6816406 128.693359,60.2050781 126.095703,60.2050781 C123.068359,60.2050781 121.115234,58.1835938 121.115234,54.8242188 C121.115234,51.5136719 123.068359,49.4335938 126.076172,49.4335938 C128.810547,49.4335938 130.5,51.1621094 130.666016,53.3398438 Z M132.179688,60 L132.179688,49.6484375 L134.611328,49.6484375 L134.611328,60 L132.179688,60 Z M133.390625,48.2910156 C132.638672,48.2910156 132.042969,47.7050781 132.042969,46.9726562 C132.042969,46.2304688 132.638672,45.6445312 133.390625,45.6445312 C134.152344,45.6445312 134.748047,46.2304688 134.748047,46.9726562 C134.748047,47.7050781 134.152344,48.2910156 133.390625,48.2910156 Z M136.652344,60 L136.652344,49.6484375 L138.986328,49.6484375 L138.986328,51.4550781 L139.035156,51.4550781 C139.386719,50.1953125 140.294922,49.4726562 141.515625,49.4726562 C141.828125,49.4726562 142.101562,49.53125 142.277344,49.5703125 L142.277344,51.7675781 C142.072266,51.6894531 141.701172,51.6308594 141.291016,51.6308594 C139.914062,51.6308594 139.083984,52.5195312 139.083984,53.9746094 L139.083984,60 L136.652344,60 Z M143.527344,60 L143.527344,49.6484375 L145.861328,49.6484375 L145.861328,51.4550781 L145.910156,51.4550781 C146.261719,50.1953125 147.169922,49.4726562 148.390625,49.4726562 C148.703125,49.4726562 148.976562,49.53125 149.152344,49.5703125 L149.152344,51.7675781 C148.947266,51.6894531 148.576172,51.6308594 148.166016,51.6308594 C146.789062,51.6308594 145.958984,52.5195312 145.958984,53.9746094 L145.958984,60 L143.527344,60 Z M150.470703,60 L150.470703,45.9082031 L152.873047,45.9082031 L152.873047,51.4257812 L152.921875,51.4257812 C153.478516,50.1660156 154.621094,49.453125 156.193359,49.453125 C158.478516,49.453125 159.816406,50.9570312 159.816406,53.3300781 L159.816406,60 L157.384766,60 L157.384766,53.828125 C157.384766,52.3828125 156.662109,51.5136719 155.255859,51.5136719 C153.791016,51.5136719 152.902344,52.5292969 152.902344,54.0527344 L152.902344,60 L150.470703,60 Z M166.339844,60.2050781 C163.302734,60.2050781 161.330078,58.1835938 161.330078,54.8242188 C161.330078,51.484375 163.322266,49.4335938 166.339844,49.4335938 C169.357422,49.4335938 171.349609,51.4746094 171.349609,54.8242188 C171.349609,58.1835938 169.376953,60.2050781 166.339844,60.2050781 Z M166.339844,58.28125 C167.882812,58.28125 168.878906,57.03125 168.878906,54.8242188 C168.878906,52.6269531 167.882812,51.3671875 166.339844,51.3671875 C164.806641,51.3671875 163.800781,52.6269531 163.800781,54.8242188 C163.800781,57.03125 164.796875,58.28125 166.339844,58.28125 Z M172.726562,52.6171875 C172.726562,50.7226562 174.396484,49.4335938 176.916016,49.4335938 C179.347656,49.4335938 180.998047,50.7421875 181.056641,52.65625 L178.791016,52.65625 C178.712891,51.7675781 178,51.2207031 176.867188,51.2207031 C175.792969,51.2207031 175.089844,51.7285156 175.089844,52.4804688 C175.089844,53.0664062 175.558594,53.4570312 176.574219,53.7011719 L178.419922,54.1113281 C180.490234,54.5996094 181.300781,55.4003906 181.300781,56.9335938 C181.300781,58.8867188 179.494141,60.2050781 176.876953,60.2050781 C174.279297,60.2050781 172.628906,58.9160156 172.462891,56.953125 L174.855469,56.953125 C175.001953,57.9003906 175.734375,58.4277344 176.964844,58.4277344 C178.146484,58.4277344 178.878906,57.9492188 178.878906,57.1777344 C178.878906,56.5722656 178.498047,56.25 177.492188,55.9960938 L175.607422,55.5566406 C173.693359,55.1074219 172.726562,54.1113281 172.726562,52.6171875 Z M182.912109,60 L182.912109,49.6484375 L185.34375,49.6484375 L185.34375,60 L182.912109,60 Z M184.123047,48.2910156 C183.371094,48.2910156 182.775391,47.7050781 182.775391,46.9726562 C182.775391,46.2304688 183.371094,45.6445312 184.123047,45.6445312 C184.884766,45.6445312 185.480469,46.2304688 185.480469,46.9726562 C185.480469,47.7050781 184.884766,48.2910156 184.123047,48.2910156 Z M187.199219,52.6171875 C187.199219,50.7226562 188.869141,49.4335938 191.388672,49.4335938 C193.820312,49.4335938 195.470703,50.7421875 195.529297,52.65625 L193.263672,52.65625 C193.185547,51.7675781 192.472656,51.2207031 191.339844,51.2207031 C190.265625,51.2207031 189.5625,51.7285156 189.5625,52.4804688 C189.5625,53.0664062 190.03125,53.4570312 191.046875,53.7011719 L192.892578,54.1113281 C194.962891,54.5996094 195.773438,55.4003906 195.773438,56.9335938 C195.773438,58.8867188 193.966797,60.2050781 191.349609,60.2050781 C188.751953,60.2050781 187.101562,58.9160156 186.935547,56.953125 L189.328125,56.953125 C189.474609,57.9003906 190.207031,58.4277344 191.4375,58.4277344 C192.619141,58.4277344 193.351562,57.9492188 193.351562,57.1777344 C193.351562,56.5722656 192.970703,56.25 191.964844,55.9960938 L190.080078,55.5566406 C188.166016,55.1074219 187.199219,54.1113281 187.199219,52.6171875 Z" id="path-7"></path>
    </defs>
    <g id="Page-1" stroke="none" stroke-width="1" fill="none" fill-rule="evenodd">
        <g id="eAg+-Normal" transform="translate(-366.000000, -417.000000)" fill-rule="nonzero">
            <g id="Box-7" transform="translate(721.000000, 917.000000)">
                <rect id="Rectangle" fill="#2B818E" x="0" y="0" width="246" height="233"></rect>
                <g id="DonottreatMonitorALT,DNAevery1-3moMonitorHBeAgevery6mo">
                    <use fill="#212121" xlink:href="#path-1"></use>
                    <use fill="#FFFFFF" xlink:href="#path-1"></use>
                </g>
            </g>
            <g id="Box-6" transform="translate(366.000000, 917.000000)">
                <rect id="Rectangle" fill="#2B818E" x="0" y="0" width="246" height="233"></rect>
                <g id="DonottreatMonitorevery3-6mo" fill="#FFFFFF">
                    <use xlink:href="#path-2"></use>
                    <use xlink:href="#path-2"></use>
                </g>
            </g>
            <g id="Box-5" transform="translate(721.000000, 796.000000)">
                <rect id="Rectangle" fill="#1D1F20" x="0" y="0" width="246" height="81"></rect>
                <g id="HBVDNA20,000">
                    <use fill="#212121" xlink:href="#path-3"></use>
                    <use fill="#C8CDE5" xlink:href="#path-3"></use>
                </g>
                <polygon id="Line" fill="#BFD9DD" points="121.5 101.625 121.5 82.5 121.5 81 124.5 81 124.5 82.5 124.5 101.625 132.5 101.625 123 120.625 113.5 101.625 121.5 101.625"></polygon>
            </g>
            <g id="Box-4" transform="translate(366.000000, 796.000000)">
                <rect id="Rectangle" fill="#1D1F20" x="0" y="0" width="246" height="81"></rect>
                <g id="HBVDNA&lt;20,000">
                    <use fill="#212121" xlink:href="#path-4"></use>
                    <use fill="#C8CDE5" xlink:href="#path-4"></use>
                </g>
                <polygon id="Line" fill="#BFD9DD" points="121.5 101.625 121.5 82.5 121.5 81 124.5 81 124.5 82.5 124.5 101.625 132.5 101.625 123 120.625 113.5 101.625 121.5 101.625"></polygon>
            </g>
            <g id="Box-3" transform="translate(487.000000, 659.000000)">
                <rect id="Rectangle" fill="#1D1F20" x="57" y="0" width="246" height="81"></rect>
                <g id="NormalALT*">
                    <use fill="#212121" xlink:href="#path-5"></use>
                    <use fill="#C8CDE5" xlink:href="#path-5"></use>
                </g>
                <polygon id="Line" fill="#BFD9DD" points="12.6868309 122.691849 54.9393398 80.4393398 56 79.3786797 58.1213203 81.5 57.0606602 82.5606602 14.8081512 124.813169 20.4650055 130.470023 0.312462234 137.187538 7.02997666 117.034995"></polygon>
                <polygon id="Line-Copy" fill="#BFD9DD" points="345.18897 124.81029 302.93934 82.5606602 301.87868 81.5 304 79.3786797 305.06066 80.4393398 347.31029 122.68897 352.967145 117.032116 359.684659 137.184659 339.532116 130.467145 345.18897 124.81029"></polygon>
            </g>
            <g id="Box-2" transform="translate(544.000000, 538.000000)">
                <rect id="Rectangle" fill="#1D1F20" x="0" y="0" width="246" height="81"></rect>
                <g id="e-antigenpositive(HBeAg+)">
                    <use fill="#212121" xlink:href="#path-6"></use>
                    <use fill="#C8CDE5" xlink:href="#path-6"></use>
                </g>
                <polygon id="Line" fill="#BFD9DD" points="121.5 101.625 121.5 82.5 121.5 81 124.5 81 124.5 82.5 124.5 101.625 132.5 101.625 123 120.625 113.5 101.625 121.5 101.625"></polygon>
            </g>
            <g id="Box-1" transform="translate(544.000000, 417.000000)">
                <rect id="Rectangle" fill="#1D1F20" x="0" y="0" width="246" height="81"></rect>
                <g id="ChronicHBV(HBsAg+)withoutcirrhosis">
                    <use fill="#212121" xlink:href="#path-7"></use>
                    <use fill="#C8CDE5" xlink:href="#path-7"></use>
                </g>
                <path id="Line" d="M121.5,101.625 L121.5,82.5 L121.5,81 L124.5,81 L124.5,82.5 L124.5,101.625 L132.5,101.625 L123,120.625 L113.5,101.625 L121.5,101.625 Z" fill="#2B818E" opacity="0.295665923"></path>
            </g>
        </g>
    </g>
</svg>
