
<svg width="22px" height="21px" viewBox="0 0 22 21" version="1.1" xmlns="http://www.w3.org/2000/svg" xmlns:xlink="http://www.w3.org/1999/xlink">
    <!-- Generator: Sketch 51.2 (57519) - http://www.bohemiancoding.com/sketch -->
    <desc>Created with Sketch.</desc>
    <defs></defs>
    <g id="Comps" stroke="none" stroke-width="1" fill="none" fill-rule="evenodd">
        <g id="Hep-C---Level-1---Patients-Expanded" transform="translate(-923.000000, -487.000000)" fill="#003F72" fill-rule="nonzero">
            <g id="Box-1" transform="translate(310.000000, 464.000000)">
                <g id="Arrow" transform="translate(602.000000, 10.000000)">
                    <g id="arrow-right-solid-(1)" transform="translate(11.000000, 13.000000)">
                        <path d="M9.35386676,1.40657202 L10.4439237,0.339019922 C10.9054793,-0.113006641 11.6518246,-0.113006641 12.10847,0.339019922 L21.6538333,9.68250515 C22.1153889,10.1345317 22.1153889,10.8654683 21.6538333,11.3126861 L12.10847,20.6609801 C11.6469144,21.1130066 10.9005691,21.1130066 10.4439237,20.6609801 L9.35386676,19.593428 C8.88740096,19.1365926 8.89722129,18.3912297 9.37350742,17.9440119 L15.2902578,12.4235173 L1.17843991,12.4235173 C0.525387792,12.4235173 0,11.9089764 0,11.2694069 L0,9.73059308 C0,9.09102359 0.525387792,8.57648271 1.17843991,8.57648271 L15.2902578,8.57648271 L9.37350742,3.05598809 C8.89231113,2.60877032 8.88249079,1.86340737 9.35386676,1.40657202 Z" id="Shape"></path>
                    </g>
                </g>
            </g>
        </g>
    </g>
</svg>